/* XPM */
static char *result[] = {
/* columns rows colors chars-per-pixel */
"60 64 135 2 ",
"   c #010534",
".  c #01053A",
"X  c #010645",
"o  c #040847",
"O  c #02084D",
"+  c #040A53",
"@  c #040B5D",
"#  c #090D5F",
"$  c #060D65",
"%  c #090E65",
"&  c #030F6C",
"*  c #100F65",
"=  c #040E73",
"-  c #090F73",
";  c #060F7B",
":  c #09107B",
">  c #141273",
",  c #1E1273",
"<  c #14127B",
"1  c #1D137B",
"2  c #231573",
"3  c #061083",
"4  c #081182",
"5  c #09128B",
"6  c #14138B",
"7  c #091393",
"8  c #141093",
"9  c #14169B",
"0  c #231483",
"q  c #291583",
"w  c #30168B",
"e  c #291693",
"r  c #23109B",
"t  c #3F1993",
"y  c #0E16A3",
"u  c #0E16AC",
"i  c #1016A3",
"p  c #1017AC",
"a  c #1017B4",
"s  c #1419BD",
"d  c #371BA3",
"f  c #301AAC",
"g  c #49199B",
"h  c #53199A",
"j  c #5D1B9B",
"k  c #4917AC",
"l  c #5D1AA3",
"z  c #691FBD",
"x  c #1A1BC5",
"c  c #141CCE",
"v  c #191DCE",
"b  c #1E1FD6",
"n  c #1E1FDF",
"m  c #3F15C5",
"M  c #231ED6",
"N  c #221FDF",
"B  c #3F22DF",
"V  c #2921E7",
"C  c #3022E7",
"Z  c #3F22E7",
"A  c #3023EE",
"S  c #3724F7",
"D  c #7519CE",
"F  c #6916D6",
"G  c #6922D6",
"H  c #6923DF",
"J  c #4926FF",
"K  c #4929FF",
"L  c #532BFF",
"P  c #5D2BFF",
"I  c #6924FF",
"U  c #692FFF",
"Y  c #7529FF",
"T  c #7530FF",
"R  c #821FAC",
"E  c #9F20AC",
"W  c #8219DF",
"Q  c #9019DF",
"!  c #A022C5",
"~  c #BF23C5",
"^  c #8118EF",
"/  c #9119E7",
"(  c #A01AE7",
")  c #A01AEF",
"_  c #A01AF7",
"`  c #BF1BF7",
"'  c #9126E7",
"]  c #912DFF",
"[  c #9135FF",
"{  c #BF2AF7",
"}  c #A036FF",
"|  c #AF39FF",
" . c #BF39FF",
".. c #CE25CE",
"X. c #FF2BDE",
"o. c #DF29E7",
"O. c #CE2CF7",
"+. c #CE3CFF",
"@. c #DF36FF",
"#. c #DF3FFF",
"$. c #FF2DE7",
"%. c #FF2FEF",
"&. c #FF2BF0",
"*. c #FF23FF",
"=. c #FF2DFF",
"-. c #FF32F7",
";. c #FF35FF",
":. c #F039FF",
">. c #FF3EFF",
",. c #DF40FF",
"<. c #F042FF",
"1. c #FF45FF",
"2. c #FF4BFF",
"3. c #FF54FF",
"4. c #FF5DFF",
"5. c #FF64FF",
"6. c #FF6BFF",
"7. c #FF74FF",
"8. c #FF7CFF",
"9. c #FF84FF",
"0. c #FF8BFF",
"q. c #FF92FF",
"w. c #FF9CFF",
"e. c #FFA4FF",
"r. c #FFACFF",
"t. c #FFB4FF",
"y. c #FFBCFF",
"u. c #FFC4FF",
"i. c #FFCDFF",
"p. c #FFD5FF",
"a. c #FFDBFF",
"s. c #FFE4FF",
"d. c #FFEAFF",
"f. c #FFF3FF",
"g. c None",
/* pixels */
"g.g.g.g.g.g.g.g.g.g.g.g.g.g.g.g.g.g.g.g.g.g.g.g.g.g.g.g.g.g.g.g.g.g.g.g.g.g.g.g.g.g.g.g.g.g.g.g.g.g.g.g.g.g.g.g.g.g.g.g.",
"g.g.g.g.g.g.g.g.g.g.g.g.g.g.g.g.g.g.g.g.g.g.g.g.g.g.g.g.g.g.g.g.g.g.g.g.g.g.g.g.g.g.g.g.g.g.g.g.g.g.g.g.g.g.g.g.g.g.g.g.",
"g.g.g.g.g.g.g.g.g.g.g.g.g.g.g.g.g.g.g.g.g.g.g.g.g.g.g.g.g.g.g.g.g.g.g.g.g.g.g.g.g.g.g.g.g.g.g.g.g.g.g.g.g.g.g.g.g.g.g.g.",
"g.g.g.g.g.g.g.g.g.g.g.g.g.g.g.g.g.g.g.g.g.g.g.g.g.g.g.g.g.g.g.g.g.g.g.g.g.g.g.g.g.g.g.g.g.g.g.g.g.g.g.g.g.g.g.g.g.g.g.g.",
"g.g.g.g.g.g.g.g.g.g.g.g.. . . . . X g.g.g.g.g.g.g.g.g.g.g.g.g.g.g.g.g.g.g.g.g.g.g.g.. . . . . . g.g.g.g.g.g.g.g.g.g.g.g.",
"g.g.g.g.g.g.g.g.g.g.g.g.. X . X . . g.g.g.g.g.g.g.g.g.g.g.g.g.g.g.g.g.g.g.g.g.g.g.g.. X X . X . g.g.g.g.g.g.g.g.g.g.g.g.",
"g.g.g.g.g.g.g.g.g.g.g.^ _ / m 8 = @ @ g.g.g.g.g.g.g.g.g.g.g.g.g.g.g.g.g.g.g.g.g.g.@ @ = 8 m / _ ^ g.g.g.g.g.g.g.g.g.g.g.",
"g.g.g.g.g.g.g.g.g.g.=.1.4.4.1.;.I x a 3 g.g.g.g.g.g.g.g.g.g.g.g.g.g.g.g.g.g.g.g.3 a x I ;.1.4.4.1.=.g.g.g.g.g.g.g.g.g.g.",
"g.g.g.g.g.g.g.g.g.@ >.7.w.e.9.5.1.U A u X g.g.g.g.g.g.g.g.g.g.g.g.g.g.g.g.g.g.X u A U 1.5.9.e.w.6.>.$ g.g.g.g.g.g.g.g.g.",
"g.g.g.g.g.g.g.g.. @ 1.q.i.p.y.q.5.1.P u X . g.g.g.g.g.g.g.g.g.g.g.g.g.g.g.g.. X u P 1.5.q.y.p.i.q.1.@ . g.g.g.g.g.g.g.g.",
"g.g.g.g.g.g.g.Q _ *.5.r.s.f.p.t.9.5.1.Z = @ @ g.g.g.g.g.g.g.g.g.g.g.g.g.g.@ @ = Z >.4.9.t.p.f.s.r.6.*.) Q g.g.g.g.g.g.g.",
"g.g.g.g.g.g.*.1.3.6.w.i.d.f.p.u.w.8.4.;.C x y ; g.g.g.g.g.g.g.g.g.g.g.g.; y x C >.4.8.e.u.a.f.d.i.w.6.3.1.*.g.g.g.g.g.g.",
"g.g.g.g.g.. =.5.q.t.i.a.f.f.s.i.t.w.8.4.+.L N 4 . . . . . X . . . . X . 4 N L +.4.8.w.t.i.s.f.f.p.i.t.q.5.=.. g.g.g.g.g.",
"g.g.g.g.. . ;.9.y.d.d.f.f.f.d.a.i.t.w.8.3.#.J 7 . X . X . . . X . X . . 7 J #.4.8.w.t.i.p.d.f.f.f.d.d.y.9.;.. . g.g.g.g.",
"g.g.g.g.. . ;.9.u.s.s.s.s.s.a.p.p.u.r.q.8.4.1.' q q q q q q q q q q q q ' 1.4.7.0.e.u.p.p.a.s.s.s.s.s.y.9.;.. . g.g.g.g.",
"g.g.g.g.g.. =.5.q.r.r.r.r.t.y.i.i.u.y.e.q.8.6.3.2.1.1.1.1.1.1.2.1.1.1.2.3.6.8.q.e.y.i.i.i.y.t.r.r.r.t.q.5.=.. g.g.g.g.g.",
"g.g.g.g.g.g.*.1.3.5.5.5.5.6.q.r.u.i.y.y.r.e.w.0.9.9.9.9.9.9.9.9.9.9.9.9.0.w.e.r.y.y.i.u.r.0.7.5.5.5.5.3.1.*.g.g.g.g.g.g.",
"g.g.g.g.g.g.g.Q _ ` ` ` ` =.5.q.u.i.i.i.u.u.y.y.y.y.y.t.y.y.t.y.y.y.y.t.y.y.u.u.u.i.i.u.q.4.=.` ` ` ` ) Q g.g.g.g.g.g.g.",
"g.g.g.g.g.g.g.g.. . X .   > 1.9.y.i.u.u.y.y.y.y.y.u.u.i.i.i.i.i.i.u.u.y.y.y.y.y.u.u.i.u.9.1.>   . .   . g.g.g.g.g.g.g.g.",
"g.g.g.g.g.g.g.g.g..   .   > 1.9.y.u.t.w.9.9.9.9.9.w.t.u.i.p.i.p.u.t.w.9.9.9.9.0.w.t.u.y.9.2.> . . . . g.g.g.g.g.g.g.g.g.",
"g.g.g.g.g.g.g.g.g.g.  . . > 1.9.y.y.w.7.2.1.1.1.2.7.w.y.p.i.i.i.y.w.7.2.1.1.1.2.7.w.y.y.9.1.>   .   g.g.g.g.g.g.g.g.g.g.",
"g.g.g.g.g.g.g.g.g.g.g..   > 1.9.y.t.9.2.g q q q g 2.9.t.i.i.p.i.t.9.2.g q q q g 2.9.t.y.9.1.> . X g.g.g.g.g.g.g.g.g.g.g.",
"g.g.g.g.g.g.g.g.g.g.g.    > >.8.t.r.8.1.t q q q g 2.9.t.i.p.i.p.t.9.1.g q q q t 1.8.r.t.8.1.-     g.g.g.g.g.g.g.g.g.g.g.",
"g.g.g.g.g.g.g.g.g.g.g.    % ;.5.w.w.9.5.2.1.2.1.2.7.w.y.i.i.i.p.y.w.7.2.2.1.1.2.5.9.w.w.5.-.%     g.g.g.g.g.g.g.g.g.g.g.",
"g.g.g.g.g.g.g.g.g.g.g.    @ { 3.9.0.0.0.9.9.9.9.9.w.t.u.i.i.p.i.u.t.w.9.9.9.9.9.0.0.q.9.3.{ $     g.g.g.g.g.g.g.g.g.g.g.",
"g.g.g.g.g.g.g.g.g.g.g.    @ B 1.5.9.q.e.t.y.y.y.y.u.u.i.p.i.i.i.i.u.u.y.y.y.y.t.e.q.9.5.>.B @     g.g.g.g.g.g.g.g.g.g.g.",
"g.g.g.g.g.g.g.g.g.g.g.2 2 d ] 1.4.7.q.r.u.u.i.i.i.i.u.u.t.y.y.y.u.u.i.i.i.i.u.u.e.q.7.4.1.] d 2 2 g.g.g.g.g.g.g.g.g.g.g.",
"g.g.g.g.g.g.g.g.g.g.E ;.>.1.3.4.4.7.9.w.r.t.y.u.i.y.e.q.9.9.9.9.q.e.y.i.i.y.y.e.w.9.7.4.3.3.2.>.;.E g.g.g.g.g.g.g.g.g.g.",
"g.g.g.g.g.g.g.g.g.o X.3.7.8.8.6.5.6.7.9.q.w.t.u.i.r.0.4.1.1.2.1.4.0.r.i.u.t.e.0.9.8.6.6.6.8.8.7.3.X.o g.g.g.g.g.g.g.g.g.",
"g.g.g.g.g.g.g.g.. o ;.5.w.t.w.9.6.5.6.7.7.0.e.u.i.w.6.%.q q q q %.5.w.i.y.e.0.7.6.5.5.6.9.w.t.e.6.;.o . g.g.g.g.g.g.g.g.",
"g.g.g.g.g.g.g.g.X o ;.6.e.r.q.8.5.3.4.4.5.8.0.e.t.9.1.t   . . . t 2.8.t.e.q.8.5.5.4.4.4.8.w.r.w.6.-.o . g.g.g.g.g.g.g.g.",
"g.g.g.g.g.g.g.g.g.o X.3.7.8.6.3.>.#.2.3.5.6.7.8.8.3.%.> .     . > %.4.8.8.7.5.5.3.1.#.>.3.5.8.7.3.$.o g.g.g.g.g.g.g.g.g.",
"g.g.g.g.g.g.g.g.g.g.E ;.>.1.;.O.Z J  .2.5.4.3.2.2.$.j @ . . .   @ j $.1.2.3.4.5.2. .K Z O.;.1.>.;.E g.g.g.g.g.g.g.g.g.g.",
"g.g.g.g.g.g.g.g.g.g.g.2 2 0 < - $ y P 1.4.2.@.H 0 * + O .   . . o + * 0 H @.2.4.1.P y % = < 0 2 1 g.g.g.g.g.g.g.g.g.g.g.",
"g.g.g.g.g.g.g.g.g.g.g.g.. . X . . = V | 3.#.K s @ @ @ @ @ @ @ @ @ @ @ $ s K ,.3.| V = . . . . . g.g.g.g.g.g.g.g.g.g.g.g.",
"g.g.g.g.g.g.g.g.g.g.g.g.. X . . . & c L [ T K S b b b b b b b b b b b b S K Y [ L c & . . X . X g.g.g.g.g.g.g.g.g.g.g.g.",
"g.g.g.g.g.g.g.g.g.g.g.g.g.g.g.g.g.g.y c M S K T [ } } } } } } } } } } } T K S M c y g.g.g.g.g.g.g.g.g.g.g.g.g.g.g.g.g.g.",
"g.g.g.g.g.g.g.g.g.g.g.g.g.g.g.g.g.g.+ $ $ s K ,.3.3.3.3.3.3.3.3.3.3.3.3.,.K s @ $ + g.g.g.g.g.g.g.g.g.g.g.g.g.g.g.g.g.g.",
"g.g.g.g.g.g.g.g.g.g.g.g.g.g.g.g.g.g.X   . 5 S +.3.4.3.3.3.3.3.3.3.3.4.3.,.S 5 . . X g.g.g.g.g.g.g.g.g.g.g.g.g.g.g.g.g.g.",
"g.g.g.g.g.g.g.g.g.g.g.g.g.g.g.g.g.g.. .   = s J } } } } } } } [ } } } [ S s =   . . g.g.g.g.g.g.g.g.g.g.g.g.g.g.g.g.g.g.",
"g.g.g.g.g.g.g.g.g.g.g.g.g.g.g.g..   . . . + 3 u b b b b b b b b b b b b u 3 @ . .   .   g.g.g.g.g.g.g.g.g.g.g.g.g.g.g.g.",
"g.g.g.g.g.g.g.g.g.g.g.g.g.g.g.. . . . . . X o @ @ $ @ $ @ @ $ @ @ $ @ @ @ O X . . . . .   g.g.g.g.g.g.g.g.g.g.g.g.g.g.g.",
"g.g.g.g.g.g.g.g.g.g.g.g.g.g.g.  . . + @ @ @ O X . $ r F / D k w > @ O . X o @ @ @ O . . . g.g.g.g.g.g.g.g.g.g.g.g.g.g.g.",
"g.g.g.g.g.g.g.g.g.g.g.g.g.g.. .   O = y b u 3 @ X W ;.2.5.3.3.2.>...< . @ 3 u b y = o . . . g.g.g.g.g.g.g.g.g.g.g.g.g.g.",
"g.g.g.g.g.g.g.g.g.g.g.g.X . . . . @ y S [ J s = + *.4.q.e.e.q.0.6.1.R X = s K [ S y @ . . . . . g.g.g.g.g.g.g.g.g.g.g.g.",
"g.g.g.g.g.g.g.g.g.g.g.g.. . . .   = n [ 2.+.S 5 @ >.0.u.s.p.i.u.w.5.$.o 5 S +.2.[ n & . . . . . g.g.g.g.g.g.g.g.g.g.g.g.",
"g.g.g.g.g.g.g.g.g.g.g.    . .   . ; S ,.4.2.K 7 @ 1.w.p.f.s.p.i.e.6.-.O 7 K 2.5.#.S ; . . . .     g.g.g.g.g.g.g.g.g.g.g.",
"g.g.g.g.g.g.g.g.g.g.g.      .   . ; S ,.4.1.K 7 @ 1.q.i.s.p.u.t.0.4.o.X 7 K 1.4.#.S ; . . . .     g.g.g.g.g.g.g.g.g.g.g.",
"g.g.g.g.g.g.g.g.g.g.g.      . . . ; S ,.5.1.K 7 + 1.9.u.p.i.t.w.8.2.F o 7 K 1.4.,.S ;   .         g.g.g.g.g.g.g.g.g.g.g.",
"g.g.g.g.g.g.g.g.g.g.g.    . .   . ; S ,.5.1.K 7 O ;.8.t.i.y.w.9.4.:.x o 7 K 2.5.,.S ; . . . .     g.g.g.g.g.g.g.g.g.g.g.",
"g.g.g.g.g.g.g.g.g.g.g.    . .     : Y 2.6.3.} 9 X $.5.w.t.q.8.4.<.K y o 7 K 1.4.,.S ; .   . .     g.g.g.g.g.g.g.g.g.g.g.",
"g.g.g.g.g.g.g.g.g.g.g.      . . . 6 ;.4.0.6.;.f o R 1.6.8.5.3.1.P v 3 . 7 K 2.4.,.S ;   . .       g.g.g.g.g.g.g.g.g.g.g.",
"g.g.g.g.g.g.g.g.g.g.g.    . .   . e 1.7.e.9.2.z . < ~ ;.1.;.O.Z s 5 @ . 7 K 1.4.,.S ; . . .       g.g.g.g.g.g.g.g.g.g.g.",
"g.g.g.g.g.g.g.g.g.g.g.      . .   g 2.0.y.w.4.... + # > 0 < - % @ + X . 7 L 1.5.,.S ;     . .     g.g.g.g.g.g.g.g.g.g.g.",
"g.g.g.g.g.g.g.g.g.g.g.g.. . . . . t 1.9.t.0.4.!     . . . .   . .   . . 9 ] 3.7.2.Y : . X . . . g.g.g.g.g.g.g.g.g.g.g.g.",
"g.g.g.g.g.g.g.g.g.g.g.g.X . . . . > %.3.8.5.;.t . . .     . . . . . .   f >.6.0.4.;.6 . . . . . g.g.g.g.g.g.g.g.g.g.g.g.",
"g.g.g.g.g.g.g.g.g.g.g.g.g.g.. . . @ j $.1.-.R * . . . . . . .     . . . z 2.9.e.8.1.e . . . g.g.g.g.g.g.g.g.g.g.g.g.g.g.",
"g.g.g.g.g.g.g.g.g.g.g.g.g.g.g.  . X + * 0 > @ o     .       . .   .   . ..4.w.u.0.2.g . . g.g.g.g.g.g.g.g.g.g.g.g.g.g.g.",
"g.g.g.g.g.g.g.g.g.g.g.g.g.g.g..   . . .     . . . . . . . .     . . . . ! 4.0.t.9.2.l   . g.g.g.g.g.g.g.g.g.g.g.g.g.g.g.",
"g.g.g.g.g.g.g.g.g.g.g.g.g.g.g.g..   . . . . .   .     . .   . . .     . t ;.4.9.5.1.h . g.g.g.g.g.g.g.g.g.g.g.g.g.g.g.g.",
"g.g.g.g.g.g.g.g.g.g.g.g.g.g.g.g.g.g.. .   . . . . . .   . .     . . . . % R -.1.;.&.g.g.g.g.g.g.g.g.g.g.g.g.g.g.g.g.g.g.",
"g.g.g.g.g.g.g.g.g.g.g.g.g.g.g.g.g.g.X   . . . . . . . . . . . .     . . o @ > 0 1 2 g.g.g.g.g.g.g.g.g.g.g.g.g.g.g.g.g.g.",
"g.g.g.g.g.g.g.g.g.g.g.g.g.g.g.g.g.g.g.. . . . . . X . . . X . . . . . X . . . . . g.g.g.g.g.g.g.g.g.g.g.g.g.g.g.g.g.g.g.",
"g.g.g.g.g.g.g.g.g.g.g.g.g.g.g.g.g.g.g.g.. . X . . . . . . . X X . . . . X . . . g.g.g.g.g.g.g.g.g.g.g.g.g.g.g.g.g.g.g.g."
};
