/* XPM */
static char *result[] = {
/* columns rows colors chars-per-pixel */
"64 64 188 2 ",
"   c #010100",
".  c #0B0900",
"X  c #0C0C0B",
"o  c #0A0700",
"O  c #110B00",
"+  c #111101",
"@  c #1B1100",
"#  c #1D1D00",
"$  c #11110E",
"%  c #191914",
"&  c #241A00",
"*  c #2A1C00",
"=  c #261700",
"-  c #321D00",
";  c #242300",
":  c #292500",
">  c #342100",
",  c #392300",
"<  c #332D00",
"1  c #3A2901",
"2  c #3F3D00",
"3  c #383606",
"4  c #26261F",
"5  c #382E12",
"6  c #39351B",
"7  c #2B2B24",
"8  c #35342B",
"9  c #39382E",
"0  c #393726",
"q  c #4B2C00",
"w  c #473200",
"e  c #5A3500",
"r  c #533B00",
"t  c #543700",
"y  c #653C00",
"u  c #4A4800",
"i  c #5C4200",
"p  c #514F00",
"a  c #5C5900",
"s  c #575400",
"d  c #6D4100",
"f  c #634A00",
"g  c #6E4E01",
"h  c #764600",
"j  c #764C00",
"k  c #615700",
"l  c #765300",
"z  c #795707",
"x  c #686501",
"c  c #767200",
"v  c #797505",
"b  c #76731D",
"n  c #48473C",
"m  c #54533D",
"M  c #766025",
"N  c #766E38",
"B  c #5C5B4B",
"V  c #605E4E",
"C  c #6E6D5A",
"Z  c #6D6D55",
"A  c #767358",
"S  c #76744A",
"D  c #767560",
"F  c #834E00",
"G  c #845C00",
"H  c #865400",
"J  c #955800",
"K  c #A15F00",
"L  c #946A00",
"P  c #9E6900",
"I  c #9F7300",
"U  c #9E7F00",
"Y  c #A76500",
"T  c #B26A00",
"R  c #A77201",
"E  c #B27300",
"W  c #BC7200",
"Q  c #B27C00",
"!  c #C67C00",
"~  c #918C00",
"^  c #9E8900",
"/  c #9C9401",
"(  c #9A9600",
")  c #B88000",
"_  c #B38514",
"`  c #ABA607",
"'  c #B0AA00",
"]  c #BFBA02",
"[  c #B39238",
"{  c #B2AE2C",
"}  c #C58A00",
"|  c #CD8900",
" . c #D68400",
".. c #CC9102",
"X. c #DB9400",
"o. c #E68A00",
"O. c #E18700",
"+. c #E59300",
"@. c #E59B00",
"#. c #EA9700",
"$. c #FE9C00",
"%. c #D7A700",
"&. c #C3BD00",
"*. c #D7BB00",
"=. c #E5A200",
"-. c #EDA400",
";. c #FFA300",
":. c #F4AB01",
">. c #FEAB00",
",. c #F3A300",
"<. c #FFB300",
"1. c #FFBB00",
"2. c #FFBD0A",
"3. c #FFBE14",
"4. c #FFBC18",
"5. c #E2A918",
"6. c #D7C800",
"7. c #D9D201",
"8. c #FFC400",
"9. c #FECC00",
"0. c #FFCC0B",
"q. c #E2DB01",
"w. c #FEDB00",
"e. c #FFD407",
"r. c #FFCA17",
"t. c #E1DA10",
"y. c #FFD715",
"u. c #EDE501",
"i. c #FFE504",
"p. c #FEEC00",
"a. c #F3EB00",
"s. c #FCF003",
"d. c #FAF10D",
"f. c #FFED19",
"g. c #FFE517",
"h. c #FFCF2E",
"j. c #FFDF2C",
"k. c #FFD737",
"l. c #FFE027",
"z. c #FDF129",
"x. c #E6E037",
"c. c #FFEF3D",
"v. c #FFF534",
"b. c #86855E",
"n. c #B39E5B",
"m. c #B2AF4F",
"M. c #83826B",
"N. c #9F9F7C",
"B. c #A1A07E",
"V. c #B3AA7E",
"C. c #B8B77E",
"Z. c #B2B071",
"A. c #A9A765",
"S. c #E2B942",
"D. c #FFCD47",
"F. c #FFD244",
"G. c #FFDE47",
"H. c #E1DD5E",
"J. c #FFE945",
"K. c #FAE84D",
"L. c #FFF347",
"P. c #F9E857",
"I. c #FFF35D",
"U. c #CDCA6E",
"Y. c #FFDF7A",
"T. c #E2C86C",
"R. c #E6E162",
"E. c #FFE16A",
"W. c #FFF168",
"Q. c #ECE875",
"!. c #FFE579",
"~. c #FFF47A",
"^. c #A3A285",
"/. c #B2B28D",
"(. c #B2B292",
"). c #CCCA9C",
"_. c #E2D896",
"`. c #E6E18B",
"'. c #FFF284",
"]. c #E5E39A",
"[. c #FFF393",
"{. c #CAC9A0",
"}. c #E6E2AF",
"|. c #FFF2AC",
" X c #FFFAAC",
".X c #FFF1A6",
"XX c #E6E3B5",
"oX c None",
/* pixels */
"oXoXoXoXoXoXoXoXoXoXoXoXoXoXoXoXoXoXoXoXoXoXoXoXoXoXoXoXoXoXoXoXoXoXoXoXoXoXoXoXoXoXoXoXoXoXoXoXoXoXoXoXoXoXoXoXoXoXoXoXoXoXoXoX",
"oXoXoXoXoXoXoXoXoXoXoXoXoXoXoXoXoXoXoXoXoXoXoXoXoXoXoXoXoXoXoXoXoXoXoXoXoXoXoXoXoXoXoXoXoXoXoXoXoXoXoXoXoXoXoXoXoXoXoXoXoXoXoXoX",
"oXoXoXoXoXoXoXoXoXoXoXoXoXoXoXoXoXoXoXoXoXoXoXoXoXoXoXoXoXoXoXoXoXoXoXoXoXoXoXoXoXoXoXoXoXoXoXoXoXoXoXoXoXoXoXoXoXoXoXoXoXoXoXoX",
"oXoXoXoXoXoXoXoXoXoXoXoXoXoXoXoXoXoXoXoXoXoXoXoXoXoXoXoXoXoXoXoXoXoXoXoXoXoXoXoXoXoXoXoXoXoXoXoXoXoXoXoXoXoXoXoXoXoXoXoXoXoXoXoX",
"oXoXoXoXoXoXoXoXoXoXoXoXoXoXoXoXoXoXoXoXoXoXoXoXoXoXoXoXoXoXoXoXoXoXoXoXoXoXoXoXoXoXoXoXoXoXoXoXoXoXoXoXoXoXoXoXoXoXoXoXoXoXoXoX",
"oXoXoXoXoXoXoXoXoXoXoXoXoXoXoXoXoXoXoXoXoXoXoXoXoXoXoXoXoXoXoXoXoXoXoXoXoXoXoXoXoXoXoXoXoXoXoXoXoXoXoXoXoXoXoXoXoXoXoXoXoXoXoXoX",
"oXoXoXoXoXoXoXoXoXoXoXoXoXoXoXoXoXoXoXoXoXoXoXoXoXoXoXoXoXoXoXoXoXoXoXoXoXoXoXoXoXoXoXoXoXoXoXoXoXoXoXoXoXoXoXoXoXoXoXoXoXoXoXoX",
"oXoXoXoXoXoXoXoXoXoXoXoXoXoXoXoXoXoXoXoXoXoXoXoXoXoXoXoXoXoXoXoXoXoXoXoXoXoXoXoXoXoXoXoXoXoXoXoXoXoXoXoXoXoXoXoXoXoXoXoXoXoXoXoX",
"oXoXoXoXoXoXoXoXoXoXoXoXoXoXoXoXoXoXoXoXoXoXoXoXoXoXoXoXoXoXoXoXoXoXoXoXoXoXoXoXoXoXoXoXoXoXoXoXoXoXoXoXoXoXoXoXoXoXoXoXoXoXoXoX",
"oXoXoXoXoXoXoXoXoXoXoXoXoXoXoXoXoXoXoXoXoXoXoXoXoXoXoXoXoXoXoXoXoXoXoXoXoXoXoXoXoXoXoXoXoXoXoXoXoXoXoXoXoXoXoXoXoXoXoXoXoXoXoXoX",
"oXoXoXoXoXoXoXoXoXoXoXoXoXoXoXoXoXoXoXoXoXoXoXoXoXoXoXoXoXoXoXoXoXoXoXoXoXoXoXoXoXoXoXoXoXoXoXoXoXoXoXoXoXoXoXoXoXoXoXoXoXoXoXoX",
"oXoXoXoXoXoXoXoXoXoXoXoXoXoXoXoXoXoXoXoXoXoXoXoXoXoXoXoXoXoXoXoXoXoXoXoXoXoXoXoXoXoXoXoXoXoXoXoXoXoXoXoXoXoXoXoXoXoXoXoXoXoXoXoX",
"oXoXoXoXoXoXoXoXoXoXoXoXoXoXoXoXoXoXoXoXoXoXoXoXoXoXoXoXoXoXoXoXoXoXoXoXoXoXoXoXoXoXoXoXoXoXoXoXoXoXoXoXoXoXoXoXoXoXoXoXoXoXoXoX",
"oXoXoXoXoXoXoXoXoXoXoXoXoXoXoXoXoXoXoXoXoXoXoXoXoXoXoXoXoX            oXoXoXoXoXoXoXoXoXoXoXoXoXoXoXoXoXoXoXoXoXoXoXoXoXoXoXoXoX",
"oXoXoXoXoXoXoXoXoXoXoXoXoXoXoXoXoXoXoXoXoXoXoXoXoXoXoXoX$ $ $ $ O $ O O oXoXoXoXoXoXoXoXoXoXoXoXoXoXoXoXoXoXoXoXoXoXoXoXoXoXoXoX",
"oXoXoXoXoXoXoXoXoXoXoXoXoXoXoXoXoXoXoXoXoXoXoXoXoXoXoX7 8 9 0 6 5 1 1 > * oXoXoXoXoXoXoXoXoXoXoXoXoXoXoXoXoXoXoXoXoXoXoXoXoXoXoX",
"oXoXoXoXoXoXoXoXoXoXoXoXoXoXoXoXoXoXoXoXoXoXoXoXoXoX4 n B C A N M z g i w * oXoXoXoXoXoXoXoXoXoXoXoXoXoXoXoXoXoXoXoXoXoXoXoXoXoX",
"oXoXoXoXoXoXoXoXoXoXoXoXoXoXoXoXoXoXoXoXoXoXoXoXoXX 7 B M.^.V.n.[ _ R G i * . oXoXoXoXoXoXoXoXoXoXoXoXoXoXoXoXoXoXoXoXoXoXoXoXoX",
"oXoXoXoXoXoXoXoXoXoXoXoXoXoXoXoXoXoXoXoXoXoXoXoX$ % 8 Z N.)._.T.S.5...I g , @ . oXoXoXoXoXoXoXoXoXoXoXoXoXoXoXoXoXoXoXoXoXoXoXoX",
"oXoXoXoXoXoXoXoXoXoXoXoXoXoXoXoXoXoXoXoXoXoXoX4 7 8 m b.C.].[.E.D.r.-.Q G r - * = oXoXoXoXoXoXoXoXoXoXoXoXoXoXoXoXoXoXoXoXoXoXoX",
"oXoXoXoXoXoXoXoXoXoXoXoXoXoXoXoXoXoXoXoXoXoX7 n B Z b.A.U.Q.W.K.h.3.-...R F d e q * oXoXoXoXoXoXoXoXoXoXoXoXoXoXoXoXoXoXoXoXoXoX",
"oXoXoXoXoXoXoXoXoXoXoXoXoXoXoXoXoXoXoXoXoX$ 8 V M.N.C.U.H.K.c.l.r.2.:.X.| W K F y * O oXoXoXoXoXoXoXoXoXoXoXoXoXoXoXoXoXoXoXoXoX",
"oXoXoXoXoXoXoXoXoXoXoXoXoXoXoXoXoXoXoXoX  $ 9 C ^.{.].Q.P.z.f.y.0.1.<.,.#.o.! K h - O   oXoXoXoXoXoXoXoXoXoXoXoXoXoXoXoXoXoXoXoX",
"oXoXoXoXoXoXoXoXoXoXoXoXoXoXoXoXoXoXoX    $ 9 D (.XX X~.L.f.i.w.8.1.<.>.$.$.o.T h , O     oXoXoXoXoXoXoXoXoXoXoXoXoXoXoXoXoXoXoX",
"oXoXoXoXoXoXoXoXoXoXoXoXoXoXoXoXoXoXoX    $ 9 D (.XX X~.J.y.w.9.8.2.>.>.;.$.o.T h - O     oXoXoXoXoXoXoXoXoXoXoXoXoXoXoXoXoXoXoX",
"oXoXoXoXoXoXoXoXoXoXoXoXoXoXoXoXoXoXoX    $ 9 D (.XX X!.K.r.9.8.8.<.<.>.;.$.o.T h , O     oXoXoXoXoXoXoXoXoXoXoXoXoXoXoXoXoXoXoX",
"oXoXoXoXoXoXoXoXoXoXoXoXoXoXoXoXoXoXoX    $ 9 D (.XX|.!.F.r.2.1.<.<.<.>.;.$.o.T h , O     oXoXoXoXoXoXoXoXoXoXoXoXoXoXoXoXoXoXoX",
"oXoXoXoXoXoXoXoXoXoXoXoXoXoXoXoXoXoXoX    $ 9 D (.XX|.Y.D.4.<.<.<.<.<.>.;.$.o.T h , O     oXoXoXoXoXoXoXoXoXoXoXoXoXoXoXoXoXoXoX",
"oXoXoXoXoXoXoXoXoXoXoXoXoXoXoXoXoXoXoX    $ 9 D (.XX|.Y.D.4.<.<.<.<.<.>.>.;.+.E j , O     oXoXoXoXoXoXoXoXoXoXoXoXoXoXoXoXoXoXoX",
"oXoXoXoXoXoXoXoXoXoXoXoXoXoXoXoXoXoXoX    $ 9 D (.XX|.Y.D.4.<.<.<.<.<.>.>.>.@.E j , O     oXoXoXoXoXoXoXoXoXoXoXoXoXoXoXoXoXoXoX",
"oXoXoXoXoXoXoXoXoXoXoXoXoXoXoXoXoXoXoX    $ 9 D (.XX|.Y.D.4.<.<.<.<.<.<.<.<.@.Q l , O     oXoXoXoXoXoXoXoXoXoXoXoXoXoXoXoXoXoXoX",
"oXoXoXoXoXoXoXoXoXoXoXoXoXoXoXoXoXoXoX    $ 9 D (.XX|.Y.D.4.<.<.<.<.<.<.<.<.-.Q l 1 O     oXoXoXoXoXoXoXoXoXoXoXoXoXoXoXoXoXoXoX",
"oXoXoXoXoXoXoXoXoXoXoXoXoXoXoXoXoXoXoX    $ 9 D (.XX|.Y.D.4.<.<.<.<.<.<.<.<.=.Q l 1 .     oXoXoXoXoXoXoXoXoXoXoXoXoXoXoXoXoXoXoX",
"oXoXoXoXoXoXoXoXoXoXoXoXoXoXoXoXoXoXoX    $ 9 D (.XX|.Y.D.4.<.<.<.1.<.<.1.<.=.Q l 1 O     oXoXoXoXoXoXoXoXoXoXoXoXoXoXoXoXoXoXoX",
"oXoXoXoXoXoXoXoXoXoXoXoXoXoXoXoXoXoXoX    $ 9 D (.XX|.Y.D.4.<.<.<.<.<.<.<.<.=.) l 1 O     oXoXoXoXoXoXoXoXoXoXoXoXoXoXoXoXoXoXoX",
"oXoXoXoXoXoXoXoXoXoXoXoXoXoXoXoXoXoXoX    $ 9 D (.XX|.Y.D.4.<.<.<.<.<.<.<.<.=.Q l , O     oXoXoXoXoXoXoXoXoXoXoXoXoXoXoXoXoXoXoX",
"oXoXoXoXoXoXoXoXoXoXoXoXoXoXoXoXoXoXoX    $ 9 D (.XX|.Y.D.4.<.<.<.<.<.>.<.>.@.Q l , O     oXoXoXoXoXoXoXoXoXoXoXoXoXoXoXoXoXoXoX",
"oXoXoXoXoXoXoXoXoXoXoXoXoXoXoXoXoXoXoX    $ 9 D (.XX|.Y.D.4.<.<.<.<.<.<.>.>.+.E j , O     oXoXoXoXoXoXoXoXoXoXoXoXoXoXoXoXoXoXoX",
"oXoXoXoXoXoXoXoXoXoXoXoXoXoXoXoXoXoXoX    $ 9 D (.XX|.Y.D.4.<.<.<.<.<.>.;.;.+.T h , O     oXoXoXoXoXoXoXoXoXoXoXoXoXoXoXoXoXoXoX",
"oXoXoXoXoXoXoXoXoXoXoXoXoXoXoXoXoXoXoX    $ 9 A /.}..XY.D.r.<.<.<.<.<.>.;.;.o.T h , O     oXoXoXoXoXoXoXoXoXoXoXoXoXoXoXoXoXoXoX",
"oXoXoXoXoXoXoXoXoXoXoXoXoXoXoXoXoXoXoX    $ 0 S Z.`.'.P.k.r.8.1.1.<.<.>.;.$.o.T h - O     oXoXoXoXoXoXoXoXoXoXoXoXoXoXoXoXoXoXoX",
"oXoXoXoXoXoXoXoXoXoXoXoXoXoXoXoXoXoXoX    $ 6 N m.R.I.J.l.e.9.9.8.1.>.>.;.$.o.T h - O     oXoXoXoXoXoXoXoXoXoXoXoXoXoXoXoXoXoXoX",
"oXoXoXoXoXoXoXoXoXoXoXoXoXoXoXoXoXoXoX    + 3 b { x.v.z.f.i.w.e.8.1.<.>.;.$.o.T h q O     oXoXoXoXoXoXoXoXoXoXoXoXoXoXoXoXoXoXoX",
"oXoXoXoXoXoXoXoXoXoXoXoXoXoXoXoXoXoXoXoX  + 3 v ` t.d.d.s.s.p.w.9.1.<.;.;.$.O.T h - O   oXoXoXoXoXoXoXoXoXoXoXoXoXoXoXoXoXoXoXoX",
"oXoXoXoXoXoXoXoXoXoXoXoXoXoXoXoXoXoXoXoX  + 3 x ( ] 7.7.u.s.s.w.9.1.:.-.+. .W J y - O   oXoXoXoXoXoXoXoXoXoXoXoXoXoXoXoXoXoXoXoX",
"oXoXoXoXoXoXoXoXoXoXoXoXoXoXoXoXoXoXoXoXoX+ < a c ~ ` ] 7.a.p.w.9.1.:.X.! Y J h e - O oXoXoXoXoXoXoXoXoXoXoXoXoXoXoXoXoXoXoXoXoX",
"oXoXoXoXoXoXoXoXoXoXoXoXoXoXoXoXoXoXoXoXoXoXoX2 p a c ( 6.u.p.w.9.1.=.| P j e q q oXoXoXoXoXoXoXoXoXoXoXoXoXoXoXoXoXoXoXoXoXoXoX",
"oXoXoXoXoXoXoXoXoXoXoXoXoXoXoXoXoXoXoXoXoXoXoX# # : u v ' 7.a.w.9.1.%.Q l w * @ O oXoXoXoXoXoXoXoXoXoXoXoXoXoXoXoXoXoXoXoXoXoXoX",
"oXoXoXoXoXoXoXoXoXoXoXoXoXoXoXoXoXoXoXoXoXoXoXoX  + < x ( &.6.*.%.%.} L f > O   oXoXoXoXoXoXoXoXoXoXoXoXoXoXoXoXoXoXoXoXoXoXoXoX",
"oXoXoXoXoXoXoXoXoXoXoXoXoXoXoXoXoXoXoXoXoXoXoXoXoX. : s c ~ / ^ ^ I L l r * . oXoXoXoXoXoXoXoXoXoXoXoXoXoXoXoXoXoXoXoXoXoXoXoXoX",
"oXoXoXoXoXoXoXoXoXoXoXoXoXoXoXoXoXoXoXoXoXoXoXoXoXoXoX2 p a k a i f i r w oXoXoXoXoXoXoXoXoXoXoXoXoXoXoXoXoXoXoXoXoXoXoXoXoXoXoX",
"oXoXoXoXoXoXoXoXoXoXoXoXoXoXoXoXoXoXoXoXoXoXoXoXoXoXoX; : : : : : ; * & & oXoXoXoXoXoXoXoXoXoXoXoXoXoXoXoXoXoXoXoXoXoXoXoXoXoXoX",
"oXoXoXoXoXoXoXoXoXoXoXoXoXoXoXoXoXoXoXoXoXoXoXoXoXoXoXoXo   o o o   o o oXoXoXoXoXoXoXoXoXoXoXoXoXoXoXoXoXoXoXoXoXoXoXoXoXoXoXoX",
"oXoXoXoXoXoXoXoXoXoXoXoXoXoXoXoXoXoXoXoXoXoXoXoXoXoXoXoXoX            oXoXoXoXoXoXoXoXoXoXoXoXoXoXoXoXoXoXoXoXoXoXoXoXoXoXoXoXoX",
"oXoXoXoXoXoXoXoXoXoXoXoXoXoXoXoXoXoXoXoXoXoXoXoXoXoXoXoXoXoXoXoXoXoXoXoXoXoXoXoXoXoXoXoXoXoXoXoXoXoXoXoXoXoXoXoXoXoXoXoXoXoXoXoX",
"oXoXoXoXoXoXoXoXoXoXoXoXoXoXoXoXoXoXoXoXoXoXoXoXoXoXoXoXoXoXoXoXoXoXoXoXoXoXoXoXoXoXoXoXoXoXoXoXoXoXoXoXoXoXoXoXoXoXoXoXoXoXoXoX",
"oXoXoXoXoXoXoXoXoXoXoXoXoXoXoXoXoXoXoXoXoXoXoXoXoXoXoXoXoXoXoXoXoXoXoXoXoXoXoXoXoXoXoXoXoXoXoXoXoXoXoXoXoXoXoXoXoXoXoXoXoXoXoXoX",
"oXoXoXoXoXoXoXoXoXoXoXoXoXoXoXoXoXoXoXoXoXoXoXoXoXoXoXoXoXoXoXoXoXoXoXoXoXoXoXoXoXoXoXoXoXoXoXoXoXoXoXoXoXoXoXoXoXoXoXoXoXoXoXoX",
"oXoXoXoXoXoXoXoXoXoXoXoXoXoXoXoXoXoXoXoXoXoXoXoXoXoXoXoXoXoXoXoXoXoXoXoXoXoXoXoXoXoXoXoXoXoXoXoXoXoXoXoXoXoXoXoXoXoXoXoXoXoXoXoX",
"oXoXoXoXoXoXoXoXoXoXoXoXoXoXoXoXoXoXoXoXoXoXoXoXoXoXoXoXoXoXoXoXoXoXoXoXoXoXoXoXoXoXoXoXoXoXoXoXoXoXoXoXoXoXoXoXoXoXoXoXoXoXoXoX",
"oXoXoXoXoXoXoXoXoXoXoXoXoXoXoXoXoXoXoXoXoXoXoXoXoXoXoXoXoXoXoXoXoXoXoXoXoXoXoXoXoXoXoXoXoXoXoXoXoXoXoXoXoXoXoXoXoXoXoXoXoXoXoXoX",
"oXoXoXoXoXoXoXoXoXoXoXoXoXoXoXoXoXoXoXoXoXoXoXoXoXoXoXoXoXoXoXoXoXoXoXoXoXoXoXoXoXoXoXoXoXoXoXoXoXoXoXoXoXoXoXoXoXoXoXoXoXoXoXoX",
"oXoXoXoXoXoXoXoXoXoXoXoXoXoXoXoXoXoXoXoXoXoXoXoXoXoXoXoXoXoXoXoXoXoXoXoXoXoXoXoXoXoXoXoXoXoXoXoXoXoXoXoXoXoXoXoXoXoXoXoXoXoXoXoX",
"oXoXoXoXoXoXoXoXoXoXoXoXoXoXoXoXoXoXoXoXoXoXoXoXoXoXoXoXoXoXoXoXoXoXoXoXoXoXoXoXoXoXoXoXoXoXoXoXoXoXoXoXoXoXoXoXoXoXoXoXoXoXoXoX"
};
