/* XPM */
static char *result[] = {
/* columns rows colors chars-per-pixel */
"64 64 249 2 ",
"   c black",
".  c #030100",
"X  c #020200",
"o  c #030200",
"O  c #060300",
"+  c #070400",
"@  c #070500",
"#  c #060600",
"$  c #070600",
"%  c #070700",
"&  c #070601",
"*  c #070702",
"=  c #070704",
"-  c #070705",
";  c #0D0600",
":  c #0D0700",
">  c #0D0800",
",  c #0D0900",
"<  c #0E0800",
"1  c #0D0A00",
"2  c #130A00",
"3  c #130B00",
"4  c #130D03",
"5  c #130E08",
"6  c #171700",
"7  c #181800",
"8  c #191800",
"9  c #1A1800",
"0  c #191904",
"q  c #13100B",
"w  c #12120E",
"e  c #13130E",
"r  c #13130F",
"t  c #191909",
"y  c #19190E",
"u  c #151512",
"i  c #171713",
"p  c #191913",
"a  c #181814",
"s  c #191914",
"d  c #231500",
"f  c #271600",
"g  c #291800",
"h  c #2E1A00",
"j  c #291C00",
"k  c #2E1C00",
"l  c #321E00",
"z  c #341E00",
"x  c #242400",
"c  c #292000",
"v  c #292400",
"b  c #282500",
"n  c #292700",
"m  c #392100",
"M  c #382101",
"N  c #3B2300",
"B  c #3E2500",
"V  c #38260A",
"C  c #383600",
"Z  c #382B15",
"A  c #303027",
"S  c #383120",
"D  c #36352B",
"F  c #38362B",
"G  c #3D3D33",
"H  c #402600",
"J  c #422800",
"K  c #422900",
"L  c #422A00",
"P  c #422B00",
"I  c #462A00",
"U  c #422C00",
"Y  c #422D00",
"T  c #422E00",
"R  c #422F00",
"E  c #503000",
"W  c #553200",
"Q  c #603800",
"!  c #623A00",
"~  c #643B00",
"^  c #693E00",
"/  c #474500",
"(  c #4C4900",
")  c #524F00",
"_  c #565300",
"`  c #575400",
"'  c #5A5600",
"]  c #57540D",
"[  c #57541E",
"{  c #614100",
"}  c #614A00",
"|  c #734502",
" . c #754600",
".. c #784800",
"X. c #7D4C00",
"o. c #7F4E00",
"O. c #615300",
"+. c #615C00",
"@. c #7F5000",
"#. c #7F5100",
"$. c #7F5400",
"%. c #7F5500",
"&. c #7F5700",
"*. c #7F5800",
"=. c #7F5900",
"-. c #7F5A00",
";. c #765015",
":. c #6C6A00",
">. c #57552F",
",. c #4B4B3F",
"<. c #765B2D",
"1. c #575640",
"2. c #535244",
"3. c #575645",
"4. c #575647",
"5. c #585848",
"6. c #766643",
"7. c #6A6A56",
"8. c #76725A",
"9. c #767661",
"0. c #814C00",
"q. c #8E5500",
"w. c #9A5C00",
"e. c #9E6B00",
"r. c #9E7900",
"t. c #A46300",
"y. c #AB6700",
"u. c #AE6802",
"i. c #B87000",
"p. c #BC7300",
"a. c #BC7700",
"s. c #BC7800",
"d. c #BC7C00",
"f. c #BC7D00",
"g. c #B37A20",
"h. c #D07D00",
"j. c #858200",
"k. c #8A8500",
"l. c #9E8700",
"z. c #918D00",
"x. c #948F00",
"c. c #9E9600",
"v. c #949017",
"b. c #BC8000",
"n. c #BC8200",
"m. c #BC8400",
"M. c #BC8500",
"N. c #B4AE00",
"B. c #949133",
"V. c #DB8503",
"C. c #D79100",
"Z. c #F09300",
"A. c #F59803",
"S. c #F59C00",
"D. c #F59F03",
"F. c #D7A500",
"G. c #D7B800",
"H. c #F5A300",
"J. c #F5A503",
"K. c #F5A900",
"L. c #F5AA03",
"P. c #F5AD00",
"I. c #F5AE00",
"U. c #F5AE01",
"Y. c #F5AE02",
"T. c #F5AE03",
"R. c #F9AB00",
"E. c #FFB400",
"W. c #FFB900",
"Q. c #FFBE00",
"!. c #E29C29",
"~. c #FFB22E",
"^. c #FFB72E",
"/. c #FFBD2E",
"(. c #CBC400",
"). c #CFC800",
"_. c #D7CB00",
"`. c #F9C100",
"'. c #FFC200",
"]. c #FFC300",
"[. c #FFC800",
"{. c #FFCC00",
"}. c #FFCF00",
"|. c #FFC308",
" X c #FFD200",
".X c #FFD300",
"XX c #F9D700",
"oX c #FFDD00",
"OX c #FFDF00",
"+X c #FFC313",
"@X c #FFC31E",
"#X c #FFD312",
"$X c #FFE100",
"%X c #FFE200",
"&X c #FFE300",
"*X c #F9EC00",
"=X c #FFF200",
"-X c #FFF300",
";X c #FFE41B",
":X c #CFC920",
">X c #FFC42A",
",X c #FFC12E",
"<X c #FFC42D",
"1X c #FFC42E",
"2X c #FFD428",
"3X c #FFF425",
"4X c #FFE53D",
"5X c #949250",
"6X c #B38B43",
"7X c #94926D",
"8X c #888870",
"9X c #949376",
"0X c #949379",
"qX c #98987D",
"wX c #B39C66",
"eX c #E2B155",
"rX c #CFCA47",
"tX c #FFD540",
"yX c #FFD557",
"uX c #FFD65E",
"iX c #FFF653",
"pX c #CFCC6F",
"aX c #FFC960",
"sX c #FFCD60",
"dX c #FFD160",
"fX c #FFD460",
"gX c #FFD660",
"hX c #FFE661",
"jX c #B3AE89",
"kX c #BBBA98",
"lX c #CFCD98",
"zX c #E2C782",
"xX c #FFE784",
"cX c #FFE88F",
"vX c #FFF782",
"bX c #FFE092",
"nX c #FFE292",
"mX c #FFE592",
"MX c #FFE792",
"NX c #FFE892",
"BX c #CFCEA4",
"VX c #CFCEA8",
"CX c #E2DCAE",
"ZX c #FFF9B1",
"AX c #FFFAC0",
"SX c #FFF8C5",
"DX c #FFF9C5",
"FX c #FFFAC5",
"GX c None",
/* pixels */
"GXGXGXGXGXGXGXGXGXGXGXGXGXGXGXGXGXGXGXGXGXGXGXGXGXGXGXGXGXGXGXGXGXGXGXGXGXGXGXGXGXGXGXGXGXGXGXGXGXGXGXGXGXGXGXGXGXGXGXGXGXGXGXGX",
"GXGXGXGXGXGXGXGXGXGXGXGXGXGXGXGXGXGXGXGXGXGXGXGXGXGXGXGXGXGXGXGXGXGXGXGXGXGXGXGXGXGXGXGXGXGXGXGXGXGXGXGXGXGXGXGXGXGXGXGXGXGXGXGX",
"GXGXGXGXGXGXGXGXGXGXGXGXGXGXGXGXGXGXGXGXGXGXGXGXGXGXGXGXGXGXGXGXGXGXGXGXGXGXGXGXGXGXGXGXGXGXGXGXGXGXGXGXGXGXGXGXGXGXGXGXGXGXGXGX",
"GXGXGXGXGXGXGXGXGXGXGXGXGXGXGXGXGXGXGXGXGXGXGXGXGXGXGXGXGXGXGXGXGXGXGXGXGXGXGXGXGXGXGXGXGXGXGXGXGXGXGXGXGXGXGXGXGXGXGXGXGXGXGXGX",
"GXGXGXGXGXGXGXGXGXGXGXGXGXGXGXGXGXGXGXGXGXGXGXGXGXGXGXGXGXGXGXGXGXGXGXGXGXGXGXGXGXGXGXGXGXGXGXGXGXGXGXGXGXGXGXGXGXGXGXGXGXGXGXGX",
"GXGXGXGXGXGXGXGXGXGXGXGXGXGXGXGXGXGXGXGXGXGXGXGXGXGXGXGXGXGXGXGXGXGXGXGXGXGXGXGXGXGXGXGXGXGXGXGXGXGXGXGXGXGXGXGXGXGXGXGXGXGXGXGX",
"GXGXGXGXGXGXGXGXGXGXGXGXGXGXGXGXGXGXGXGXGXGXGXGXGXGXGXGXGXGXGXGXGXGXGXGXGXGXGXGXGXGXGXGXGXGXGXGXGXGXGXGXGXGXGXGXGXGXGXGXGXGXGXGX",
"GXGXGXGXGXGXGXGXGXGXGXGXGXGXGXGXGXGXGXGXGXGXGXGXGXGXGXGXGXGXGXGXGXGXGXGXGXGXGXGXGXGXGXGXGXGXGXGXGXGXGXGXGXGXGXGXGXGXGXGXGXGXGXGX",
"GXGXGXGXGXGXGXGXGXGXGXGXGXGXGXGXGXGXGXGXGXGXGXGXGXGXGXGXGXGXGXGXGXGXGXGXGXGXGXGXGXGXGXGXGXGXGXGXGXGXGXGXGXGXGXGXGXGXGXGXGXGXGXGX",
"GXGXGXGXGXGXGXGXGXGXGXGXGXGXGXGXGXGXGXGXGXGXGXGXGXGXGXGXGXGXGXGXGXGXGXGXGXGXGXGXGXGXGXGXGXGXGXGXGXGXGXGXGXGXGXGXGXGXGXGXGXGXGXGX",
"GXGXGXGXGXGXGXGXGXGXGXGXGXGXGXGXGXGXGXGXGXGXGXGXGXGXGXGXGXGXGXGXGXGXGXGXGXGXGXGXGXGXGXGXGXGXGXGXGXGXGXGXGXGXGXGXGXGXGXGXGXGXGXGX",
"GXGXGXGXGXGXGXGXGXGXGXGXGXGXGXGXGXGXGXGXGXGXGXGXGXGXGXGXGXGXGXGXGXGXGXGXGXGXGXGXGXGXGXGXGXGXGXGXGXGXGXGXGXGXGXGXGXGXGXGXGXGXGXGX",
"GXGXGXGXGXGXGXGXGXGXGXGXGXGXGXGXGXGXGXGXGXGXGXGXGXGXGXGXGXGXGXGXGXGXGXGXGXGXGXGXGXGXGXGXGXGXGXGXGXGXGXGXGXGXGXGXGXGXGXGXGXGXGXGX",
"GXGXGXGXGXGXGXGXGXGXGXGXGXGXGXGXGXGXGXGXGXGXGXGXGXGXGXGXGXGX              GXGXGXGXGXGXGXGXGXGXGXGXGXGXGXGXGXGXGXGXGXGXGXGXGXGXGX",
"GXGXGXGXGXGXGXGXGXGXGXGXGXGXGXGXGXGXGXGXGXGXGXGXGXGXGXGXGXw r e q 5 4 3 2 GXGXGXGXGXGXGXGXGXGXGXGXGXGXGXGXGXGXGXGXGXGXGXGXGXGXGX",
"GXGXGXGXGXGXGXGXGXGXGXGXGXGXGXGXGXGXGXGXGXGXGXGXGXGXGXGXGXA D F S Z V M z h GXGXGXGXGXGXGXGXGXGXGXGXGXGXGXGXGXGXGXGXGXGXGXGXGXGX",
"GXGXGXGXGXGXGXGXGXGXGXGXGXGXGXGXGXGXGXGXGXGXGXGXGXGXGXu G 5.7.8.6.<.;.| ~ E l GXGXGXGXGXGXGXGXGXGXGXGXGXGXGXGXGXGXGXGXGXGXGXGXGX",
"GXGXGXGXGXGXGXGXGXGXGXGXGXGXGXGXGXGXGXGXGXGXGXGXGXGX- i ,.9.qXjXwX6Xg.u.q.^ N : X GXGXGXGXGXGXGXGXGXGXGXGXGXGXGXGXGXGXGXGXGXGXGX",
"GXGXGXGXGXGXGXGXGXGXGXGXGXGXGXGXGXGXGXGXGXGXGXGXGX  - a 2.8XkXCXzXeX!.V.y...H > . GXGXGXGXGXGXGXGXGXGXGXGXGXGXGXGXGXGXGXGXGXGXGX",
"GXGXGXGXGXGXGXGXGXGXGXGXGXGXGXGXGXGXGXGXGXGXGXGXGX  - s 4.0XVXSXbXaX~.A.p.o.K > .   GXGXGXGXGXGXGXGXGXGXGXGXGXGXGXGXGXGXGXGXGXGX",
"GXGXGXGXGXGXGXGXGXGXGXGXGXGXGXGXGXGXGXGXGXGXGXGXGX  - s 4.0XVXSXnXsX^.D.s.#.L , .   GXGXGXGXGXGXGXGXGXGXGXGXGXGXGXGXGXGXGXGXGXGX",
"GXGXGXGXGXGXGXGXGXGXGXGXGXGXGXGXGXGXGXGXGXGXGXGXGX  - s 4.0XVXDXmXdX/.J.f.%.U , .   GXGXGXGXGXGXGXGXGXGXGXGXGXGXGXGXGXGXGXGXGXGX",
"GXGXGXGXGXGXGXGXGXGXGXGXGXGXGXGXGXGXGXGXGXGXGXGXGX  - s 4.0XVXDXMXfX,XL.n.*.T , .   GXGXGXGXGXGXGXGXGXGXGXGXGXGXGXGXGXGXGXGXGXGX",
"GXGXGXGXGXGXGXGXGXGXGXGXGXGXGXGXGXGXGXGXGXGXGXGXGX  - s 4.0XVXFXNXgX1XT.M.-.R 1 .   GXGXGXGXGXGXGXGXGXGXGXGXGXGXGXGXGXGXGXGXGXGX",
"GXGXGXGXGXGXGXGXGXGXGXGXGXGXGXGXGXGXGXGXGXGXGXGXGX  - s 4.0XVXFXNXgX1XT.M.-.R 1 .   GXGXGXGXGXGXGXGXGXGXGXGXGXGXGXGXGXGXGXGXGXGX",
"GXGXGXGXGXGXGXGXGXGXGXGXGXGXGXGXGXGXGXGXGXGXGXGXGX  - s 4.0XVXFXNXgX1XT.M.-.R 1 .   GXGXGXGXGXGXGXGXGXGXGXGXGXGXGXGXGXGXGXGXGXGX",
"GXGXGXGXGXGXGXGXGXGXGXGXGXGXGXGXGXGXGXGXGXGXGXGXGX  - s 3.9XBXAXcXuX<XT.M.-.R 1 .   GXGXGXGXGXGXGXGXGXGXGXGXGXGXGXGXGXGXGXGXGXGX",
"GXGXGXGXGXGXGXGXGXGXGXGXGXGXGXGXGXGXGXGXGXGXGXGXGX  - p 1.7XlXZXxXyX>XT.M.-.R 1 .   GXGXGXGXGXGXGXGXGXGXGXGXGXGXGXGXGXGXGXGXGXGX",
"GXGXGXGXGXGXGXGXGXGXGXGXGXGXGXGXGXGXGXGXGXGXGXGXGX  = y >.5XpXvXhXtX@XT.M.-.R 1 .   GXGXGXGXGXGXGXGXGXGXGXGXGXGXGXGXGXGXGXGXGXGX",
"GXGXGXGXGXGXGXGXGXGXGXGXGXGXGXGXGXGXGXGXGXGXGXGXGX  * t [ B.rXiX4X2X+XY.M.-.R 1 .   GXGXGXGXGXGXGXGXGXGXGXGXGXGXGXGXGXGXGXGXGXGX",
"GXGXGXGXGXGXGXGXGXGXGXGXGXGXGXGXGXGXGXGXGXGXGXGXGX  & 0 ] v.:X3X;X#X|.U.M.-.R 1 .   GXGXGXGXGXGXGXGXGXGXGXGXGXGXGXGXGXGXGXGXGXGX",
"GXGXGXGXGXGXGXGXGXGXGXGXGXGXGXGXGXGXGXGXGXGXGXGXGX  $ 8 ` x.).-X&X.X].I.M.-.R 1 .   GXGXGXGXGXGXGXGXGXGXGXGXGXGXGXGXGXGXGXGXGXGX",
"GXGXGXGXGXGXGXGXGXGXGXGXGXGXGXGXGXGXGXGXGXGXGXGXGX  $ 8 ` x.).-X&X.X].I.M.-.R 1 .   GXGXGXGXGXGXGXGXGXGXGXGXGXGXGXGXGXGXGXGXGXGX",
"GXGXGXGXGXGXGXGXGXGXGXGXGXGXGXGXGXGXGXGXGXGXGXGXGX  $ 8 ` x.).-X&X.X].I.M.-.R 1 .   GXGXGXGXGXGXGXGXGXGXGXGXGXGXGXGXGXGXGXGXGXGX",
"GXGXGXGXGXGXGXGXGXGXGXGXGXGXGXGXGXGXGXGXGXGXGXGXGX  $ 8 ` x.).-X&X.X].I.M.-.R 1 .   GXGXGXGXGXGXGXGXGXGXGXGXGXGXGXGXGXGXGXGXGXGX",
"GXGXGXGXGXGXGXGXGXGXGXGXGXGXGXGXGXGXGXGXGXGXGXGXGX  $ 8 ` x.).-X&X.X].I.M.-.R 1 .   GXGXGXGXGXGXGXGXGXGXGXGXGXGXGXGXGXGXGXGXGXGX",
"GXGXGXGXGXGXGXGXGXGXGXGXGXGXGXGXGXGXGXGXGXGXGXGXGX  $ 8 ` x.).-X&X.X].I.M.-.R 1 .   GXGXGXGXGXGXGXGXGXGXGXGXGXGXGXGXGXGXGXGXGXGX",
"GXGXGXGXGXGXGXGXGXGXGXGXGXGXGXGXGXGXGXGXGXGXGXGXGX  $ 8 ` x.).-X&X.X].I.M.-.R 1 .   GXGXGXGXGXGXGXGXGXGXGXGXGXGXGXGXGXGXGXGXGXGX",
"GXGXGXGXGXGXGXGXGXGXGXGXGXGXGXGXGXGXGXGXGXGXGXGXGX  $ 8 ` x.).-X&X.X].I.M.-.R 1 .   GXGXGXGXGXGXGXGXGXGXGXGXGXGXGXGXGXGXGXGXGXGX",
"GXGXGXGXGXGXGXGXGXGXGXGXGXGXGXGXGXGXGXGXGXGXGXGXGX  $ 8 ` x.).-X&X.X].I.M.-.R 1 .   GXGXGXGXGXGXGXGXGXGXGXGXGXGXGXGXGXGXGXGXGXGX",
"GXGXGXGXGXGXGXGXGXGXGXGXGXGXGXGXGXGXGXGXGXGXGXGXGX  $ 8 ` x.).-X&X.X].I.M.-.R 1 .   GXGXGXGXGXGXGXGXGXGXGXGXGXGXGXGXGXGXGXGXGXGX",
"GXGXGXGXGXGXGXGXGXGXGXGXGXGXGXGXGXGXGXGXGXGXGXGXGX  $ 8 ` x.).-X&X.X].I.M.-.R 1 .   GXGXGXGXGXGXGXGXGXGXGXGXGXGXGXGXGXGXGXGXGXGX",
"GXGXGXGXGXGXGXGXGXGXGXGXGXGXGXGXGXGXGXGXGXGXGXGXGX  $ 8 ` x.).-X&X.X].I.M.-.R 1 .   GXGXGXGXGXGXGXGXGXGXGXGXGXGXGXGXGXGXGXGXGXGX",
"GXGXGXGXGXGXGXGXGXGXGXGXGXGXGXGXGXGXGXGXGXGXGXGXGX  $ 8 ` x.).-X%X X'.P.m.=.T 1 .   GXGXGXGXGXGXGXGXGXGXGXGXGXGXGXGXGXGXGXGXGXGX",
"GXGXGXGXGXGXGXGXGXGXGXGXGXGXGXGXGXGXGXGXGXGXGXGXGX  $ 8 ` x.).-X$X}.Q.K.b.&.Y , .   GXGXGXGXGXGXGXGXGXGXGXGXGXGXGXGXGXGXGXGXGXGX",
"GXGXGXGXGXGXGXGXGXGXGXGXGXGXGXGXGXGXGXGXGXGXGXGXGX  $ 8 ` x.).=XOX{.W.H.d.$.P , .   GXGXGXGXGXGXGXGXGXGXGXGXGXGXGXGXGXGXGXGXGXGX",
"GXGXGXGXGXGXGXGXGXGXGXGXGXGXGXGXGXGXGXGXGXGXGXGXGX  $ 8 ` x.).=XoX[.E.S.a.@.L > .   GXGXGXGXGXGXGXGXGXGXGXGXGXGXGXGXGXGXGXGXGXGX",
"GXGXGXGXGXGXGXGXGXGXGXGXGXGXGXGXGXGXGXGXGXGXGXGXGX  # 9 _ z.(.*XXX`.R.Z.i.X.J < .   GXGXGXGXGXGXGXGXGXGXGXGXGXGXGXGXGXGXGXGXGXGX",
"GXGXGXGXGXGXGXGXGXGXGXGXGXGXGXGXGXGXGXGXGXGXGXGXGX  % 7 ) j.N._.G.F.C.h.t. .B : o GXGXGXGXGXGXGXGXGXGXGXGXGXGXGXGXGXGXGXGXGXGXGX",
"GXGXGXGXGXGXGXGXGXGXGXGXGXGXGXGXGXGXGXGXGXGXGXGXGXGX# 6 / :.k.c.l.r.e.w.0.! m ; GXGXGXGXGXGXGXGXGXGXGXGXGXGXGXGXGXGXGXGXGXGXGXGX",
"GXGXGXGXGXGXGXGXGXGXGXGXGXGXGXGXGXGXGXGXGXGXGXGXGXGXGXGXC ( ' +.O.} { Q W I k GXGXGXGXGXGXGXGXGXGXGXGXGXGXGXGXGXGXGXGXGXGXGXGXGX",
"GXGXGXGXGXGXGXGXGXGXGXGXGXGXGXGXGXGXGXGXGXGXGXGXGXGXGXGXGXx b n v c j g f d GXGXGXGXGXGXGXGXGXGXGXGXGXGXGXGXGXGXGXGXGXGXGXGXGXGX",
"GXGXGXGXGXGXGXGXGXGXGXGXGXGXGXGXGXGXGXGXGXGXGXGXGXGXGXGXGX# $ $ $ @ @ + O GXGXGXGXGXGXGXGXGXGXGXGXGXGXGXGXGXGXGXGXGXGXGXGXGXGXGX",
"GXGXGXGXGXGXGXGXGXGXGXGXGXGXGXGXGXGXGXGXGXGXGXGXGXGXGXGXGXGX            GXGXGXGXGXGXGXGXGXGXGXGXGXGXGXGXGXGXGXGXGXGXGXGXGXGXGXGX",
"GXGXGXGXGXGXGXGXGXGXGXGXGXGXGXGXGXGXGXGXGXGXGXGXGXGXGXGXGXGXGXGXGXGXGXGXGXGXGXGXGXGXGXGXGXGXGXGXGXGXGXGXGXGXGXGXGXGXGXGXGXGXGXGX",
"GXGXGXGXGXGXGXGXGXGXGXGXGXGXGXGXGXGXGXGXGXGXGXGXGXGXGXGXGXGXGXGXGXGXGXGXGXGXGXGXGXGXGXGXGXGXGXGXGXGXGXGXGXGXGXGXGXGXGXGXGXGXGXGX",
"GXGXGXGXGXGXGXGXGXGXGXGXGXGXGXGXGXGXGXGXGXGXGXGXGXGXGXGXGXGXGXGXGXGXGXGXGXGXGXGXGXGXGXGXGXGXGXGXGXGXGXGXGXGXGXGXGXGXGXGXGXGXGXGX",
"GXGXGXGXGXGXGXGXGXGXGXGXGXGXGXGXGXGXGXGXGXGXGXGXGXGXGXGXGXGXGXGXGXGXGXGXGXGXGXGXGXGXGXGXGXGXGXGXGXGXGXGXGXGXGXGXGXGXGXGXGXGXGXGX",
"GXGXGXGXGXGXGXGXGXGXGXGXGXGXGXGXGXGXGXGXGXGXGXGXGXGXGXGXGXGXGXGXGXGXGXGXGXGXGXGXGXGXGXGXGXGXGXGXGXGXGXGXGXGXGXGXGXGXGXGXGXGXGXGX",
"GXGXGXGXGXGXGXGXGXGXGXGXGXGXGXGXGXGXGXGXGXGXGXGXGXGXGXGXGXGXGXGXGXGXGXGXGXGXGXGXGXGXGXGXGXGXGXGXGXGXGXGXGXGXGXGXGXGXGXGXGXGXGXGX",
"GXGXGXGXGXGXGXGXGXGXGXGXGXGXGXGXGXGXGXGXGXGXGXGXGXGXGXGXGXGXGXGXGXGXGXGXGXGXGXGXGXGXGXGXGXGXGXGXGXGXGXGXGXGXGXGXGXGXGXGXGXGXGXGX",
"GXGXGXGXGXGXGXGXGXGXGXGXGXGXGXGXGXGXGXGXGXGXGXGXGXGXGXGXGXGXGXGXGXGXGXGXGXGXGXGXGXGXGXGXGXGXGXGXGXGXGXGXGXGXGXGXGXGXGXGXGXGXGXGX",
"GXGXGXGXGXGXGXGXGXGXGXGXGXGXGXGXGXGXGXGXGXGXGXGXGXGXGXGXGXGXGXGXGXGXGXGXGXGXGXGXGXGXGXGXGXGXGXGXGXGXGXGXGXGXGXGXGXGXGXGXGXGXGXGX",
"GXGXGXGXGXGXGXGXGXGXGXGXGXGXGXGXGXGXGXGXGXGXGXGXGXGXGXGXGXGXGXGXGXGXGXGXGXGXGXGXGXGXGXGXGXGXGXGXGXGXGXGXGXGXGXGXGXGXGXGXGXGXGXGX"
};
