/* XPM */
static char *result[] = {
/* columns rows colors chars-per-pixel */
"64 64 205 2 ",
"   c #010100",
".  c #0B0700",
"X  c #0B0900",
"o  c #0D0D0B",
"O  c #140D00",
"+  c #180E00",
"@  c #141400",
"#  c #1B1200",
"$  c #1B1B02",
"%  c #18180C",
"&  c #12120E",
"*  c #181813",
"=  c #171712",
"-  c #241600",
";  c #241A00",
":  c #2A1C00",
">  c #321D00",
",  c #252400",
"<  c #292500",
"1  c #2A2A00",
"2  c #342200",
"3  c #3B2400",
"4  c #332D00",
"5  c #3A2C00",
"6  c #353400",
"7  c #383400",
"8  c #3E3C00",
"9  c #38370A",
"0  c #23231C",
"q  c #2C2C25",
"w  c #353529",
"e  c #3F3F32",
"r  c #432700",
"t  c #472A00",
"y  c #4A2C00",
"u  c #473200",
"i  c #563400",
"p  c #5A3500",
"a  c #533B00",
"s  c #613900",
"d  c #693E00",
"f  c #403F34",
"g  c #464401",
"h  c #4B4900",
"j  c #43410E",
"k  c #5C4200",
"l  c #514F00",
"z  c #565400",
"x  c #5A5600",
"c  c #5C5A00",
"v  c #54521F",
"b  c #43411B",
"n  c #6C4100",
"m  c #634A00",
"M  c #6E4E00",
"N  c #744400",
"B  c #7A4A00",
"V  c #615700",
"C  c #775600",
"Z  c #795A00",
"A  c #6D6A02",
"S  c #666300",
"D  c #736C01",
"F  c #766600",
"G  c #767200",
"H  c #7D7903",
"J  c #434236",
"K  c #48473B",
"L  c #4C4B34",
"P  c #595848",
"I  c #605E4E",
"U  c #686750",
"Y  c #75745D",
"T  c #814C00",
"R  c #8A5200",
"E  c #855900",
"W  c #9C5C00",
"Q  c #905600",
"!  c #946A00",
"~  c #9E6900",
"^  c #827E00",
"/  c #9F7300",
"(  c #9E7F00",
")  c #807D1B",
"_  c #A46100",
"`  c #A96600",
"'  c #BA6E00",
"]  c #B46B00",
"[  c #A77200",
"{  c #BD7000",
"}  c #B07B00",
"|  c #807D34",
" . c #C07200",
".. c #C97700",
"X. c #CC7A00",
"o. c #C17E00",
"O. c #D17C00",
"+. c #807E4D",
"@. c #807F68",
"#. c #807F64",
"$. c #918C00",
"%. c #9E8900",
"&. c #9C9500",
"*. c #9F9A01",
"=. c #969300",
"-. c #89850B",
";. c #B68300",
":. c #A49F00",
">. c #B39600",
",. c #A7A200",
"<. c #B3AD00",
"1. c #B3A600",
"2. c #B9B307",
"3. c #B3AF2E",
"4. c #C58A00",
"5. c #CD8900",
"6. c #DD8300",
"7. c #D68400",
"8. c #CC9100",
"9. c #DB9400",
"0. c #E38700",
"q. c #EA8C00",
"w. c #E38A00",
"e. c #E49600",
"r. c #F39100",
"t. c #FA9500",
"y. c #FF9C00",
"u. c #D7A700",
"i. c #C2BC00",
"p. c #D7BB00",
"a. c #E4A200",
"s. c #EDA400",
"d. c #E2A800",
"f. c #FFA300",
"g. c #FFAB00",
"h. c #F4A800",
"j. c #FFB300",
"k. c #FFBB00",
"l. c #E2B600",
"z. c #CBC401",
"x. c #D4CA01",
"c. c #DBD500",
"v. c #CDC71E",
"b. c #E2C500",
"n. c #FFC401",
"m. c #FFCC00",
"M. c #E3DC01",
"N. c #E3D805",
"B. c #FFD400",
"V. c #FFDB00",
"C. c #FFD20A",
"Z. c #FFDC1B",
"A. c #EDE500",
"S. c #EEE60A",
"D. c #FFE400",
"F. c #FFEC00",
"G. c #F7E705",
"H. c #FCF201",
"J. c #FDF40B",
"K. c #FDEA15",
"L. c #FFF515",
"P. c #FFF81E",
"I. c #FFF810",
"U. c #E1DC2F",
"Y. c #FFE72D",
"T. c #FFF82C",
"R. c #FBF32F",
"E. c #FFF93E",
"W. c #FFF33D",
"Q. c #EFE835",
"!. c #868451",
"~. c #BDBA4D",
"^. c #858468",
"/. c #9C9B77",
"(. c #A1A07C",
"). c #B8B673",
"_. c #AAA867",
"`. c #CDC950",
"'. c #E1DE5F",
"]. c #F9EE4C",
"[. c #FFF241",
"{. c #F5EF51",
"}. c #FFFA52",
"|. c #EAE559",
" X c #CFCD72",
".X c #CAC86A",
"XX c #E9E669",
"oX c #FFF669",
"OX c #FFFB6C",
"+X c #FFFB71",
"@X c #FFFB78",
"#X c #EFEB78",
"$X c #A5A484",
"%X c #BDBC9B",
"&X c #BDBC95",
"*X c #BDBC86",
"=X c #CAC999",
"-X c #DEDC90",
";X c #E2DF8E",
":X c #FFFB99",
">X c #EAE791",
",X c #FFFCA3",
"<X c #EAE8B3",
"1X c #EAE8AC",
"2X c None",
/* pixels */
"2X2X2X2X2X2X2X2X2X2X2X2X2X2X2X2X2X2X2X2X2X2X2X2X2X2X2X2X2X2X2X2X2X2X2X2X2X2X2X2X2X2X2X2X2X2X2X2X2X2X2X2X2X2X2X2X2X2X2X2X2X2X2X2X",
"2X2X2X2X2X2X2X2X2X2X2X2X2X2X2X2X2X2X2X2X2X2X2X2X2X2X2X2X2X2X2X2X2X2X2X2X2X2X2X2X2X2X2X2X2X2X2X2X2X2X2X2X2X2X2X2X2X2X2X2X2X2X2X2X",
"2X2X2X2X2X2X2X2X2X2X2X2X2X2X2X2X2X2X2X2X2X2X2X2X2X2X2X2X2X2X2X2X2X2X2X2X2X2X2X2X2X2X2X2X2X2X2X2X2X2X2X2X2X2X2X2X2X2X2X2X2X2X2X2X",
"2X2X2X2X2X2X2X2X2X2X2X2X2X2X2X2X2X2X2X2X2X2X2X2X2X2X2X2X2X2X2X2X2X2X2X2X2X2X2X2X2X2X2X2X2X2X2X2X2X2X2X2X2X2X2X2X2X2X2X2X2X2X2X2X",
"2X2X2X2X2X2X2X2X2X2X2X2X2X2X2X2X2X2X2X2X2X2X2X2X2X2X2X2X2X2X2X2X2X2X2X2X2X2X2X2X2X2X2X2X2X2X2X2X2X2X2X2X2X2X2X2X2X2X2X2X2X2X2X2X",
"2X2X2X2X2X2X2X2X2X2X2X2X2X2X2X2X2X2X2X2X2X2X2X2X2X2X2X2X2X2X2X2X2X2X2X2X2X2X2X2X2X2X2X2X2X2X2X2X2X2X2X2X2X2X2X2X2X2X2X2X2X2X2X2X",
"2X2X2X2X2X2X2X2X2X2X2X2X2X2X2X2X2X2X2X2X2X2X2X2X2X2X2X2X2X2X2X2X2X2X2X2X2X2X2X2X2X2X2X2X2X2X2X2X2X2X2X2X2X2X2X2X2X2X2X2X2X2X2X2X",
"2X2X2X2X2X2X2X2X2X2X2X2X2X2X2X2X2X2X2X2X2X2X2X2X2X2X2X2X2X2X2X2X2X2X2X2X2X2X2X2X2X2X2X2X2X2X2X2X2X2X2X2X2X2X2X2X2X2X2X2X2X2X2X2X",
"2X2X2X2X2X2X2X2X2X2X2X2X2X2X2X2X2X2X2X2X2X2X2X2X2X2X2X2X2X2X2X2X2X2X2X2X2X2X2X2X2X2X2X2X2X2X2X2X2X2X2X2X2X2X2X2X2X2X2X2X2X2X2X2X",
"2X2X2X2X2X2X2X2X2X2X2X2X2X2X2X2X2X2X2X2X2X2X2X2X2X2X2X2X2X2X2X2X2X2X2X2X2X2X2X2X2X2X2X2X2X2X2X2X2X2X2X2X2X2X2X2X2X2X2X2X2X2X2X2X",
"2X2X2X2X2X2X2X2X2X2X2X2X2X2X2X2X2X2X2X2X2X2X2X2X2X2X2X2X2X2X2X2X2X2X2X2X2X2X2X2X2X2X2X2X2X2X2X2X2X2X2X2X2X2X2X2X2X2X2X2X2X2X2X2X",
"2X2X2X2X2X2X2X2X2X2X2X2X2X2X2X2X2X2X2X2X2X2X2X2X2X2X2X2X2X2X2X2X2X2X2X2X2X2X2X2X2X2X2X2X2X2X2X2X2X2X2X2X2X2X2X2X2X2X2X2X2X2X2X2X",
"2X2X2X2X2X2X2X2X2X2X2X2X2X2X2X2X2X2X2X2X2X2X2X2X2X2X2X2X2X2X2X2X2X2X2X2X2X2X2X2X2X2X2X2X2X2X2X2X2X2X2X2X2X2X2X2X2X2X2X2X2X2X2X2X",
"2X2X2X2X2X2X2X2X2X2X2X2X2X2X2X2X2X2X2X2X2X2X2X2X2X2X2X2X2X            2X2X2X2X2X2X2X2X2X2X2X2X2X2X2X2X2X2X2X2X2X2X2X2X2X2X2X2X2X",
"2X2X2X2X2X2X2X2X2X2X2X2X2X2X2X2X2X2X2X2X2X2X2X2X2X2X2X2X@ @ @ O O O O O 2X2X2X2X2X2X2X2X2X2X2X2X2X2X2X2X2X2X2X2X2X2X2X2X2X2X2X2X",
"2X2X2X2X2X2X2X2X2X2X2X2X2X2X2X2X2X2X2X2X2X2X2X2X2X2X2X1 6 6 7 7 5 4 4 2 : 2X2X2X2X2X2X2X2X2X2X2X2X2X2X2X2X2X2X2X2X2X2X2X2X2X2X2X",
"2X2X2X2X2X2X2X2X2X2X2X2X2X2X2X2X2X2X2X2X2X2X2X2X2X2X, g c A G F Z C M m u ; 2X2X2X2X2X2X2X2X2X2X2X2X2X2X2X2X2X2X2X2X2X2X2X2X2X2X",
"2X2X2X2X2X2X2X2X2X2X2X2X2X2X2X2X2X2X2X2X2X2X2X2X2XX 1 c -.,.1.>.>.;.[ Z k : X 2X2X2X2X2X2X2X2X2X2X2X2X2X2X2X2X2X2X2X2X2X2X2X2X2X",
"2X2X2X2X2X2X2X2X2X2X2X2X2X2X2X2X2X2X2X2X2X2X2X2Xo % 9 A *.z.N.b.l.u.8.[ M 3 + O 2X2X2X2X2X2X2X2X2X2X2X2X2X2X2X2X2X2X2X2X2X2X2X2X",
"2X2X2X2X2X2X2X2X2X2X2X2X2X2X2X2X2X2X2X2X2X2X2X0 q w v ) 2.M.F.V.B.k.a.;.E a 2 : - 2X2X2X2X2X2X2X2X2X2X2X2X2X2X2X2X2X2X2X2X2X2X2X",
"2X2X2X2X2X2X2X2X2X2X2X2X2X2X2X2X2X2X2X2X2X2Xq K P U !.3.v.S.H.V.m.k.s.8.[ R d p y : 2X2X2X2X2X2X2X2X2X2X2X2X2X2X2X2X2X2X2X2X2X2X",
"2X2X2X2X2X2X2X2X2X2X2X2X2X2X2X2X2X2X2X2X2X& w I ^.(.).`.U.K.F.V.m.k.h.e.5.{ _ T s > O 2X2X2X2X2X2X2X2X2X2X2X2X2X2X2X2X2X2X2X2X2X",
"2X2X2X2X2X2X2X2X2X2X2X2X2X2X2X2X2X2X2X2Xo 0 f Y $X=X;XXXQ.L.F.V.m.k.j.s.e.w.X._ N r + . 2X2X2X2X2X2X2X2X2X2X2X2X2X2X2X2X2X2X2X2X",
"2X2X2X2X2X2X2X2X2X2X2X2X2X2X2X2X2X2X2X0 0 w L ^.*X>X:XoXW.L.D.B.m.k.j.g.f.y.q.' R i > - - 2X2X2X2X2X2X2X2X2X2X2X2X2X2X2X2X2X2X2X",
"2X2X2X2X2X2X2X2X2X2X2X2X2X2X2X2X2X2Xq K I U ^._. X#XoX].Y.K.B.m.n.k.g.g.f.y.q.O.` T d p t > 2X2X2X2X2X2X2X2X2X2X2X2X2X2X2X2X2X2X",
"2X2X2X2X2X2X2X2X2X2X2X2X2X2X2X2X2X= w U Y /.)..X'.{.[.Y.Z.C.m.n.k.j.j.g.f.y.r.0...] W T s > + 2X2X2X2X2X2X2X2X2X2X2X2X2X2X2X2X2X",
"2X2X2X2X2X2X2X2X2X2X2X2X2X2X2X2X  * f Y $X=X-XXX{.R.K.Z.C.n.k.k.k.j.j.g.f.y.y.r.0.0..._ N r +   2X2X2X2X2X2X2X2X2X2X2X2X2X2X2X2X",
"2X2X2X2X2X2X2X2X2X2X2X2X2X2X2X    * J @.%X<X,X+X[.L.F.V.m.k.j.j.j.j.j.g.f.y.y.y.y.y.q.{ T t +     2X2X2X2X2X2X2X2X2X2X2X2X2X2X2X",
"2X2X2X2X2X2X2X2X2X2X2X2X2X2X2X    * e Y %X<X,X+XE.L.F.V.m.k.j.j.j.j.j.g.f.f.f.y.y.y.q.{ T r +     2X2X2X2X2X2X2X2X2X2X2X2X2X2X2X",
"2X2X2X2X2X2X2X2X2X2X2X2X2X2X2X    * P ^.%X<X,X+X[.L.F.V.m.k.j.j.j.j.j.g.g.g.g.f.y.y.q.{ T r +     2X2X2X2X2X2X2X2X2X2X2X2X2X2X2X",
"2X2X2X2X2X2X2X2X2X2X2X2X2X2X2X    * J ^.%X<X,X@XE.I.H.V.m.k.j.j.j.j.j.j.j.j.g.f.f.y.q.{ T r +     2X2X2X2X2X2X2X2X2X2X2X2X2X2X2X",
"2X2X2X2X2X2X2X2X2X2X2X2X2X2X2X    * J Y %X<X,X@XE.L.F.V.m.k.j.j.j.j.j.j.j.j.j.g.f.y.q.' T r O     2X2X2X2X2X2X2X2X2X2X2X2X2X2X2X",
"2X2X2X2X2X2X2X2X2X2X2X2X2X2X2X    * J @.%X<X,X+XE.L.D.V.m.k.k.j.k.j.j.j.j.j.j.g.f.y.q.{ T r +     2X2X2X2X2X2X2X2X2X2X2X2X2X2X2X",
"2X2X2X2X2X2X2X2X2X2X2X2X2X2X2X    * J @.%X<X,X+X[.L.F.V.m.k.j.j.j.j.j.k.j.j.j.g.f.y.q.{ T r +     2X2X2X2X2X2X2X2X2X2X2X2X2X2X2X",
"2X2X2X2X2X2X2X2X2X2X2X2X2X2X2X    * e @.%X<X,X+XE.L.F.V.m.k.j.j.j.j.j.j.j.j.j.g.f.y.q.' T t O     2X2X2X2X2X2X2X2X2X2X2X2X2X2X2X",
"2X2X2X2X2X2X2X2X2X2X2X2X2X2X2X    * e #.&X1X:XOXE.L.F.V.m.k.j.j.j.j.j.j.j.j.g.g.f.y.q. .B t +     2X2X2X2X2X2X2X2X2X2X2X2X2X2X2X",
"2X2X2X2X2X2X2X2X2X2X2X2X2X2X2X    * b +.).#X@X}.T.J.F.V.m.k.j.j.j.j.j.j.j.j.g.f.y.y.q.' T r O     2X2X2X2X2X2X2X2X2X2X2X2X2X2X2X",
"2X2X2X2X2X2X2X2X2X2X2X2X2X2X2X    % b | ~.|.}.E.P.I.F.V.m.k.j.j.j.j.j.g.g.f.f.f.y.y.0. .T r +     2X2X2X2X2X2X2X2X2X2X2X2X2X2X2X",
"2X2X2X2X2X2X2X2X2X2X2X2X2X2X2X    % j ) 3.Q.T.P.I.H.F.V.m.k.j.j.j.j.j.g.g.y.y.y.y.y.q.' T r +     2X2X2X2X2X2X2X2X2X2X2X2X2X2X2X",
"2X2X2X2X2X2X2X2X2X2X2X2X2X2X2X    $ j H 2.A.J.J.H.H.F.V.m.k.j.j.j.j.j.g.f.y.y.y.y.t.0.' B r +     2X2X2X2X2X2X2X2X2X2X2X2X2X2X2X",
"2X2X2X2X2X2X2X2X2X2X2X2X2X2X2X2X  @ 8 D &.2.z.c.A.H.F.D.B.n.n.k.k.j.j.g.f.y.r.q.0.O.' W d r +   2X2X2X2X2X2X2X2X2X2X2X2X2X2X2X2X",
"2X2X2X2X2X2X2X2X2X2X2X2X2X2X2X2X2X$ 6 x G $.,.i.c.G.H.F.D.B.B.n.n.j.j.g.f.y.r.6.{ _ R N p 3 O 2X2X2X2X2X2X2X2X2X2X2X2X2X2X2X2X2X",
"2X2X2X2X2X2X2X2X2X2X2X2X2X2X2X2X2X2X2X8 g x G *.z.A.H.H.F.D.V.m.n.k.j.g.f.y.q..._ N p t 3 2X2X2X2X2X2X2X2X2X2X2X2X2X2X2X2X2X2X2X",
"2X2X2X2X2X2X2X2X2X2X2X2X2X2X2X2X2X2X2X@ $ , h ^ <.M.H.H.F.H.F.V.m.k.j.f.f.y.w.] T y - O O 2X2X2X2X2X2X2X2X2X2X2X2X2X2X2X2X2X2X2X",
"2X2X2X2X2X2X2X2X2X2X2X2X2X2X2X2X2X2X2X2X  @ 6 A &.i.c.M.A.H.F.V.m.k.h.s.e.7. .W n 3 O   2X2X2X2X2X2X2X2X2X2X2X2X2X2X2X2X2X2X2X2X",
"2X2X2X2X2X2X2X2X2X2X2X2X2X2X2X2X2X2X2X2X2X@ 1 x G $.,.2.c.A.F.V.m.k.h.9.o.` Q B p > O 2X2X2X2X2X2X2X2X2X2X2X2X2X2X2X2X2X2X2X2X2X",
"2X2X2X2X2X2X2X2X2X2X2X2X2X2X2X2X2X2X2X2X2X2X2Xg h c G *.z.A.F.V.B.k.d.4.~ B p y 3 2X2X2X2X2X2X2X2X2X2X2X2X2X2X2X2X2X2X2X2X2X2X2X",
"2X2X2X2X2X2X2X2X2X2X2X2X2X2X2X2X2X2X2X2X2X2X2X$ $ < g H <.c.G.B.m.j.a.} C y ; # + 2X2X2X2X2X2X2X2X2X2X2X2X2X2X2X2X2X2X2X2X2X2X2X",
"2X2X2X2X2X2X2X2X2X2X2X2X2X2X2X2X2X2X2X2X2X2X2X2X. X 6 S =.i.x.p.u.u.4.! m 2 O   2X2X2X2X2X2X2X2X2X2X2X2X2X2X2X2X2X2X2X2X2X2X2X2X",
"2X2X2X2X2X2X2X2X2X2X2X2X2X2X2X2X2X2X2X2X2X2X2X2X2XX , z G $.:.%.%./ ! C a : . 2X2X2X2X2X2X2X2X2X2X2X2X2X2X2X2X2X2X2X2X2X2X2X2X2X",
"2X2X2X2X2X2X2X2X2X2X2X2X2X2X2X2X2X2X2X2X2X2X2X2X2X2X2X8 z c V x m m k a 5 2X2X2X2X2X2X2X2X2X2X2X2X2X2X2X2X2X2X2X2X2X2X2X2X2X2X2X",
"2X2X2X2X2X2X2X2X2X2X2X2X2X2X2X2X2X2X2X2X2X2X2X2X2X2X2X, , < < , < ; : ; ; 2X2X2X2X2X2X2X2X2X2X2X2X2X2X2X2X2X2X2X2X2X2X2X2X2X2X2X",
"2X2X2X2X2X2X2X2X2X2X2X2X2X2X2X2X2X2X2X2X2X2X2X2X2X2X2X2X. . . . . .   . 2X2X2X2X2X2X2X2X2X2X2X2X2X2X2X2X2X2X2X2X2X2X2X2X2X2X2X2X",
"2X2X2X2X2X2X2X2X2X2X2X2X2X2X2X2X2X2X2X2X2X2X2X2X2X2X2X2X2X            2X2X2X2X2X2X2X2X2X2X2X2X2X2X2X2X2X2X2X2X2X2X2X2X2X2X2X2X2X",
"2X2X2X2X2X2X2X2X2X2X2X2X2X2X2X2X2X2X2X2X2X2X2X2X2X2X2X2X2X2X2X2X2X2X2X2X2X2X2X2X2X2X2X2X2X2X2X2X2X2X2X2X2X2X2X2X2X2X2X2X2X2X2X2X",
"2X2X2X2X2X2X2X2X2X2X2X2X2X2X2X2X2X2X2X2X2X2X2X2X2X2X2X2X2X2X2X2X2X2X2X2X2X2X2X2X2X2X2X2X2X2X2X2X2X2X2X2X2X2X2X2X2X2X2X2X2X2X2X2X",
"2X2X2X2X2X2X2X2X2X2X2X2X2X2X2X2X2X2X2X2X2X2X2X2X2X2X2X2X2X2X2X2X2X2X2X2X2X2X2X2X2X2X2X2X2X2X2X2X2X2X2X2X2X2X2X2X2X2X2X2X2X2X2X2X",
"2X2X2X2X2X2X2X2X2X2X2X2X2X2X2X2X2X2X2X2X2X2X2X2X2X2X2X2X2X2X2X2X2X2X2X2X2X2X2X2X2X2X2X2X2X2X2X2X2X2X2X2X2X2X2X2X2X2X2X2X2X2X2X2X",
"2X2X2X2X2X2X2X2X2X2X2X2X2X2X2X2X2X2X2X2X2X2X2X2X2X2X2X2X2X2X2X2X2X2X2X2X2X2X2X2X2X2X2X2X2X2X2X2X2X2X2X2X2X2X2X2X2X2X2X2X2X2X2X2X",
"2X2X2X2X2X2X2X2X2X2X2X2X2X2X2X2X2X2X2X2X2X2X2X2X2X2X2X2X2X2X2X2X2X2X2X2X2X2X2X2X2X2X2X2X2X2X2X2X2X2X2X2X2X2X2X2X2X2X2X2X2X2X2X2X",
"2X2X2X2X2X2X2X2X2X2X2X2X2X2X2X2X2X2X2X2X2X2X2X2X2X2X2X2X2X2X2X2X2X2X2X2X2X2X2X2X2X2X2X2X2X2X2X2X2X2X2X2X2X2X2X2X2X2X2X2X2X2X2X2X",
"2X2X2X2X2X2X2X2X2X2X2X2X2X2X2X2X2X2X2X2X2X2X2X2X2X2X2X2X2X2X2X2X2X2X2X2X2X2X2X2X2X2X2X2X2X2X2X2X2X2X2X2X2X2X2X2X2X2X2X2X2X2X2X2X",
"2X2X2X2X2X2X2X2X2X2X2X2X2X2X2X2X2X2X2X2X2X2X2X2X2X2X2X2X2X2X2X2X2X2X2X2X2X2X2X2X2X2X2X2X2X2X2X2X2X2X2X2X2X2X2X2X2X2X2X2X2X2X2X2X",
"2X2X2X2X2X2X2X2X2X2X2X2X2X2X2X2X2X2X2X2X2X2X2X2X2X2X2X2X2X2X2X2X2X2X2X2X2X2X2X2X2X2X2X2X2X2X2X2X2X2X2X2X2X2X2X2X2X2X2X2X2X2X2X2X"
};
