/* XPM */
static char *result[] = {
/* columns rows colors chars-per-pixel */
"64 50 115 2 ",
"   c #4E1F3A",
".  c #511F3A",
"X  c #4F203A",
"o  c #53203A",
"O  c #5D253B",
"+  c #5E283D",
"@  c #672437",
"#  c #6B2537",
"$  c #662639",
"%  c #68273A",
"&  c #622B3E",
"*  c #6C293A",
"=  c #722736",
"-  c #762836",
";  c #7B2A35",
":  c #742C39",
">  c #7C2E38",
",  c #6A303F",
"<  c #70303E",
"1  c #7C333C",
"2  c #632D40",
"3  c #682E40",
"4  c #6B3341",
"5  c #723642",
"6  c #753842",
"7  c #7E3A41",
"8  c #852C34",
"9  c #892E34",
"0  c #952F32",
"q  c #8E3135",
"w  c #84333A",
"e  c #89353A",
"r  c #853A3F",
"t  c #8C393D",
"y  c #963032",
"u  c #9D3232",
"i  c #923D3D",
"p  c #9A3C3A",
"a  c #A13634",
"s  c #A43A36",
"d  c #A83E37",
"f  c #A63E38",
"g  c #A83F38",
"h  c #96403F",
"j  c #99413F",
"k  c #A5423C",
"l  c #AB443C",
"z  c #AD483F",
"x  c #B0473E",
"c  c #B24A3F",
"v  c #833D42",
"b  c #893E42",
"n  c #874446",
"m  c #8B4244",
"M  c #814248",
"N  c #8A4748",
"B  c #954341",
"V  c #9B4441",
"C  c #914846",
"Z  c #9E4A44",
"A  c #954C49",
"S  c #9A514B",
"D  c #A44A43",
"F  c #AE4B42",
"G  c #B34D41",
"H  c #AC5247",
"J  c #A3544B",
"K  c #AC5549",
"L  c #B55244",
"P  c #BA5445",
"I  c #BE5947",
"U  c #B55448",
"Y  c #B95749",
"T  c #B55C4C",
"R  c #BB5B4B",
"E  c #BD614F",
"W  c #BD6451",
"Q  c #BE6B55",
"!  c #C15E4A",
"~  c #C5634E",
"^  c #C9664E",
"/  c #C46651",
"(  c #C86750",
")  c #C56A54",
"_  c #CA6C53",
"`  c #D06F53",
"'  c #CD7156",
"]  c #CC745A",
"[  c #CD785D",
"{  c #D37356",
"}  c #D17659",
"|  c #D47C5D",
" . c #D97E5E",
".. c #D27E61",
"X. c #DA805F",
"o. c #D68464",
"O. c #DA8463",
"+. c #DD8A66",
"@. c #DD8C69",
"#. c #DE916D",
"$. c #E18A65",
"%. c #E18E69",
"&. c #E4936C",
"*. c #E7986F",
"=. c #E8996F",
"-. c #E49771",
";. c #E59B72",
":. c #E99C72",
">. c #E7A077",
",. c #ECA277",
"<. c #EDA579",
"1. c #EEA97C",
"2. c #F1AB7D",
"3. c #F6B383",
"4. c None",
/* pixels */
"4.4.4.4.4.4.4.4.4.4.4.4.4.4.4.4.4.4.4.4.4.4.4.4.4.4.4.4.4.4.4.4.4.4.4.4.4.4.4.4.4.4.4.4.4.4.4.4.4.4.4.4.4.4.4.4.4.4.4.4.4.4.4.4.",
"4.4.4.4.4.4.4.4.4.4.4.4.4.4.4.4.4.4.4.4.4.4.4.4.4.4.4.4.4.4.4.4.4.4.4.4.4.4.4.4.4.4.4.4.4.4.4.4.4.4.4.4.4.4.4.4.4.4.4.4.4.4.4.4.",
"4.4.4.4.4.4.4.4.4.4.4.4.4.4.4.4.4.4.4.4.4.4.4.4.4.4.4.4.4.4.4.4.4.4.4.4.4.4.4.4.4.4.4.4.4.4.4.4.4.4.4.4.4.4.4.4.4.4.4.4.4.4.4.4.",
"4.4.4.4.4.4.4.4.4.4.4.4.4.4.4.4.4.4.4.4.4.4.4.4.4.4.4.4.4.4.4.4.4.4.4.4.4.4.4.4.4.4.4.4.4.4.4.4.4.4.4.4.4.4.4.4.4.4.4.4.4.4.4.4.",
"4.4.4.4.4.4.4.4.4.4.4.4.4.4.4.4.4.4.4.4.4.4.4.4.4.4.4.4.4.4.4.4.4.4.4.4.4.4.4.4.4.4.4.4.4.4.4.4.4.4.4.4.4.4.4.4.4.4.4.4.4.4.4.4.",
"4.4.4.4.4.4.4.4.4.4.4.4.4.4.4.4.4.4.4.4.4.4.4.4.4.4.4.4.4.4.4.4.4.4.4.4.4.4.4.4.4.4.4.4.4.4.4.4.4.4.4.4.4.4.4.4.4.4.4.4.4.4.4.4.",
"4.4.4.4.4.4.4.& 2 & 4.4.4.4.4.4.4.4.4.4.4.4.4.4.4.4.4.4.4.4.4.4.4.4.4.4.4.4.4.4.4.4.4.4.4.4.4.4.4.4.4.4.4.4.4.4.4.4.4.4.4.4.4.4.",
"4.4.4.4.4.4.4 5 6 6 4 4.4.4.4.4.4.4.4.4.4.4.4.4.4.4.4.4.4.4.4.4.4.4.4.4.4.4.4.4.4.4.4.4.4.4.4.4.4.4.4.4.4.4.4.4.4.4.4.4.4.4.4.4.",
"4.4.4.4.4.2 N S S J n 3 4.4.4.4.4.4.4.4.4.4.4.F F F 4.4.4.4.4.4.4.4.4.4.4.4.4.4.4.4.4.4.4.4.4.4.4.4.4.4.4.4.4.4.4.4.4.4.4.4.4.4.",
"4.4.4.4.4.2 S Q _ _ A & & 4.4.4.4.4.4.4.4.4.4.U U U L 4.4.4.4.4.4.4.4.4.4.4.4.4.4.4.4.4.4.4.4.4.4.4.4.4.4.4.4.4.4.4.4.4.4.4.4.4.",
"4.4.4.4.4.& A T T H b $ $ 4.4.4.4.4.4.4.4.u R ..o.o.] F f F F F F 4.4.4.4.4.4.4.4.4.4.4.4.4.4.4.4.4.4.4.4.4.4.4.4.4.4.4.4.4.4.4.",
"4.4.4.4.4.& C K Z i : O o 4.4.4.4.4.4.4.4.u Q <.3.3.@.G k F G U L 4.4.4.4.4.4.4.4.4.4.4.4.4.4.4.4.4.4.4.4.4.4.4.4.4.4.4.4.4.4.4.",
"4.4.4.4.4.+ b j i w * . o 4.4.4 4 4 4.4.4.u / ;.:.-.] F H ] o.o.] F u 4.4.4.F F G 4.4.4.4.4.4.4.4.4.4.4.4.4.4.4.4.4.4.4.4.4.4.4.",
"4.4.4.4.4.O 1 i 1 * $ X . 4.& 4 6 4 5 4.y u W -.-.| ! g E ;.3.3.&.U u 4.4.G U H U F 4.4.4.4.4.4.4.4.4.4.4.4.4.4.4.4.4.4.4.4.4.4.",
"4.4.4.4.4.+ b V t w * o o X 7 S S S V p u u I @.O.( P s R -.2.;...F u u F ] o...] R 4.4.4.4.4.4.4.4.4.4.4.4.F G 4.4.4.4.4.4.4.4.",
"4.4.4.4.4.& m D D t : o o X N Q _ _ P k u u P  .} I l a L &.:.O.~ l u u F @.3.3.-.W u 4.4.4.4.4.4.4.4.4.4.G U U U G 4.4.4.4.4.4.",
"4.4.4.4.4.+ b Z b e = . . . n W W U l a u u Y O. .~ G s L +.%._ P g u u F +.3.:.O.U u 4.4.4.4.4.4.4.4.4.z / ....] W l 4.4.4.4.4.",
"4.4.4.4.4.O w i e : $ .   . v T F i p u u u R &.%.{ I l L |  .! l a u u F +.,.O./ G u 4.4.4.4.4.4.4.4.F F [ 1.<.#.] l 4.4.4.4.4.",
"4.4.4.4.4.+ b h t > # . . o 7 H B e q y y u Y +.X._ P s L +.+.~ G s u u F } *.} I l u 4.4.4.F F 4.4.4.F F ] <.,.o.) l u 4.4.4.4.",
"4.4.4.4.4.& n D V t : . .   6 k t : 8 0 u u L } _ I x s P @.%.] I l u u l ] $.^ c s u a 4.U Y T Y F 4.f z _ ;.+.( P f u 4.4.4.4.",
"4.4.4.4.4.+ b D b t : . o X 1 D h > 8 y 0 u x ^ ^ ! c s L +.#.' P g u u l } &._ c d u a l ) ..[ ] Y u k z ) %.| ! c a u 4.4.4.4.",
"4.4.4.4.4.+ r b e > $ .   o 7 K j e y y u u l ~ ~ ~ P s L O.X.~ c s u u l o.:.} ! l u s l ..3.-.#./ u s l ~ O.' P l a u 4.4.4.4.",
"4.4.4.4.4.+ r j i > % .   X 7 H j e q y u s c E ~ I G f L O.X.~ G s u u z X.=.} I l u a F ..3.:.+.R u s l ~ O.] P l a u 4.4.4.4.",
"4.4.4.4.4.& m D b e * o o X 1 D t > 8 0 k L P E U l s u L +.&.' P d u u l } %.( c f u s l } 2.O._ L u f l ) #.| ! c s u 4.4.4.4.",
"4.4.4.4.4.& m Z i e * o . X 6 D h > 8 0 D ) ] [ T k a u L +.&.' P d u u x } %.( c d u s l _ :.| I l u s l / $.| I G a u 4.4.4.4.",
"4.4.4.4.4.O r B t 1 # .   X v F j w q y E #.-.;.[ z a u L o.O.~ G s u u l | :.} P l u a l ) &.] L l u s l ! { ` P l a u 4.4.4.4.",
"4.4.4.4.4.+ r B t > * . X o 7 H j e q y W >.<.>.[ z a u L O.O.~ G s u u l ..=.} I l u s g ) &._ G g u s g P ` ^ L x a u 4.4.4.4.",
"4.4.4.4.4.+ b Z i e * o X o 1 D i > q y E &.&.X.~ l a u P O.%._ P s u u z } &._ L g u a l _ =.} I x u a l P { ` I x a u 4.4.4.4.",
"4.4.4.4.4.& m Z h e * O     1 D t > 9 y T @.o._ P f u u P +.&._ P g u u l } &.( c d u a l ] :.| I x a a g I | ` ! c a u 4.4.4.4.",
"4.4.4.4.4.+ r V t 1 * o . . 7 H h e 9 y R +.X.~ L s u u L O.+.( L s u u x | *.] P l u a g _ &.{ L g a a l R ..` P x a u 4.4.4.4.",
"4.4.4.4.4.+ w h t > % o   . 1 D h e q y Y X.X.~ c s u u L O.O.~ c s u u l | *.} I l u s l ) %.` L g u a l / O.{ P x a a 4.4.4.4.",
"4.4.4.4.4.& M C r w * o .   1 p q > 9 0 T +.X.( L f u u L O.+._ P s u u G | &._ L g u u l _ *.{ P l a s l / %.{ I x a a 4.4.4.4.",
"4.4.4.4.4.4.M N v 1 : o .   # 9 8 - 8 y R @.O._ P f u u L +.&._ P s u u x } %._ c d a a l _ *.| I l a a x ~ $.| I G a a 4.4.4.4.",
"4.4.4.4.4.4.4.6 : * % 4.. . # 8 ; - 8 0 T +.X.~ G s a u L +.$._ P s u u x { *._ P d u a k _ *.} P g a s d !  .{ P F a a 4.4.4.4.",
"4.4.4.4.4.4.4.4.4.4.4.4.4.4.@ - = - 8 0 Y +.| ~ G s u u G o.O.( G s u u l | *.{ P l a a l ) &.' L g u a d ! ` ^ P x a 4.4.4.4.4.",
"4.4.4.4.4.4.4.4.4.4.4.4.4.4.4.# @ @ 8 y Y +.X.~ P s u u G +.$._ L s u a l | &.] P d u a l _ *.] P l u a d c ^ ! P x s 4.4.4.4.4.",
"4.4.4.4.4.4.4.4.4.4.4.4.4.4.4.4.4.  ; 0 R #.O.^ L s a u L O.$._ P g u u l } &._ G d a a l ' =.{ P x u a s c ! ! I G 4.4.4.4.4.4.",
"4.4.4.4.4.4.4.4.4.4.4.4.4.4.4.4.4.4.8 y R +.| ) L s u u c  . .( G s u u G ] O.) P l u a f ^ $.` L x u a 4.x L c c 4.4.4.4.4.4.4.",
"4.4.4.4.4.4.4.4.4.4.4.4.4.4.4.4.4.4.4.u ~ +.X.~ c s u u c ` { ! G g u u F ) ] / I l u a f !  .^ P d u u 4.4.4.4.4.4.4.4.4.4.4.4.",
"4.4.4.4.4.4.4.4.4.4.4.4.4.4.4.4.4.4.4.u E +.| ^ P d u u x ! ^ ! L g u 4.4.R E P G 4.4.a s I _ ! P x a 4.4.4.4.4.4.4.4.4.4.4.4.4.",
"4.4.4.4.4.4.4.4.4.4.4.4.4.4.4.4.4.4.4.u R %.| ( G s a u l I ! ! P l 4.4.4.4.s s 4.4.4.4.s L I I I c 4.4.4.4.4.4.4.4.4.4.4.4.4.4.",
"4.4.4.4.4.4.4.4.4.4.4.4.4.4.4.4.4.4.4.u I O.| ~ P s a 4.4.c G G G 4.4.4.4.4.4.4.4.4.4.4.4.c G G c 4.4.4.4.4.4.4.4.4.4.4.4.4.4.4.",
"4.4.4.4.4.4.4.4.4.4.4.4.4.4.4.4.4.4.4.u P { ` ~ G s a 4.4.4.s s 4.4.4.4.4.4.4.4.4.4.4.4.4.4.s 4.4.4.4.4.4.4.4.4.4.4.4.4.4.4.4.4.",
"4.4.4.4.4.4.4.4.4.4.4.4.4.4.4.4.4.4.4.u c ^ ~ ! P s a 4.4.4.4.4.4.4.4.4.4.4.4.4.4.4.4.4.4.4.4.4.4.4.4.4.4.4.4.4.4.4.4.4.4.4.4.4.",
"4.4.4.4.4.4.4.4.4.4.4.4.4.4.4.4.4.4.4.4.c ! ! P G d 4.4.4.4.4.4.4.4.4.4.4.4.4.4.4.4.4.4.4.4.4.4.4.4.4.4.4.4.4.4.4.4.4.4.4.4.4.4.",
"4.4.4.4.4.4.4.4.4.4.4.4.4.4.4.4.4.4.4.4.4.c c c c 4.4.4.4.4.4.4.4.4.4.4.4.4.4.4.4.4.4.4.4.4.4.4.4.4.4.4.4.4.4.4.4.4.4.4.4.4.4.4.",
"4.4.4.4.4.4.4.4.4.4.4.4.4.4.4.4.4.4.4.4.4.4.4.d 4.4.4.4.4.4.4.4.4.4.4.4.4.4.4.4.4.4.4.4.4.4.4.4.4.4.4.4.4.4.4.4.4.4.4.4.4.4.4.4.",
"4.4.4.4.4.4.4.4.4.4.4.4.4.4.4.4.4.4.4.4.4.4.4.4.4.4.4.4.4.4.4.4.4.4.4.4.4.4.4.4.4.4.4.4.4.4.4.4.4.4.4.4.4.4.4.4.4.4.4.4.4.4.4.4.",
"4.4.4.4.4.4.4.4.4.4.4.4.4.4.4.4.4.4.4.4.4.4.4.4.4.4.4.4.4.4.4.4.4.4.4.4.4.4.4.4.4.4.4.4.4.4.4.4.4.4.4.4.4.4.4.4.4.4.4.4.4.4.4.4.",
"4.4.4.4.4.4.4.4.4.4.4.4.4.4.4.4.4.4.4.4.4.4.4.4.4.4.4.4.4.4.4.4.4.4.4.4.4.4.4.4.4.4.4.4.4.4.4.4.4.4.4.4.4.4.4.4.4.4.4.4.4.4.4.4."
};
