/* XPM */
static char *result[] = {
/* columns rows colors chars-per-pixel */
"64 64 29 1 ",
"  c #FF5A9D",
". c #FF609F",
"X c #FF63A1",
"o c #FF6CA5",
"O c #FF6BAB",
"+ c #FF70A7",
"@ c #FF74AA",
"# c #FF7BAD",
"$ c #FF7FB0",
"% c #FF84B2",
"& c #FF8BB6",
"* c #FF8FB8",
"= c #FF94BA",
"- c #FF9BBE",
"; c #FF9FC0",
": c #FFA4C2",
"> c #FFAAC6",
", c #FFAEC8",
"< c #FFB4CB",
"1 c #FFBBCE",
"2 c #FFBED0",
"3 c #FFC3D3",
"4 c #FFCAD6",
"5 c #FFCED8",
"6 c #FFD4DB",
"7 c #FFDADE",
"8 c #FFDEE0",
"9 c #FFE3E3",
"0 c #FFEBE7",
/* pixels */
"0000988899999890000000000009889000000099999000000000000000000000",
"0000000864444466800000000000000000000000000000000000000000000000",
"000000963,::::<3790000000000000000000000000000000000000000000000",
"00000083>*%%%%=<490000000000000000000000000000000000000000000000",
"00000081=+  ..#-370000000000090009000000000000090000900000000000",
"0000008<=o    +*,36790000087644446780000000009764544668000000000",
"0000007<=o    o#*:1379000063,::::<3690000000963<>::>,36900000000",
"0000007<*o    .o@%-16900084,=%&%%=,49000000095<-%%%%*:3800000000",
"0000007<*o       X%:4900071-@.  .@-17000000083-#... +*1800000000",
"00000093:%@oX    .#;4800091-@    o&:367999764>*@    o*<700000000",
"000000941:=#o    .#;3900071=+    .@*;<478741>=%o    o*<700000000",
"0000009763<=#    .#:4800091-+    .o@%-,4761-%#..    o*<700000000",
"00000000984>&X.  X%:4900091-@   ...oo%:465:%o.      +=1700000000",
"000000000071-%####*,4900074:&####@@##&>464:#.    .o+%-3700000000",
"000000000074<:---;,379000961:--------:3674-#.    +%&;15900000000",
"000000000007431111468000097642211311146784:%.   .#=,367000000000",
"000000009997767677890000008776666677788084:%o.. o%:4788999999900",
"000000097646646790000000009764554678000096,*#@@@#-17997655556880",
"000000963<:,:>13700000000063<>>,>1370000973,-----<48863,>>>,1479",
"00000083,*&%&%-<49000000094<-%%%%=,4800008643133347984>=%&%&-<59",
"00000071-#o.oo%;27900009971-#XoXo#;3800000888877788961-@oo.+%:48",
"0000007<*o    +*,468909764>&o    +=180000000000009763:&.   .+-38",
"0000008<*o    o#=:1588641:=#o    @=18000000000009641:&@.    @-38",
"0000007<*.    .o#&;<686<-%@o     +=180000000000095,=%@o.   .@-38",
"0000007<=o     .Xo%>473:%o.      +-180000000000083-#o      .#-39",
"00000073;%oo.     #;363-@     Xo+%:380000000000091-+    ..o@&:49",
"000000961;*#o.   X#:363-@    .o%*:1490000000000081=+    .@%=:169",
"0000009843,=#.    #;463-#    X#=<36700000000000083=+    o%-<4679",
"00000000984:%.    #:363-@    X*,689000000000000091-+    +*,69990",
"000000000071-%@@@#*,474>*@@@@%-3790000000000000093:%@@@@&:370000",
"000000000074,-===->27761>-==-;<49000000000000000961:-==-:1680000",
"0000000000974311114689963111114790000000000000000743111134700000",
"0000000000099799779990999877779900000000000000000988887789000000",
"0000000000000000000000976464667890000000098766466770900000000000",
"0000000000000000000009741,,,,<36900000000741,,,>,369000000000000",
"000000000000000000000961-*&&*=,490000000961;*&&&=>37000000000000",
"00000000000000000000093:%oooo#=17990000074:&+ooo+=<6000000000000",
"00000000000000000000083-#    o%:468909876<-#    .%,6000000000000",
"00000000000000000000083;@    .#*:1469853,-%+.   .&,6000000000000",
"00000000000000000000073-@     o#%-<5863>*%@.    .*,6000000000000",
"00000000000000000000093:#X ...Xo+%:385<*@...   ..&,6000000000000",
"00000000000000000000094:&+O++o+++%:385>%.. . ..+#-17000000000000",
"000000000000000000000961:======*=-<585:%.    o@&-,38900000000000",
"00000000000000000000007431<11<<1134795>%o   .@&:1469000000000000",
"00000000000000000000009976666666778905>%.. ..%-37790009000000000",
"00090966666890000000009776678789000005,=#+o+@*,60877677678900000",
"000641<<<<147000000009742<,<<<469000073>-=**->370741<,<,14790000",
"0095<-****-<490000000961:***==,4800008541<1<136894<-****;,600000",
"0083-%oooo#;38000000084:%oooo@-2700009098677799993;#ooXo%-370000",
"0072-@    o*,478900874<=+.  .X*<70000000000009874,*+    @=170000",
"0072=@    .#*,1479853,-%o    o*<7000000000009742,=#o    +=170000",
"0081=+    .+#*:16862:*$+X    o*<700000000000961:&#+.    @=170000",
"0081=+      oo%:484>&@X.     X*<70000000000093:%o.      +=170000",
"0083:%OX.     #-364:%X    XXo$-180000000000083-#.    .Xo%:370000",
"0095<-&#o.    @-284:#X    o#%-,480000000000093-@    .+#&-1680000",
"009752>=#.    @-364:#X   .@*>14690000000000093-@    .#*,14700000",
"0009774:*o    #-264:#X  .X%:288000000000000093-#    o&:477900000",
"00000071-#+o+o&:485,*@ooO@=<600000000000000094>%+ooO#=2890000000",
"00000094,-****;15862:==*==,38000000000000000961:=***-,4800000000",
"0000009741<,<<1489853<<<<13680000000000000000641<<<<<46900000000",
"0000000977666677009876666679000000000000000000866666688000000009",
"0000000000000000000000000000000000000000000000000000000000009876",
"00000000000000000000000000000000000000000000000000000000000084,-",
"0000000000000000000000000000000000000000000000000000000000095,%O"
};
