/* XPM */
static char *result[] = {
/* columns rows colors chars-per-pixel */
"63 63 236 2 ",
"   c #900035",
".  c #9C003D",
"X  c #94083B",
"o  c #9C083F",
"O  c #9C0A41",
"+  c #9E1647",
"@  c #A60143",
"#  c #A80044",
"$  c #AA0A49",
"%  c #B4014C",
"&  c #B9034F",
"*  c #A5134A",
"=  c #AA144D",
"-  c #A21C4D",
";  c #BB0050",
":  c #BA0D54",
">  c #AB1C52",
",  c #B21452",
"<  c #B21C55",
"1  c #B81857",
"2  c #BC1559",
"3  c #BB1B5A",
"4  c #A1224F",
"5  c #AB2556",
"6  c #A72855",
"7  c #B5235A",
"8  c #BB235E",
"9  c #B1285B",
"0  c #AB355E",
"q  c #BE2762",
"w  c #AF3D65",
"e  c #B63967",
"r  c #C20355",
"t  c #CD015B",
"y  c #C30858",
"u  c #C50A5A",
"i  c #CC085D",
"p  c #D1035F",
"a  c #C4145D",
"s  c #C6155F",
"d  c #CC0E60",
"f  c #D60763",
"g  c #DC0667",
"h  c #D50964",
"j  c #CD1563",
"k  c #C41E62",
"l  c #CC1B65",
"z  c #CF1E68",
"x  c #D41166",
"c  c #D11967",
"v  c #D41468",
"b  c #DB146B",
"n  c #D41C6A",
"m  c #DB1A6E",
"M  c #DD1C70",
"N  c #E7046D",
"B  c #E30C6D",
"V  c #E1146F",
"C  c #EC0C72",
"Z  c #F10674",
"A  c #F30A77",
"S  c #FE0C7E",
"D  c #E51572",
"F  c #EB1576",
"G  c #E31C74",
"H  c #E91E78",
"J  c #F11278",
"K  c #F5197D",
"L  c #C42463",
"P  c #CA2267",
"I  c #C42965",
"U  c #CB266A",
"Y  c #C72C69",
"T  c #CC2C6C",
"R  c #D2256D",
"E  c #D12B6E",
"W  c #C6336B",
"Q  c #CC326E",
"!  c #C33C6E",
"~  c #D52670",
"^  c #DC2573",
"/  c #D52C71",
"(  c #DA2E75",
")  c #CB3972",
"_  c #CB3B74",
"`  c #D33573",
"'  c #DA3176",
"]  c #D43A76",
"[  c #DD3379",
"{  c #D53C7A",
"}  c #DA3A7A",
"|  c #E52176",
" . c #E02976",
".. c #E62478",
"X. c #EE237D",
"o. c #E52B7A",
"O. c #EB2A7D",
"+. c #F2237F",
"@. c #E3337D",
"#. c #E13A7E",
"$. c #BC446E",
"%. c #BD4B73",
"&. c #BD587A",
"*. c #C44272",
"=. c #CA4678",
"-. c #CC4C7C",
";. c #D4437B",
":. c #D9417D",
">. c #D2497E",
",. c #C5577E",
"<. c #D0517F",
"1. c #FD1480",
"2. c #F71C80",
"3. c #FE1D84",
"4. c #EE2D80",
"5. c #FC2285",
"6. c #F82585",
"7. c #F22C83",
"8. c #FF2A8A",
"9. c #ED3483",
"0. c #EA3C85",
"q. c #EC3D85",
"w. c #F33185",
"e. c #F73388",
"r. c #FC368D",
"t. c #F33D8A",
"y. c #FB3B8E",
"u. c #FF3592",
"i. c #FE3C92",
"p. c #D94784",
"a. c #DB4D85",
"s. c #CE5482",
"d. c #C35F80",
"f. c #CE5C85",
"g. c #D45584",
"h. c #D75787",
"j. c #DD538A",
"k. c #DD5B8D",
"l. c #DD5E90",
"z. c #E74587",
"x. c #ED4B8B",
"c. c #F3438D",
"v. c #F4498F",
"b. c #EB508D",
"n. c #E05B8E",
"m. c #EA4F90",
"M. c #FE4494",
"N. c #F54A92",
"B. c #FE4C97",
"V. c #FF4398",
"C. c #FF4D99",
"Z. c #E35A91",
"A. c #F45595",
"S. c #FA5396",
"D. c #FF549B",
"F. c #FF599C",
"G. c #CE658A",
"H. c #C96888",
"J. c #D2638B",
"K. c #D7658E",
"L. c #C8738D",
"P. c #D76690",
"I. c #DD6491",
"U. c #D56E93",
"Y. c #DC6B95",
"T. c #CC7892",
"R. c #D87596",
"E. c #D27B96",
"W. c #DC7D9C",
"Q. c #E36493",
"!. c #E26A96",
"~. c #E46D99",
"^. c #EC6D9D",
"/. c #F7619D",
"(. c #E4739C",
"). c #EA729F",
"_. c #E17A9E",
"`. c #FF57A1",
"'. c #FD5CA2",
"]. c #DE7FA0",
"[. c #FE62A6",
"{. c #FB68A5",
"}. c #FE6DAB",
"|. c #E37EA1",
" X c #EA78A1",
".X c #F675A8",
"XX c #FE73AE",
"oX c #FC7AAC",
"OX c #FF77B1",
"+X c #FE7DB2",
"@X c #CF869B",
"#X c #D5829C",
"$X c #DB819E",
"%X c #DC85A1",
"&X c #D78AA0",
"*X c #DA8CA4",
"=X c #DA92A7",
"-X c #DE9CAD",
";X c #E585A5",
":X c #E988A9",
">X c #E294AC",
",X c #E09DAF",
"<X c #EC8DB1",
"1X c #FD85B4",
"2X c #F58AB3",
"3X c #FC8AB4",
"4X c #FF8BB9",
"5X c #F697B9",
"6X c #FF94BE",
"7X c #E1A2B2",
"8X c #E4ABB9",
"9X c #F3A5BD",
"0X c #E7B2BD",
"qX c #FD97C2",
"wX c #FF9CC2",
"eX c #FFA5C3",
"rX c #FCABC8",
"tX c #E9B5C0",
"yX c #EBBCC4",
"uX c #F9B7CB",
"iX c #F8B4D1",
"pX c #EEC3CA",
"aX c #F0C5D1",
"sX c #F4CAD6",
"dX c #F5D5D7",
"fX c #F9DDDD",
"gX c #FCCEE3",
"hX c #F8D9E6",
"jX c #FCE5E3",
"kX c #FFEBE7",
"lX c #F9E3EC",
"zX c #F8E6ED",
"xX c #FCECF3",
"cX c #FDF0F6",
"vX c #FEF6F9",
"bX c #FFFFFF",
/* pixels */
"kXkXkXkXkXkXkXkXkXkXkXkXkXkXkXkXkXkXkXkXkXkXjXhXaX7X=X-.@ . m y.B.3.i @ X % G.-X8XdXjXjXkXkXkXkXkXkXkXkXkXkXkXkXkXkXkXkXkXkXkX",
"kXkXkXkXkXkXkXkXkXkXkXkXkXkXkXkXkXkXkXjXjXdXtX-XU.8 a v x * n.{.F.C.6.j @ D j 1 I &X7XyXfXjXjXkXkXkXkXkXkXkXkXkXkXkXkXkXkXkXkX",
"kXkXkXkXkXkXkXkXkXkXkXkXkXkXkXkXjXjXfXyX8X&X! k z F H ..I - >X6XF.F.D.E * ] ..F G k k s.=X8XpXhXjXjXkXkXkXkXkXkXkXkXkXkXkXkXkX",
"kXkXkXkXkXkXkXkXkXkXkXkXkXkXjXhXpX0X=Xs.I U M F | @.@.=.e - 8X9XF.F.F.` O $.{ 0.4.G F n Y I G.,X0XsXjXjXkXkXkXkXkXkXkXkXkXkXkX",
"kXkXkXkXkXkXkXkXkXkXkXjXjXsXtX7XU.! Q ^ D G o.@.( W _ U.T.4 7X9XF.F.F.Q 4 -XJ.W Y [ 9. .G D ~ Q =.].8XyXdXjXjXkXkXkXkXkXkXkXkX",
"kXkXkXkXkXkXkXkXjXjXdXyX0X%Xs._ ~ b V o.o.[ Q Q ;.n.!.:XW.4 7X9XF.F.F.) 5 9X XQ.j._ W ` @.o.G M m ` _ f.=X0XpXfXjXjXkXkXkXkXkX",
"kXkXkXkXkXjXkXfXpXtX>Xf.=.` m b | O.o.~ Q s.h.n.^.3X4X+Xj.4 7XeXF.F.D.` > ^.1X4X1XQ.n.h.-.T ~ o.o.M b n ] =.K.7XtXsXjXjXkXkXkX",
"kXkXkXjXjXsXyX8XU.s.;.n x M ..o.' _ _ ~ p.:X5X4X1X+XXXoXY.4 7XeXF.F.D.` > 2XOXXX1X1X4X2X].^ ( _ ` ( O...M x ~ =.f.$XtXyXdXjXjX",
"kXjXdXpXyX*XJ.s.R x b ..O.( / ` ` g.I.t.`.rXqX}.}.1X}.1X%X6 7XeXF.F.F.Q 5 rX+X}.+X'.XXqXqXu.c.P.p.) Q / ^ 4.^ x v ` g.P.>XyXpX",
"jXdX7XJ.f.` j h G O.@.;.W Y Q ` 0.}.4X`.i.}.[.i.C.rXqX1Xl.+ 7XeXF.F.F.` >  X4XwXwX8.C.OX[.u.[.2X'.} ' Q Y ) p.4...M d c _ f.U.",
"pX*X>.j r v X.X.^ R ;.H.0 P c.v.0.t.'.B.u.}.qX`.u.XXOXOXh.4 7XeXF.F.F.` - ).OXOX[.3.}.4X'.u.D.`.t.t.N.0.k %.G.] ~ ^ 7.H x y c ",
"H.W v H i l T E j d { >Xa.G O.[ v b 8.V.}.+X}.i.3.i.C.1X=X4 7XeXF.F.F.Q 6 uXOXV.u.3.B.XX+X[.i.6.x P @.O.^ (.>X/ d j E E l h X.",
"  l ..U O < L x H 6.q.Y.t.3.6.~ j M t.i.`.OXC.V.'.1X3X1XI.+ -XwXF.F.C.T >  X4X1X+XC.i.`.}.V.i.w.m l ( 6.3.Z.Y.9.7.b j 3 = = ~ ",
"  7 P r . Y q.7.' T *.f.m.M.B.B.8.3.u.3.u.OX1X4X4X4X1XXXj.* ~.oXF.C.r.l > {.OX1XqX1X4X1X}.5.3.u.3.y.D.B.M.n.d.! T o.7.0.3 @ u ",
"  < m N @ < E E T > $.-X9X{.M.r.r.i.V.u.'.iXqX+XOX}.F.3X-X* ^ c.N.w.x # 6 aXOX`.}.OX+XwXeXu.u.B.i.r.r.B..XrX&X0 8 T ( Y , ; Z ",
"  Q e.Z # < L c #.L 0 L.E.Z.y.r.i.'.}.i.V.OXXXC.[.uX2X5X=X+ a / { n < O 6 yX4XqXrXu.`.+XXX8.B.}.F.u.8.y.I.&Xd.6 T ' j L = ; S ",
"  ] r.Z # L @... .3 0 ,.*.@.c.v.y.y.i.u.r.[.6X'.`.yX5X=XH.4 %.f.H.f.,.w 6 @X:X9XrX8.XX6XF.8.i.i.y.c.M.q.' <.&.< k  .o.@.3 ; S ",
"  ] r.Z # 7 ' / c u _ $X;.M O.#.n M w.M.D.oX5X[.t.=X&XE.L.d.W.;X;X;X:XR.&.T.#X*X$XX.oX5X{.S.i.7.m E 0.O.R K.#XI s n / Q , ; S ",
"  ` r.Z # < U c G | #.U.e P o.( 1 k q.S.{.:X;Xa.{ L.E.W.;X|.k.a.a.a.j.I.;X;XE.E.U.^ I.;X;XF.B.@.a L @...I ,.Y.@.G m l L = ; S ",
"  ` r.Z # 8 ' |  ./ / =.W ' c.x.P l z.b.K.$XT.J.l.].|.Y.j.a.~ j x l j ' j.j.~.$XW.f.G.E.W.k.x.#.k E c.z.Q W ;./ ^ |  .' 3 ; S ",
"  ` r.Z # 3 '  .E 8 8 } z.x.S.A.( R :.h.G.E.W.W.!.k.j.` l l M H | | H m c c :.k.l.W.;XW.T.G.h.] R #.S.N.x.#.] 8 I /  ./ 1 ; S ",
"  ] r.Z # $ s n @.8 7 z.S.b.z.:.:.>.f.R.$XW.Q.n.:.R c m G X.y.M.M.M.M.w.H G n c n j.Z.Y._.W.U.g.>.a.z.x.A.S.:.< I ( s s $ ; S ",
"  ` r.Z # r B B t.Y < ] z.<.<.<.U.W.W.~.Q.j.E c n G G w.M.M.D.D.F.F.F.B.M.M.O.G M c l ` j.Q.R.W.W.J.,.<.>.z.Q < ` w.N g % & S ",
"  ` r.Z # i J K q.q 5 *.<.K.$X$X(.~.n.` c c m G ..M.M.C.D.F.F.F.F.F.F.F.F.D.B.M.y.H D m c z } Q.~._.$XR.J.<.e 5 Q O.S F r ; S ",
"  ` r.C # s @.@.;.*.%.U.$X_.(.Q.:.z l m V | e.M.B.F.F.F.F.F.F.F.F.F.F.F.F.F.F.F.D.M.M.w.G V n l U n.(.(._.$XG.$.*.:.@.( , ; S ",
"  E +.B @ 9 *.-.R.%X$X(.(.j.T P v b G w.y.M.D.F.F.F.F.F.F.F.F.F.F.F.F.F.F.F.F.F.F.F.D.S.M.y.O.V b j s ` n.).;X$X$XG.=.*.5 % F ",
"  a ^ I 5 ,.#X$X_. Xn.Q s s b V O.y.M.D.F.F.F.F.F.F.F.F.F.F.F.F.F.F.F.F.F.F.F.F.F.F.F.F.F.F.B.M.r.X.B v s s ] Q. X;X$XW.%.9 U ",
"  @ 8 L.@X_._.(.! 7 2 y t b O.O.q.v.x.x.x.x.x.x.x.x.x.x.m.x.x.x.x.x.x.x.x.x.m.x.x.x.x.b.x.x.x.x.x.@.O.| x t u 1 8 >. X_.R.T.H.",
"  o 5 ,.,.*.W Y , * $ y u s L Y Y Y Y Y Y Y T Y Y T Y Y T Y Y Y T T Y Y Y Y T T T Y Y Y Y Y Y Y Y I I L s u : $ * 3 Y W -.,.*.",
"  1 / @.] ' ' ' ( / / ( ( ( ( ( ( ( ( ( ( ( ' ( ( ( ( ( ' ' ' ( ( ( ( ' ( ( ( ( ' ' ( ( ( ( ( ( ( / @. .' ( ( E E ( ' ' ` } } ",
"  a H | X.| H H H H H H H H H X.H H H H | H H H | H X.H H H H H H H H | G H H H H H G X.X.| H | H H H H H X.| H H H H H | | H ",
"  : d i r u i i i i i i i i i i i i i i f i i i i i i i i i i i i i i f i i i i i i i i i p p i p i i i i i i p i i i i i u i ",
"  7 n t # ; p h h h h h h h h h h h h h h h h h h h h h h h h h h h h h h h h h h h h h h h h h h h h h h h h h h h h p % % f ",
"  Y O.N # r C +.7.7.7.7.7.7.7.7.7.7.7.7.7.7.7.7.7.7.7.7.7.7.7.7.7.7.7.7.7.7.7.7.7.7.7.7.7.7.7.7.7.7.7.7.7.7.7.7.7.7.+.N ; % Z ",
"  ` y.A # p K M.S.B.B.S.B.C.C.C.C.C.C.C.C.C.C.B.C.B.D.B.C.B.B.D.D.B.C.C.C.C.B.C.B.D.B.B.D.B.C.C.B.B.S.B.S.C.C.B.B.D.y.J r ; S ",
"  ] r.Z # p K B.F.F.F.F.F.F.F.F.F.F.F.F.F.F.F.F.F.F.F.F.F.F.F.F.F.F.F.F.F.F.F.F.F.F.F.F.F.F.F.F.F.F.F.F.F.F.F.F.F.F.M.J r ; S ",
"  ` r.Z # t K S.F.F.F.F.F.F.F.F.F.F.F.F.F.F.F.F.F.F.F.F.F.F.F.F.F.F.F.F.F.F.F.F.F.F.F.F.F.F.F.F.F.F.F.F.F.F.F.F.F.F.M.J r & S ",
"  ` y.Z # t K B.F.F.F.F.F.F.F.F.F.F.F.F.F.F.F.F.F.F.F.F.F.F.F.F.F.F.F.F.F.F.F.F.F.F.F.F.F.F.F.F.F.F.F.F.F.F.F.F.F.F.B.J r ; S ",
"  ` r.Z # t K B.F.F.F.F.F.F.F.F.F.F.F.F.F.F.F.F.F.F.F.F.F.F.F.F.F.F.F.F.F.F.F.F.F.F.F.F.F.F.F.F.F.F.F.F.F.F.F.F.F.F.M.J r ; S ",
"  ` r.Z # t K S.F.F.F.F.F.F.F.F.F.F.F.F.F.F.F.F.F.F.F.F.F.F.F.F.F.F.F.F.F.F.F.F.F.F.F.F.F.F.F.F.F.F.F.F.F.F.F.F.F.F.M.J r ; S ",
"  ` e.Z # t 2.B.F.F.F.F.F.F.F.F.F.F.F.F.F.F.F.F.F.F.F.F.F.F.F.F.F.F.F.F.F.F.F.F.F.F.F.F.F.F.F.F.F.F.F.F.F.F.F.F.F.F.M.J r ; S ",
"  ` r.Z # p 2.S.F.F.F.F.F.F.F.F.F.F.F.F.F.F.F.F.F.F.F.F.F.F.F.F.F.F.F.F.F.F.F.F.F.F.F.F.F.F.F.F.F.F.F.F.F.F.F.F.F.F.M.J r ; S ",
"  ` r.Z # t K B.F.F.F.F.F.F.F.F.F.F.F.F.F.F.F.F.F.F.F.F.F.F.F.F.F.F.F.F.F.F.F.F.F.F.F.F.F.F.F.F.F.F.F.F.F.F.F.F.F.F.M.J r & S ",
"  ` r.Z # p K B.F.F.F.F.F.F.F.F.F.F.F.F.F.F.F.F.F.F.F.F.F.F.F.F.F.F.F.F.F.F.F.F.F.F.F.F.F.F.F.F.F.F.F.F.F.F.F.F.F.F.M.J r ; S ",
"  ] r.Z # r F z.x.x.x.z.x.x.x.x.x.x.x.x.x.x.x.x.x.x.x.x.x.x.x.x.x.x.x.x.x.x.x.x.x.x.x.x.x.x.x.z.x.x.x.x.x.x.x.x.x.x.0.B & ; S ",
"  ` r.Z # $ a L I I I Y Y I I L I I L I L I L I I s.U.7XaXhXzXzXlXlXzXzXhXaXU.=.L I I I Y L I Y I I L I I L I I I I L : $ ; S ",
"  ` y.Z # 2 E ( ( ( ( ( ( ( ' ( ( ( / ( ' / ( ' <XlXvXvXbXbXbXbXbXbXbXbXbXbXxXtXa.( ( ( ( ( ( ' ( ( ( ( ( ' ( ( ' ( ' E , ; S ",
"  ] r.Z # a H X.X.X.X.X.X.X.X.X.X.X.X.6.H 7.4.+XcXbXbXbXbXbXbXbXbXbXbXbXbXvXvXvX6XX.X.X.X.X.X.X.X.X.X.X.X.X.X.X.X.X.X.G : ; S ",
"  ] r.Z # % r t p t t p t t t t t t t t t t j hXbXbXbXbXbXbXbXbXbXbXbXbXbXbXbXbXcXh.t t d t t t t t t t t t t t t t t r % & 1.",
"  ` r.Z # % r t u u t u i u i u i i i u i i p.vXbXbXbXbXbXbXbXbXbXbXbXbXbXbXbXbXvXhXp.r t y u i u i u i i i i u i u i r # : 8.",
"  ` r.Z # p A 5.8.8.8.8.8.8.8.8.8.8.8.8.8.3.qXvXbXbXbXbXbXbXbXbXbXbXbXbXbXbXbXbXbXbXsXi.5.8.8.8.8.8.8.8.8.8.8.8.8.8.5.Z y 8 B.",
"  ` r.C # p K S.F.F.F.F.D.F.F.F.S.F.F.F.F.B.gXbXbXbXbXbXbXbXbXbXbXbXbXbXbXbXbXbXbXvXlX'.B.`.F.F.F.F.F.F.F.F.F.F.F.F.M.J y 8 C.",
"  ` r.Z # t K B.F.F.F.F.F.F.F.F.F.F.F.F.F.'.xXbXbXbXbXbXbXbXbXbXbXbXbXbXbXbXbXbXbXbXxX.XB.F.F.F.F.F.F.F.F.F.F.F.F.F.M.J r 8 B.",
"  ] r.Z # t K B.F.F.F.S.S.F.S.S.D.D.F.D.F.XXvXbXbXbXbXbXbXbXbXbXbXbXbXbXbXbXbXbXbXbXcX}.B.F.F.D.D.D.D.D.D.D.D.F.F.F.M.J y 8 B.",
"  ` r.Z # t K S.S.B.M.M.M.y.y.y.y.i.M.C.F.+XbXbXbXbXbXbXbXbXbXbXbXbXbXbXbXbXbXbXbXbXcX.XB.D.B.i.i.y.y.i.y.i.i.M.S.F.M.J r 8 B.",
"  ` r.Z # p 2.B.M.e.K B g g g g g D 6.r.B.qXbXbXbXbXbXbXbXbXbXbXbXbXbXbXbXbXbXbXbXbXxX'.M.M.r.K B g g g g g D 2.r.B.M.J y 8 B.",
"  ] r.Z # t K M.| O.@., . . . . . a @.O.O.iXbXbXbXbXbXbXbXbXbXbXbXbXbXbXbXbXbXbXbXbXlXN.y.| O.@., . . . . . 1 @.O.O.N.J r 8 B.",
"  ` r.Z # t K M.a T ` *           < } I E hXbXbXbXbXbXbXbXbXbXbXbXbXbXbXbXbXbXbXbXbXhXC.t.3 T ` =           < @.I E N.J y 8 S.",
"  ` r.C # t K c.< Y ` *           < ` q Y gXbXbXbXbXbXbXbXbXbXbXbXbXbXbXbXbXbXbXbXbXhXS.q.< I ` =           < :.8 Y M.J r 8 B.",
"  ` r.Z # p K v.< Y :.> X X X X X 8 { I W iXbXbXbXbXbXbXbXbXbXbXbXbXbXbXbXbXbXbXbXbXsXC.c.> W ] > X X X X X 7 :.I Y M.J y 8 B.",
"  ` r.Z # t K N.*.<.k.*.0 0 0 0 0 -.I.-.;.6XvXbXbXbXbXbXbXbXbXbXbXbXbXbXbXbXbXbXbXbXhX/.t.e g.k.$.0 0 0 0 0 *.I.<.;.M.J r 8 B.",
"  ` r.Z # t K S.).:X2X$X#X#X$X#X#X;X2X;X^.rXcXbXbXbXbXbXbXbXbXbXbXbXbXbXbXbXbXbXbXbXhX'.C.|.<X2X;XW.W.#X#XW.;X2X:X^.N.J r 8 B.",
"  ] r.Z # t K S.1X3X3X3X3X3X3X3X3X3X3X3X}.rXvXbXbXbXbXbXbXbXbXbXbXbXbXbXbXbXbXbXbXbXsXN.`.OX2X2X3X3X3X3X3X3X3X3X3X{.M.F y 8 B."
};
