/* XPM */
static char *result[] = {
/* columns rows colors chars-per-pixel */
"64 64 235 2 ",
"   c #8F0035",
".  c #900035",
"X  c #940339",
"o  c #9B033D",
"O  c #9D0B42",
"+  c #9E1647",
"@  c #A60043",
"#  c #AB0147",
"$  c #AA0A49",
"%  c #B3014B",
"&  c #B9004E",
"*  c #B10C4E",
"=  c #A6114A",
"-  c #AA154D",
";  c #BB0452",
":  c #B50C51",
">  c #BA0B53",
",  c #AE1951",
"<  c #B11351",
"1  c #B31A55",
"2  c #B91858",
"3  c #BB1D5B",
"4  c #A22451",
"5  c #AB2155",
"6  c #AE2558",
"7  c #AD2B5A",
"8  c #B2255A",
"9  c #BB235D",
"0  c #A7315A",
"q  c #AB345D",
"w  c #BE2460",
"e  c #BE2B64",
"r  c #AD3962",
"t  c #B93666",
"y  c #C30155",
"u  c #C60758",
"i  c #CE015C",
"p  c #C50C5B",
"a  c #CB0C5F",
"s  c #D2015E",
"d  c #C4145D",
"f  c #C4195F",
"g  c #C0205F",
"h  c #CF0B60",
"j  c #D30560",
"k  c #DB0064",
"l  c #D30B63",
"z  c #DB0C68",
"x  c #CC1462",
"c  c #C51B61",
"v  c #CC1C65",
"b  c #CE1E68",
"n  c #D31266",
"m  c #DB146C",
"M  c #D31868",
"N  c #D21C6A",
"B  c #DA1B6D",
"V  c #DE1D71",
"C  c #E10067",
"Z  c #E30169",
"A  c #E9006D",
"S  c #E20B6C",
"D  c #E80D70",
"F  c #F10574",
"G  c #FF027B",
"H  c #F40D78",
"J  c #FD0C7D",
"K  c #E41471",
"L  c #EA1374",
"P  c #E31C73",
"I  c #EB1B77",
"U  c #EC1D7A",
"Y  c #F9147E",
"T  c #F41B7D",
"R  c #C32463",
"E  c #C92366",
"W  c #C42965",
"Q  c #C82867",
"!  c #CD2569",
"~  c #C52E69",
"^  c #CC2A6B",
"/  c #D4246D",
"(  c #DA216F",
")  c #D12B6E",
"_  c #C4376D",
"`  c #CC306D",
"'  c #D0306F",
"]  c #DD2472",
"[  c #D72872",
"{  c #D62D72",
"}  c #DC2B75",
"|  c #C73670",
" . c #CE3471",
".. c #C53D71",
"X. c #CC3B74",
"o. c #D43474",
"O. c #DA3276",
"+. c #D43B76",
"@. c #DD3479",
"#. c #D63C79",
"$. c #DC3B7B",
"%. c #E32376",
"&. c #E72278",
"*. c #EE257D",
"=. c #E52B7A",
"-. c #EB2A7E",
";. c #F1257F",
":. c #E4337D",
">. c #E6357E",
",. c #B7436C",
"<. c #BC5578",
"1. c #C54373",
"2. c #CB4176",
"3. c #CA4778",
"4. c #CC4B7B",
"5. c #D3427C",
"6. c #D5477E",
"7. c #C6567D",
"8. c #FF0E80",
"9. c #FE1682",
"0. c #FD1D84",
"q. c #EE2D81",
"w. c #F32380",
"e. c #FD2586",
"r. c #F32C84",
"t. c #FB2988",
"y. c #FE2C8B",
"u. c #E93781",
"i. c #ED3B86",
"p. c #F43487",
"a. c #FD368D",
"s. c #F03888",
"d. c #F53B8B",
"f. c #FA3C8E",
"g. c #FF3691",
"h. c #FE3C91",
"j. c #BF6480",
"k. c #CE4E80",
"l. c #D84681",
"z. c #D34D81",
"x. c #DB4D85",
"c. c #CE5581",
"v. c #C45D80",
"b. c #CE5C85",
"n. c #D35484",
"m. c #DB5186",
"M. c #D15C86",
"N. c #DD5489",
"B. c #DE5C8D",
"V. c #DF5C90",
"C. c #E34584",
"Z. c #E94486",
"A. c #E34A86",
"S. c #EE448B",
"D. c #EF4D8E",
"F. c #F3448D",
"G. c #F04D8E",
"H. c #E2588D",
"J. c #EB4B90",
"K. c #F64692",
"L. c #FE4393",
"P. c #F44B91",
"I. c #FF4C97",
"U. c #FF4499",
"Y. c #FF4E99",
"T. c #E65B92",
"R. c #F75294",
"E. c #F95396",
"W. c #F65799",
"Q. c #FF559B",
"!. c #FF599C",
"~. c #C96587",
"^. c #CD6B8B",
"/. c #D3648C",
"(. c #D26A8E",
"). c #C6718B",
"_. c #D76B91",
"`. c #DE6B96",
"'. c #CE7792",
"]. c #D27393",
"[. c #D77797",
"{. c #DD749A",
"}. c #D67D99",
"|. c #DC7D9C",
" X c #E26493",
".X c #E66B99",
"XX c #E3739B",
"oX c #E9739E",
"OX c #E17A9D",
"+X c #FF56A1",
"@X c #FF5CA3",
"#X c #FE62A4",
"$X c #FC6BA4",
"%X c #FF6BAA",
"&X c #E67BA1",
"*X c #EA7BA3",
"=X c #FD73AD",
"-X c #F679A8",
";X c #FC7AAE",
":X c #FF76B0",
">X c #FF7BB2",
",X c #CC8196",
"<X c #D4829B",
"1X c #DA829E",
"2X c #DA88A2",
"3X c #DC94A9",
"4X c #E382A2",
"5X c #E987A9",
"6X c #F386AE",
"7X c #E396AD",
"8X c #FD83B4",
"9X c #FC8BB6",
"0X c #FF8BB9",
"qX c #E998B1",
"wX c #FF93BB",
"eX c #F498B8",
"rX c #FE9DBE",
"tX c #DFA1B0",
"yX c #E3A3B4",
"uX c #E2A9B7",
"iX c #E6ADBB",
"pX c #E7B2BE",
"aX c #FF9DC3",
"sX c #FDAAC6",
"dX c #E8B6C0",
"fX c #ECBCC5",
"gX c #F6B8CA",
"hX c #EDC2C9",
"jX c #EFC9CD",
"kX c #F4CCD2",
"lX c #F6D5D7",
"zX c #F9DDDD",
"xX c #FAE1DF",
"cX c #FCE5E3",
"vX c #FFEBE7",
/* pixels */
"vXvXvXvXvXvXvXvXvXvXvXvXvXvXvXvXvXvXvXvXvXcXcXxXjXyX2Xt @ $ P h.L.T p @ o : ].tXdXxXcXvXvXvXvXvXvXvXvXvXvXvXvXvXvXvXvXvXvXvXvXvX",
"vXvXvXvXvXvXvXvXvXvXvXvXvXvXvXvXvXvXvXcXcXlXpX7X~.3 c B d - T.$XQ.I.w.p @ U x 2 t tXqXhXcXcXcXvXvXvXvXvXvXvXvXvXvXvXvXvXvXvXvXvX",
"vXvXvXvXvXvXvXvXvXvXvXvXvXvXvXvXcXcXlXdXuX}...R N K w.q.R 7 7XwX!.Q.P.Q = $.&.I P c w b.tXdXkXxXcXvXvXvXvXvXvXvXvXvXvXvXvXvXvXvX",
"vXvXvXvXvXvXvXvXvXvXvXvXvXcXcXcXfXdX3Xk.e ) V L q.u.u.t 7 q yXeX!.!.E.~ + 1.$.:.} I L ( e e [.uXdXzXcXcXvXvXvXvXvXvXvXvXvXvXvXvX",
"vXvXvXvXvXvXvXvXvXvXvXcXcXkXdXyX(... .B K P } q.) e k.].j.r yXaX!.!.R.` 7 3Xb.~ ` :.q.%.K m ) | k.3XdXfXzXcXvXvXvXvXvXvXvXvXvXvX",
"vXvXvXvXvXvXvXvXcXcXlXfXpX1Xc.X.[ m m q.q.@. .| l.V..X5X].0 qXaX!.!.W.` r sX&XT.x.| ~  .u.q.V m m X...(.tXdXjXzXcXvXvXvXvXvXvXvX",
"vXvXvXvXvXvXcXxXhXdX7Xb.4.{ M m V q.} / | c.x.V.oXaX>X;Xk.q qXaX!.!.E.^ 6 =X9X0X8XB.N.x.3.b } q.q.n z [ l.k.}.iXfXlXcXcXvXvXvXvX",
"vXvXvXcXcXkXfXpX].b.#.N n V =.-.o.#.+./ x.5X>XaX>X>X:X;Xn.q uXaX!.!.E.~ 7 9X=X;X8X0X0XqX[.m o.+. .q.q.V n l { k./.7XfXhXzXcXvXvX",
"vXcXlXhXfX2X/.c./ l M &.q.} {  . .n.V.d.%XsXaX#X=X>X%X9X[.q yXrX!.!.R.` r gX%X%X>X@X:XaXaX0.T./.#. . .{ -.q.V n N l.M.}.dXfXkXzX",
"cXlXyX(./. .x l V w.u.5.~ ~ ` o.Z.=X0XY.U.:X%Xg.@XsXwX6Xn.q yXrX!.!.W.~ 6 8X0XsXaX8.@X>X@X0.>X0XW.O. .^ ~ 2.$.q.w.n h b k.M.}.dX",
"jX3X4.h ; m *.*.[ ) X.~.7 ! S.K.p.K.@XU.g.=X0XY.g.:X>X=Xz.7 yXrX!.!.E.~ 8 =X>X>X@X8.0XaXY.g.+XW.s.F.I.O.3 <.c. .! q.w.V h h ) k.",
").| m U a b { ^ x h l.qXl.P q.@.M K p.Y.=X>X%Xg.e.h.W.9X}.r yXwX!.!.E.` r gX%Xh.y.8.+X:X>XQ.g.w.l ) u.=.{ qX`.b h b ~ ! h K V n ",
"  x =.! o , c x I w.S.`.s.0.w.) x V d.h.@X=XY.h.@X0X0X>Xc.q qXwX!.!.P.^ 6 9X0X0X:Xh.g.@X:Xg.U.q.x R =.0.e.`.H.r.w.l c 3 + 2 } q.",
"  3 ! y o ~ i.q.{ ' 2.^.J.L.I.U.e.e.y.0.h.:X8X8X0X0X8X=X6.6 XX;XQ.I.s.f 5 $X>X8X0X0X8X:X#X9.y.y.0.L.I.L.K./.k.| { =.p.o.* % x ! ",
"  1 B A @ 3 ^ o.^ 1 ,.3XeX@XL.a.g.h.U.g.=XsXaX>X>X%X@X9X,X- @.K.F.r.n * r kX%X+X>X:X>XaXaX0.U.U.a.g.a.Q.6XdX).6 w { { e $ j D / ",
"  ` p.F @ 1 Q v u.w r '.<XT.f.a.h.@X#Xg.+X>X%XU.=XsX9XeX,X= x O.#.N < O r jX8XwXsXy.@XaX:X9.+X%XU.a.y.P.{.3X,.8 { / b 3 $ j 0.d.",
"  o.a.F @ R :.=.O.2 7 7.1.:.F.K.d.L.L.a.a.%X0X+X#XgXeX3Xj.4 ,.M.~.c.<.r q 3X6XpXsX8.0X0XL.t.L.L.d.F.L.i. .^.,.1 ^ %.-.o.< s 0.L.",
"  +.a.F @ 9 o.[ M d X.1X2.] u.>.( P p.L.Y.>XeXW.J.3X2X'.~.v.|.4X4X4X4X^.<.'.1X3X2XF wXrX+XI.h.*.B O.i.=.) 1Xb.c v / { ~ * s 0.L.",
". o.a.F @ 1 E M ( V $.[.t / =.{ 2 v d.E.$X6X4Xx.l.].'.2X4XOXV.m.H.m.N..X4X4X}.'./.m XX7X-XW.I.} > E >.%.R ].H.=.V M ! w * j 0.L.",
"  o.f.F @ 9 } ] %.%.@.3.e o.F.u.f E Z.H.`.2X].M./.|.&X XV.x.{ v v M v #.B.`.XX4X{.z.^.}.|.H.D.O.f #.F.>.~ 1.+.O.] V %.^ * j 0.L.",
". +.a.F @ g :.} ' g R $.C.G.R.R.[ / 6.n.^.}.|.|.XX XN.o.v N V P P P P B v b x. X`.|.|.}.].b.x.o./ S.R.G.Z.$.Q 9 ^ } =.^ : s 0.L.",
". +.a.F @ < f b @.9 8 Z.E.G.A.A.5.5.M.[.|.{. X`.5.! N B K &.d.L.h.L.L.-.K V M v { T. X{.|.|./.4.5.l.H.D.E.!.~ 1 ^ / v 2 $ s 0.L.",
". o.a.F @ & C S F.~ 1 +.A.m.4.c._.|.|.XX.XN.{ v M K P r.h.L.Q.!.!.!.Q.I.L.h.&.m B b b #..XXX{.|.{.c.7.6.A.A.R 9 >.&.k i % s 0.L.",
". o.a.F @ a Y Y >.R 5 1.4./.[.|.OXoXT.o.v v m m -.h.L.Q.!.!.!.!.!.!.!.!.!.!.L.h.a.K m M v v N.XXXX1X4X_.7.4.7 8 O.w.Y S ; j 0.L.",
". o.a.F @ f =.>.5.t ,.].1XOXoXoX5.E v m m I p.h.I.!.!.!.!.!.!.!.!.!.!.!.!.!.!.!.Q.h.h.r.m z v v )  XoXOX1X1X<.t 1.>.-./ * s 0.L.",
". ' p.Z o 5 1.3.].1X4X4X*Xm.^ E M z K p.h.L.Q.!.!.!.!.!.!.!.!.!.!.!.!.!.!.!.!.!.!.!.!.I.h.h.I m z c E 5.oX*X5X1X}.b.2.t = i T a.",
". x V E 5 7.<X1X4X*X X' E M m m -.a.L.I.!.!.!.!.!.!.!.!.!.!.!.!.!.!.!.!.!.!.!.!.!.!.!.!.!.Q.L.a.p.V z M E E x.oX*X4X1X~.r 9 / P ",
". @ R ).).|.oX.X2.e f p u B &.-.i.S.D.D.D.D.D.G.D.D.D.D.G.G.G.G.D.D.D.D.D.D.D.D.G.D.D.G.D.D.D.G.F.-.-.P a i f 9 t B.*X|.].).3.9 ",
". o 8 7.7.7.X._ 1 = * p p f E ^ ~ ` ` ` ` ` ) ` ` ` ` ` ` ` ^ `  .^ ` ^ ` ` ` ^ ` ` ` ` ` ~ ` ` ` ^ ^ E d u > = - e X.2.7.v.,.1 ",
". 1 ) $.#.o.o.{ ) ! / [ [ ) { } { { { { { { { { { o.{ { { { { { { { o.{ o.{ { O.} { { { { O.{ { o.{ { ) [ [ ) / ^ { { o.#.#.o.^ ",
". f &.&.&.&.&.I %.&.&.&.&.U &.&.&.&.&.&.&.&.&.&.&.U &.&.&.&.&.&.&.&.&.&.&.&.&.&.&.&.&.&.&.&.I &.&.&.&.&.P &.&.&.&.&.&.&.&.&.&.&.",
". > n a a a l l a l l l a l l l l l l l l l l l l l l l l l l l l l l l l l l l l l l l l l l l l l l l l l l l l l l h h l l n ",
"  3 v u # & i s s l s l s l s l j s a l l s l j a l s l l s l j j l j l a j j j l s h l s l l s a s l a j l a j s l s y % & l v ",
"  ^ q.Z @ i D *.-.*.*.*.-.*.*.*.;.*.*.*.*.*.*.*.*.*.*.*.*.;.*.-.*.*.*.*.*.*.*.*.;.*.*.*.*.*.*.*.;.;.*.*.;.*.*.*.*.*.T j % i T i.",
"  o.a.F @ i T L.Y.I.I.I.I.I.I.Y.I.I.I.I.I.I.Y.I.I.I.I.I.I.I.I.I.I.I.I.I.I.Y.I.I.I.I.I.I.I.I.I.I.I.Y.I.I.I.I.I.Y.I.I.y.S & s 0.L.",
". o.a.F @ i 0.Y.!.!.!.!.!.!.!.!.!.!.!.!.!.!.!.!.!.Q.!.!.!.!.!.!.!.!.!.!.!.!.!.!.!.!.!.!.!.!.!.!.!.!.!.Q.!.!.!.!.!.!.a.S & s 0.L.",
". o.f.F @ i 0.I.!.!.!.!.!.!.!.!.!.!.!.!.!.!.!.!.!.!.!.!.!.!.!.!.!.!.!.!.!.!.!.!.!.!.!.!.!.!.!.!.!.!.!.!.!.!.!.!.!.!.a.S & s 0.L.",
"  +.a.F @ i T Q.!.!.!.!.!.!.!.!.!.!.!.!.!.!.!.!.!.!.!.!.!.!.!.!.!.!.!.!.!.!.!.!.!.!.!.!.!.!.!.!.!.!.!.!.!.!.!.!.!.Q.a.S & s 0.L.",
"  o.a.F @ i Y Q.!.!.!.!.!.!.!.!.!.!.!.!.!.!.!.!.!.!.!.!.!.!.!.!.!.!.!.!.!.!.!.!.!.!.!.!.!.!.!.!.!.!.!.!.!.!.!.!.!.!.g.S & s 0.L.",
". o.a.F @ i 0.Y.!.!.!.!.!.!.!.!.!.!.!.!.!.!.!.!.!.!.!.!.!.!.!.!.!.!.!.!.!.!.!.!.!.!.!.!.!.!.!.!.!.!.!.!.!.!.!.!.!.!.a.S & s 0.L.",
"  +.a.F @ i T Q.!.!.!.!.!.!.!.!.!.!.!.!.!.!.!.!.!.!.!.!.!.!.!.!.!.!.!.!.!.!.!.!.!.!.!.!.!.!.!.!.!.!.!.!.!.!.!.!.!.!.a.S & s 0.L.",
". o.a.F @ i T I.!.!.!.!.!.!.!.!.!.!.!.!.!.!.!.!.!.!.!.!.!.!.!.!.!.!.!.!.!.!.!.!.!.!.!.!.!.!.!.!.!.!.!.!.!.!.!.!.!.!.a.S & s 0.L.",
". +.a.F @ s e.I.!.!.!.!.!.!.!.!.!.!.!.!.!.!.!.!.!.!.!.!.!.!.!.!.!.!.!.!.!.!.!.!.!.!.!.!.!.!.!.!.!.!.!.!.!.!.!.!.!.!.g.S ; j 0.L.",
". o.a.F @ s T I.!.!.!.!.!.!.!.!.!.!.!.!.!.!.!.!.!.!.!.!.!.!.!.!.!.!.!.!.!.!.!.!.!.!.!.!.!.!.!.!.!.!.!.!.!.!.!.!.!.!.a.S & j 0.L.",
". o.a.F @ i I S.G.G.G.G.G.G.G.P.G.G.D.G.G.G.G.G.G.G.G.G.G.G.G.G.G.G.G.G.G.G.P.D.G.G.P.G.G.G.R.D.G.G.G.G.G.G.G.G.G.G.r.z & s 0.L.",
". +.a.F @ * d ^ ` ` ` ` ` ` ` ^ ` ` ` ^ ` ` ` ` ` ` ` ` ` ` ` ` ` ` ` ` ` ` ` ^ ` ` ` ^ ` ` ` ^ ` ` ` ` ` ` ` ` ^ ` E > # s 0.L.",
". o.a.F @ < E ) / ^ ^ ^ ^ ^ ^ ^ ^ ^ / ^ ^ ^ ^ ^ ^ / ^ ! ^ ^ ^ ! ^ ^ ! ^ ) ! ^ ^ ^ ^ ^ ^ ^ ^ ^ ^ ^ ^ ^ ^ ^ ^ ) ^ ^ ^ ! 3 * s 0.L.",
". +.a.F @ c -.r.r.r.r.r.r.r.r.r.r.r.r.r.r.r.r.r.r.r.r.r.p.w.r.r.r.r.r.r.r.r.r.r.r.r.r.r.r.r.r.r.r.r.r.r.r.r.w.r.r.r.r.B : j 0.L.",
". o.f.F @ & s j j k j k j j j k j k j s k s j j s s s s s s s s s s s s s s s s s s k j k s k j k j j k j k j j j k j y % s 0.L.",
". o.a.F @ # & ; & ; ; ; ; ; ; ; ; ; ; ; ; ; & % @ . X . X X X X X X X . X X . . o % & ; & ; & ; ; ; ; & ; ; ; ; ; & & % @ M t.a.",
". o.a.F @ i G 0.0.0.0.0.0.0.0.0.0.0.0.0.0.9.G C & . o = 1 1 1 1 1 1 1 1 1 1 o . o k F J 0.0.0.0.0.0.0.0.0.0.0.0.0.0.9.Z > o.h.9.",
". o.f.F @ s T I.!.!.!.Q.+XQ.!.Q.!.!.!.!.Q.h.L % . o 1 :.L.h.h.L.f.L.L.f.L.L.R = . . k e.Q.!.!.!.!.!.Q.!.Q.!.!.!.!.Q.a.S > o.h.9.",
". o.a.F @ i T Q.!.!.!.!.!.!.!.!.!.!.!.!.!.f.L & O g -.0.G J G J J G J G G J t.[ = . k e.Q.!.!.!.!.!.!.!.!.!.!.!.!.!.a.S > o.f.9.",
". o.a.F @ i 0.I.!.!.!.!.!.!.!.Q.Q.Q.!.!.!.L.L ; R i.0.Y Y 9.9.Y 9.9.9.0.9.Y Y U ~ X k e.Q.!.!.Q.!.Q.Q.Q.!.Q.Q.Q.!.Q.a.S > o.h.9.",
". o.a.F @ i T Q.!.I.L.L.h.K.L.L.L.L.L.Q.!.f.L ; ~ L.Y U >.:.:.:.:.:.:.:.>.>.H S : . k e.E.Q.I.L.L.L.L.L.L.K.L.I.Q.Q.a.S > o.g.9.",
". +.f.F @ s T I.I.a.w.L K K K K K U t.f.Q.h.L ; W d.T z d d d d d d d d d d A A y . k e.E.L.a.;.K K K K K K T y.L.Q.a.S > o.h.9.",
". o.a.F # s ;.L.-.;.=.> # # # # # v -.-.d.a.L y W f.Y A C C Z Z C C C C C C F Z & . k e.L.&.p.} : # # # # # / -.q.d.a.S ; o.h.9.",
". o.a.F @ s T F.f O.o.= . . . .   9 $.E O.f.K u W f.9.G G G G G G G G G G G G A y . k e.S.> :.o.o . . . . . ~ @.E u.a.S > o.h.9.",
". o.f.F @ s T L., ~ +.= . . . .   9 +.9 ` f.D ; W f.9.G G G G G G G G G G G G C y . k e.Z.o +.` o . . . . . W o.8 #.a.S > o.h.9.",
". o.a.F @ i T F.1 ` +.= X X X . X 9 #.9 ` f.L y W f.Y G G G G G G G G G G G G C & . k e.Z.= +.o.= X X . X X ~ +.9 $.a.S > o.h.9.",
". o.f.F @ s T P.t 6.m.q 4 4 4 4 4 1.m._ 5.f.L ; W L.Y G G G G G G G G G G G G Z y . s e.D.7 N.6.0 4 4 4 4 4 4.m._ l.a.S > o.h.9.",
". o.f.F @ i T E._.4X5X[.^.^.^.^.^.|.5XXX Xh.L ; W d.9.G J J J J J J J J J J G C & X C ;.W.(.5X5X].^.^.^.^.^.4X5X{.W.a.S : o.h.9.",
". o.a.F @ s T Q.9XrXrXrXrXrXrXrXrXrXrXwX=XL.L ; R L.0.Y w.w.w.w.*.w.;.;.;.;.J A y X C ;.$XwXrXrXrXrXrXrXrXrXrXrXwX$Xa.S > o.g.9.",
". o.a.F @ u T P.R.R.R.R.E.R.R.R.R.E.E.R.R.d.K & e d.Y P o.{ { o.{ { o.{ { { H k % X s ;.P.R.R.R.R.R.R.R.R.E.R.R.E.E.p.z : +.a.9."
};
