/* XPM */
static char *result[] = {
/* columns rows colors chars-per-pixel */
"60 64 242 2 ",
"   c #00004A",
".  c #00004B",
"X  c #00004C",
"o  c #000051",
"O  c #000052",
"+  c #000057",
"@  c #000058",
"#  c #000059",
"$  c #00005E",
"%  c #00005F",
"&  c #000060",
"*  c #000065",
"=  c #000066",
"-  c #000067",
";  c #00006C",
":  c #00006D",
">  c #000073",
",  c #000074",
"<  c #000079",
"1  c #00007A",
"2  c #00007B",
"3  c navy",
"4  c #000081",
"5  c #000086",
"6  c #000087",
"7  c #000088",
"8  c #00008C",
"9  c #00008D",
"0  c #000091",
"q  c #000092",
"w  c #000098",
"e  c #00009B",
"r  c #00009C",
"t  c #00009D",
"y  c #0000A1",
"u  c #0000A2",
"i  c #0000A4",
"p  c #0000A5",
"a  c #0000A6",
"s  c #0000A8",
"d  c #0000A9",
"f  c #0000AB",
"g  c #0000AC",
"h  c #0000AE",
"j  c #0000AF",
"k  c #0000B0",
"l  c #0000B1",
"z  c #0000B2",
"x  c #0000B3",
"c  c #0000B4",
"v  c #0000B6",
"b  c #0000B7",
"n  c #0000B8",
"m  c #0000BA",
"M  c #0000BC",
"N  c #0000BD",
"B  c #0000BE",
"V  c #0000BF",
"C  c #0000C0",
"Z  c #0000C1",
"A  c #0000C2",
"S  c #0000C3",
"D  c #0001C3",
"F  c #0002C3",
"G  c #0004C3",
"H  c #0006C3",
"J  c #0000C4",
"K  c #0001C4",
"L  c #0002C4",
"P  c #0004C4",
"I  c #0006C4",
"U  c #0008C3",
"Y  c #000AC3",
"T  c #000EC3",
"R  c #0008C4",
"E  c #000AC4",
"W  c #000CC4",
"Q  c #000EC4",
"!  c #0011C3",
"~  c #0013C3",
"^  c #0016C3",
"/  c #0011C4",
"(  c #0013C4",
")  c #0016C4",
"_  c #0019C3",
"`  c #001DC3",
"'  c #0019C4",
"]  c #001DC4",
"[  c #0020C3",
"{  c #0020C4",
"}  c #0028C3",
"|  c #0028C4",
" . c #0032C3",
".. c #0037C3",
"X. c #0031C4",
"o. c #0037C4",
"O. c #003DC3",
"+. c #003DC4",
"@. c #0044C3",
"#. c #0044C4",
"$. c #004BC3",
"%. c #004BC4",
"&. c #0053C3",
"*. c #0053C4",
"=. c #005AC3",
"-. c #005AC4",
";. c #0063C3",
":. c #006BC3",
">. c #0073C3",
",. c #007CC3",
"<. c #00D1B6",
"1. c #00DDB2",
"2. c #00DFB3",
"3. c #00D1B8",
"4. c #00D3B9",
"5. c #00DBBE",
"6. c #00DFBF",
"7. c #00EEAD",
"8. c #00FFA4",
"9. c #00FFA5",
"0. c #00FFA6",
"q. c #00FFA7",
"w. c #00F6AB",
"e. c #00F8AA",
"r. c #00FFA8",
"t. c #00FFA9",
"y. c #00FFAA",
"u. c #00FFAB",
"i. c #00FFAC",
"p. c #00FFAD",
"a. c #00FFAE",
"s. c #00FFAF",
"d. c #00E7B0",
"f. c #00E7B6",
"g. c #00E2BA",
"h. c #00ECBE",
"j. c #00F8B3",
"k. c #00FFB0",
"l. c #00FFB1",
"z. c #00FFB2",
"x. c #00FFB3",
"c. c #04FFB0",
"v. c #00FFB4",
"b. c #00FFB5",
"n. c #00FFB6",
"m. c #00FFB7",
"M. c #04FFB5",
"N. c #08FFB0",
"B. c #08FFB1",
"V. c #08FFB5",
"C. c #00F2BD",
"Z. c #00FFB8",
"A. c #00FFB9",
"S. c #00FFBB",
"D. c #00FFBC",
"F. c #00FFBD",
"G. c #00FFBE",
"H. c #00FEBF",
"J. c #11FFB2",
"K. c #16FFBA",
"L. c #1CFFBA",
"P. c #22FFB6",
"I. c #22FFB9",
"U. c #29FFBC",
"Y. c #31FFBB",
"T. c #3BFFBE",
"R. c #0084C3",
"E. c #008CC3",
"W. c #008CC4",
"Q. c #0094C3",
"!. c #0094C4",
"~. c #009BC3",
"^. c #009BC4",
"/. c #00A2C3",
"(. c #00A8C3",
"). c #00ADC3",
"_. c #00ADC4",
"`. c #00B1C3",
"'. c #00B5C3",
"]. c #00B1C4",
"[. c #00B5C4",
"{. c #00B9C3",
"}. c #00BCC3",
"|. c #00BEC3",
" X c #00C2C0",
".X c #00C0C3",
"XX c #00C1C3",
"oX c #00C2C3",
"OX c #00C3C3",
"+X c #00C4C2",
"@X c #00C4C3",
"#X c #00C0C4",
"$X c #00C1C4",
"%X c #00C2C4",
"&X c #00C3C4",
"*X c #00C4C4",
"=X c #00C5C4",
"-X c #00C7C4",
";X c #00CAC0",
":X c #00C8C4",
">X c #00CAC4",
",X c #00CCC4",
"<X c #00CFC4",
"1X c #00D1C1",
"2X c #00D1C4",
"3X c #00D3C4",
"4X c #00D5C4",
"5X c #00DBC2",
"6X c #00D8C4",
"7X c #00DBC4",
"8X c #00DDC4",
"9X c #00DFC4",
"0X c #00E2C4",
"qX c #00E4C4",
"wX c #00E7C4",
"eX c #00EEC1",
"rX c #00EEC2",
"tX c #00E9C4",
"yX c #00ECC4",
"uX c #00EEC4",
"iX c #00F0C3",
"pX c #00F2C2",
"aX c #00F2C3",
"sX c #00F0C4",
"dX c #00F2C4",
"fX c #00F4C4",
"gX c #00F6C4",
"hX c #00FAC2",
"jX c #00FFC0",
"kX c #00FFC1",
"lX c #00FCC2",
"zX c #00FCC3",
"xX c #00FEC2",
"cX c #00FFC2",
"vX c #00FFC3",
"bX c #00F8C4",
"nX c #00FAC4",
"mX c #00FCC4",
"MX c #00FEC4",
"NX c #00FFC4",
"BX c #6BFFC0",
"VX c None",
/* pixels */
"VXVXVXVXVXVXVXVXVXVXVXVXVXVXVXVXVXVXVXVXVXVXVXVXVXVXVXVXVXVXVXVXVXVXVXVXVXVXVXVXVXVXVXVXVXVXVXVXVXVXVXVXVXVXVXVXVXVXVXVX",
"VXVXVXVXVXVXVXVXVXVXVXVXVXVXVXVXVXVXVXVXVXVXVXVXVXVXVXVXVXVXVXVXVXVXVXVXVXVXVXVXVXVXVXVXVXVXVXVXVXVXVXVXVXVXVXVXVXVXVXVX",
"VXVXVXVXVXVXVXVXVXVXVXVXVXVXVXVXVXVXVXVXVXVXVXVXVXVXVXVXVXVXVXVXVXVXVXVXVXVXVXVXVXVXVXVXVXVXVXVXVXVXVXVXVXVXVXVXVXVXVXVX",
"VXVXVXVXVXVXVXVXVXVXVXVXVXVXVXVXVXVXVXVXVXVXVXVXVXVXVXVXVXVXVXVXVXVXVXVXVXVXVXVXVXVXVXVXVXVXVXVXVXVXVXVXVXVXVXVXVXVXVXVX",
"VXVXVXVXVXVXVXVXVXVXVXVXVXVXVXVXVXVXO @ @ @ @ @ @ @ @ @ @ @ @ @ @ @ @ @ @ @ @ @ VXVXVXVXVXVXVXVXVXVXVXVXVXVXVXVXVXVXVXVX",
"VXVXVXVXVXVXVXVXVXVXVXVXVXVXVXVXVX. . @ @ @ @ @ @ @ @ @ @ @ @ @ @ @ @ @ @ @ @ @ @ VXVXVXVXVXVXVXVXVXVXVXVXVXVXVXVXVXVXVX",
"VXVXVXVXVXVXVXVXVXVXVXVXVXVXVXVX9 9 9 9 9 9 9 q w r p p p p p r w q 9 9 9 9 9 6 5 VXVXVXVXVXVXVXVXVXVXVXVXVXVXVXVXVXVXVX",
"VXVXVXVXVXVXVXVXVXVXVXVXVXVXVXy k v m m m m M V A S J J J J J S A C M m m m m v c i VXVXVXVXVXVXVXVXVXVXVXVXVXVXVXVXVXVX",
"VXVXVXVXVXVXVXVXVXVXVXVXVXVX, p V S J J J J J J P | R.~.~.~.R.@.E J J J J J J J C z 3   VXVXVXVXVXVXVXVXVXVXVXVXVXVXVXVX",
"VXVXVXVXVXVXVXVXVXVXVXVXVX  , j S J J J J J J } ).XX2X7X7X7X2X#X|.$.H J J J J J J n 5 O . VXVXVXVXVXVXVXVXVXVXVXVXVXVXVX",
"VXVXVXVXVXVXVXVXVXVXVXVXo O , c J J [ O.O.O.$.}.#X0XNXNXNXNXNXuX*X@X>.O.O.O.O.G J M 4 O # VXVXVXVXVXVXVXVXVXVXVXVXVXVXVX",
"VXVXVXVXVXVXVXVXVXVXVXVXo O 1 n J [ `.oXoXoX@X#X2XsXNXNXNXNXNXbX6X$X*XoXoXoXoX$.J V 9 O # VXVXVXVXVXVXVXVXVXVXVXVXVXVXVX",
"VXVXVXVXVXVXVXVXVXVXVXVXo O 4 M J /.#X=X=X=X-X4XyXmXNXNXNXNXNXNXsX8X>X=X=X=X=X.XE A q O # VXVXVXVXVXVXVXVXVXVXVXVXVXVXVX",
"VXVXVXVXVXVXVXVXVXVXVXVXO + 9 C / OX0XfXdXsXsXbXNXNXNXNXNXNXNXNXNXnXdXsXdXfXgX#X@.S r @ & VXVXVXVXVXVXVXVXVXVXVXVXVXVXVX",
"VXVXVXVXVXVXVXVXVXVXVXVX2 4 d J ;.:XNXNXMXsX0XyXbXNXNXNXNXNXNXNXnXsXqXyXnXNXvX9X`.J n 4 4 VXVXVXVXVXVXVXVXVXVXVXVXVXVXVX",
"VXVXVXVXVXVXVXVXVXVXVXu j v S D %XrXD.jX7X$X`.@X=XtXNXNXNXNXNXdX,XoX|.@X,XxXA.jX$X_ J m c p VXVXVXVXVXVXVXVXVXVXVXVXVXVX",
"VXVXVXVXVXVXVXVXVX@ > d N S J #.XXx.u.Z.#X=.J { .X<XNXNXNXNXNX9XOX&.J ` &XC.r.s.1X^.J J Z c 7 o VXVXVXVXVXVXVXVXVXVXVXVX",
"VXVXVXVXVXVXVXVX% + , z S J Y #Xg.9.9.p.%XS v S o..XNXNXNXNXNX>XE.J M J W.f.q.8.j.oX} J J b q @ O VXVXVXVXVXVXVXVXVXVXVX",
"VXVXVXVXVXVXVXVXX + : v J J >..Xz.0.i.t.].J w N Q oXMXNXNXNXMX*X#.S p J #.2.l.y.y.;X_.Y J V w . # VXVXVXVXVXVXVXVXVXVXVX",
"VXVXVXVXVXVXVXVXX % , m J  .*X5Xp.q.a.r._.J q M W oXMXNXNXNXMX%Xo.A y J o.1.z.p.r.h.$X:.J Z w O O VXVXVXVXVXVXVXVXVXVXVX",
"VXVXVXVXVXVXVXVXX % 1 V J `.:XH.u.t.a.r._.J q M W oXMXNXNXNXMX%Xo.A y J o.1.z.a.0.S.6X@X/ S r O O VXVXVXVXVXVXVXVXVXVXVX",
"VXVXVXVXVXVXVXVXX % 4 Z ' XXgXF.t.u.s.r._.J q M W oXMXNXNXNXMX%Xo.A y J o.1.z.s.9.Z.vX-X=.J y O O VXVXVXVXVXVXVXVXVXVXVX",
"VXVXVXVXVXVXVXVXX % 4 A o.$XNXS.r.i.l.9. XF J J =.#XNXNXNXNXNX<X(.J J S {.w.M.c.9.n.vX6XQ.J p O O VXVXVXVXVXVXVXVXVXVXVX",
"VXVXVXVXVXVXVXVXX % 4 A +.%XNXS.r.i.V.0.d.+X{ !.%X7XNXNXNXNXNXtX#X[.+._.<.8.K.B.9.n.vX7XQ.J p O O VXVXVXVXVXVXVXVXVXVXVX",
"VXVXVXVXVXVXVXVXX % 4 A +.%XNXS.r.i.I.k.8.e.3.5.eXzXNXNXNXNXNXNXpX6.4.7.8.u.T.B.9.n.vX7XQ.J p O O VXVXVXVXVXVXVXVXVXVXVX",
"VXVXVXVXVXVXVXVXX % 4 A o.$XNXS.r.y.Y.U.M.p.q.0.x.jXNXNXNXNXNXcXZ.y.9.i.z.L.BXN.9.n.vX6XQ.J p O O VXVXVXVXVXVXVXVXVXVXVX",
"VXVXVXVXVXVXVXVXX % 4 Z ' XXgXG.p.9.N.P.P.P.J.8.p.G.NXNXNXNXNXkXx.9.a.P.P.P.P.q.t.S.NX-X=.J y O O VXVXVXVXVXVXVXVXVXVXVX",
"VXVXVXVXVXVXVXVXX % 1 V J `.-XaXS.p.9.8.8.8.9.i.Z.cXNXNXNXNXNXcXS.s.0.8.8.8.8.y.Z.lX3X@X/ S r O O VXVXVXVXVXVXVXVXVXVXVX",
"VXVXVXVXVXVXVXVXX % , m J  .*X=XiXF.m.v.v.v.b.S.jXvXNXNXNXNXNXNXkXF.m.v.v.v.v.S.hX<X&X:.J Z w O O VXVXVXVXVXVXVXVXVXVXVX",
"VXVXVXVXVXVXVXVXX + : v J J &.*X=XfXvXcXcXcXcXvXNXNXNXNXNXNXNXNXNXvXvXcXcXcXcXmX2X&XR.Y J V w . # VXVXVXVXVXVXVXVXVXVXVX",
"VXVXVXVXVXVXVXVX% + , z S J J @.|.#X4XwXyXdXbXbXbXbXbXbXbXbXbXbXbXbXgXdXuXtX9X*X@X:.U J J b q @ O VXVXVXVXVXVXVXVXVXVXVX",
"VXVXVXVXVXVXVXVXVX@ > d N S J J R +.~..XOX#X*X=X=X=X=X=X=X=X=X=X=X=X=X#XOXOX(.&.Q J J J Z c 7 o VXVXVXVXVXVXVXVXVXVXVXVX",
"VXVXVXVXVXVXVXVXVXVXVXu j v M C A S J K [ R..XOXOXOXOXOXOXOXOXOXOXOX.X~.O.R J J S C V m c p VXVXVXVXVXVXVXVXVXVXVXVXVXVX",
"VXVXVXVXVXVXVXVXVXVXVXVX2 4 8 q q w g V J K  .O.O.O.O.O.O.O.O.O.O.O...Y J A g r w q 4 4 4 VXVXVXVXVXVXVXVXVXVXVXVXVXVXVX",
"VXVXVXVXVXVXVXVXVXVXVXVX3 9 q r y p c Z J I O.&.&.&.&.&.&.&.&.&.&.&.$.! J S v p y r q 9 6 VXVXVXVXVXVXVXVXVXVXVXVXVXVXVX",
"VXVXVXVXVXVXVXVXVXVXVXt j v M C S S J L } R..XOXOXOXOXOXOXOXOXOXOXOX.X/...R J J S C M v c p VXVXVXVXVXVXVXVXVXVXVXVXVXVX",
"VXVXVXVXVXVXVXVXVX$ * f N A J J R ..Q.|.@X#X*X=X=X=X=X=X=X=X=X=X=X=X=X#XoXOX).&./ J J J Z c 7 o VXVXVXVXVXVXVXVXVXVXVXVX",
"VXVXVXVXVXVXVXVXO O , j S J K O.}.#X4XqXyXdXgXbXbXbXbXbXbXbXbXbXbXbXgXfXuXtX0X*X@X:.Y J J b 9 @   VXVXVXVXVXVXVXVXVXVXVX",
"VXVXVXVXVXVXVXVX4 6 r B J L $.{.$X<XyXbXMXNXNXNXNXNXNXNXNXNXNXNXNXNXNXNXNXnXdX6X#XoX>.T J A z 6 6 VXVXVXVXVXVXVXVXVXVXVX",
"VXVXVXVXVXVXVXr l n V J L ;..X&X$X#X:X7XuXMXNXNXNXNXNXNXNXNXNXNXNXNXNXNXdX9X>X$X#X&X@XQ.Q J S n c s VXVXVXVXVXVXVXVXVXVX",
"VXVXVXVXVX  < j C J J P ;.@X#X#X%X*X*X#X3XdXNXNXNXNXNXNXNXNXNXNXNXNXNXnX7X$X*X*X%X#X$X%XQ.! J J Z b 9 + VXVXVXVXVXVXVXVX",
"VXVXVXVX@ @ 4 c A J G ;.@X,X0X>X%X).E..X$XwXNXNXNXNXNXNXNXNXNXNXNXNXNXdX-X@X>.~.*X%X9X7X%XQ.! J J m 9 % . VXVXVXVXVXVXVX",
"VXVXVXVXO O 4 n J K ;.@X=XsXbX<X@XO.~ ;.&X6XNXNXNXNXNXNXNXNXNXNXNXNXNXtX#XQ.Y } {.%XdXbX,X&XQ.T J V q % @ VXVXVXVXVXVXVX",
"VXVXVXVXO O 6 N J O.*X#X6XbXgX*X/.P J Q }.,XNXNXNXNXNXNXNXNXNXNXNXNXNX9X@X} J J ;.$XuXNX0X=X&XR.J A r % @ VXVXVXVXVXVXVX",
"VXVXVXVXO O q C P {.>X8XsXNXfX.X@.J S J ,.%XNXNXNXNXNXNXNXNXNXNXNXNXNX4X'.K A J ) @XwXNXfX0X,X@X] S y = @ VXVXVXVXVXVXVX",
"VXVXVXVXO O w S | .XgXmXNXNXuXOX( Z n S o..XNXNXNXNXNXNXNXNXNXNXNXNXNX<XE.J j N J }.8XNXNXmXfX>X>.J p = @ VXVXVXVXVXVXVX",
"VXVXVXVXO O w S -.-XNXNXgXtX:X{.R Z m J $.XXNXNXNXMXbXbXbXbXbXmXNXNXNX2X/.J v N J R..XwXdXmXNXqX).J d = @ VXVXVXVXVXVXVX",
"VXVXVXVXO O w S -.-XNX0X$X@XQ.o.Q J J | @X2XNXmXuX7X:X=X=X=X:X3XwXnXNXqXoX;.J J R | >..X.X6XgXqX).J d = @ VXVXVXVXVXVXVX",
"VXVXVXVXO O w S -.-XMX*X'./ J J ( %.).OX-XyXNXdX3X#X*XOXOXOX*X$X>XtXNXgX2XXX{.;.] P J L E..XwXqX).J d = @ VXVXVXVXVXVXVX",
"VXVXVXVXO O w S -.=XbXOX) Z n S ] @X2XuXbXNXNXwX$X.X=.O.O.O.=.`.#X7XNXNXnXsXqXXX*.J m M K }.6XqX).J d = @ VXVXVXVXVXVXVX",
"VXVXVXVX@ @ q A ` @X*X:.J j r C Q @X7XsXdXfXsX=XOX@.K J J J D [ '.#X0XfXdXsXsX.Xo.S p r S | OX.X;.J d : @ VXVXVXVXVXVXVX",
"VXVXVXVXVX  9 V J X.=.J C r q M J /.#X=X=X=X%XOX@.J J J J J J J } '.#X=X=X=X=X.XE A r 6 m J ] =.L A a , VXVXVXVXVXVXVXVX",
"VXVXVXVXVXVXVXb V S J N g 4 4 n J [ `.oXoXoX|.@.J J V M M M N S J [ (.oXoXoXoX$.J V q , y m A J Z M VXVXVXVXVXVXVXVXVXVX",
"VXVXVXVXVXVXVXVXe r r 6 1 = 1 c J J [ O.O.O. .J J M w 6 6 6 w c S J ^ O.O.O.O.G J M 6 @ , 6 q w q VXVXVXVXVXVXVXVXVXVXVX",
"VXVXVXVXVXVXVXVX& @ = @ @ O , j S J J J J J J J A j ; @ @ @ ; p Z J J J J J J J J n 4 @ @ @ @ % + VXVXVXVXVXVXVXVXVXVXVX",
"VXVXVXVXVXVXVXVXVX$ @ @ @ @ ; p V S J J J J J S N y - @ @ @ - r m A J J J J J J C z 3 @ @ @ @ o VXVXVXVXVXVXVXVXVXVXVXVX",
"VXVXVXVXVXVXVXVXVXVXVXVXVXVXVXy k v m m m m m x h w VXVXVXVXVX0 d v n m m m m v c i VXVXVXVXVXVXVXVXVXVXVXVXVXVXVXVXVXVX",
"VXVXVXVXVXVXVXVXVXVXVXVXVXVXVXVX9 9 9 9 9 9 9 6 5 VXVXVXVXVXVXVX3 5 9 9 9 9 9 6 5 VXVXVXVXVXVXVXVXVXVXVXVXVXVXVXVXVXVXVX",
"VXVXVXVXVXVXVXVXVXVXVXVXVXVXVXVXVX. . @ @ @ o @ VXVXVXVXVXVXVXVXVXO O @ @ @ @ @ @ VXVXVXVXVXVXVXVXVXVXVXVXVXVXVXVXVXVXVX",
"VXVXVXVXVXVXVXVXVXVXVXVXVXVXVXVXVXVXO @ @ @ o VXVXVXVXVXVXVXVXVXVXVX@ @ @ @ @ @ VXVXVXVXVXVXVXVXVXVXVXVXVXVXVXVXVXVXVXVX",
"VXVXVXVXVXVXVXVXVXVXVXVXVXVXVXVXVXVXVXVXVXVXVXVXVXVXVXVXVXVXVXVXVXVXVXVXVXVXVXVXVXVXVXVXVXVXVXVXVXVXVXVXVXVXVXVXVXVXVXVX",
"VXVXVXVXVXVXVXVXVXVXVXVXVXVXVXVXVXVXVXVXVXVXVXVXVXVXVXVXVXVXVXVXVXVXVXVXVXVXVXVXVXVXVXVXVXVXVXVXVXVXVXVXVXVXVXVXVXVXVXVX",
"VXVXVXVXVXVXVXVXVXVXVXVXVXVXVXVXVXVXVXVXVXVXVXVXVXVXVXVXVXVXVXVXVXVXVXVXVXVXVXVXVXVXVXVXVXVXVXVXVXVXVXVXVXVXVXVXVXVXVXVX",
"VXVXVXVXVXVXVXVXVXVXVXVXVXVXVXVXVXVXVXVXVXVXVXVXVXVXVXVXVXVXVXVXVXVXVXVXVXVXVXVXVXVXVXVXVXVXVXVXVXVXVXVXVXVXVXVXVXVXVXVX"
};
