/* XPM */
static char *_cbd9f39c1784576ba90a3e5a146167c5qaWahj9fyz4dVY2[] = {
/* columns rows colors chars-per-pixel */
"64 64 214 2 ",
"   c #04151F",
".  c #061720",
"X  c #071921",
"o  c #091D23",
"O  c #0C2226",
"+  c #0D2628",
"@  c #0F292A",
"#  c #112527",
"$  c #12252A",
"%  c #162B2A",
"&  c #122D2C",
"*  c #14312E",
"=  c #1B332D",
"-  c #1F382F",
";  c #1B2E31",
":  c #153431",
">  c #1B3232",
",  c #173934",
"<  c #1A3C35",
"1  c #1B3F38",
"2  c #20392F",
"3  c #213335",
"4  c #223D31",
"5  c #25393A",
"6  c #2B3E3E",
"7  c #1E4137",
"8  c #1C433A",
"9  c #1F493D",
"0  c #244334",
"q  c #2A4635",
"w  c #2B4937",
"e  c #234639",
"r  c #29413D",
"t  c #224B3E",
"y  c #2C4D39",
"u  c #314C3C",
"i  c #2E513C",
"p  c #33543B",
"a  c #375A3F",
"s  c #3A5C3E",
"d  c #2D4340",
"f  c #234E41",
"g  c #294B42",
"h  c #344745",
"j  c #354A46",
"k  c #394B49",
"l  c #255444",
"z  c #295344",
"x  c #275847",
"c  c #295A46",
"v  c #2A5C49",
"b  c #385947",
"n  c #3C534C",
"m  c #3F5A51",
"M  c #2D644D",
"N  c #3D6242",
"B  c #356348",
"V  c #33654B",
"C  c #33694E",
"Z  c #3A6C4D",
"A  c #3E714F",
"S  c #2F6750",
"D  c #376652",
"F  c #346C51",
"G  c #396F54",
"H  c #3A7353",
"J  c #3B7353",
"K  c #3E7359",
"L  c #43594E",
"P  c #435651",
"I  c #465A54",
"U  c #4A5E56",
"Y  c #416543",
"T  c #456B46",
"R  c #486E47",
"E  c #45674C",
"W  c #44714B",
"Q  c #4B744A",
"!  c #4E794C",
"~  c #517A4C",
"^  c #4C6559",
"/  c #52665D",
"(  c #52695A",
")  c #427651",
"_  c #447C56",
"`  c #4C7D52",
"'  c #45795D",
"]  c #557A55",
"[  c #566B60",
"{  c #5A6E63",
"}  c #487B61",
"|  c #5B7567",
" . c #617569",
".. c #647A6C",
"X. c #6B7F71",
"o. c #478057",
"O. c #4A8156",
"+. c #478058",
"@. c #4C8459",
"#. c #4F885A",
"$. c #548453",
"%. c #5A8552",
"&. c #5C8A55",
"*. c #538B5B",
"=. c #558A59",
"-. c #57905C",
";. c #5C945D",
":. c #5F985E",
">. c #618E56",
",. c #639257",
"<. c #64945A",
"1. c #639A5E",
"2. c #6A9C5C",
"3. c #6EA15E",
"4. c #71A35F",
"5. c #568769",
"6. c #5A886C",
"7. c #5D9364",
"8. c #6C8E67",
"9. c #649D61",
"0. c #699966",
"q. c #669B69",
"w. c #698773",
"e. c #758C78",
"r. c #699676",
"t. c #6C997A",
"y. c #78967C",
"u. c #67A062",
"i. c #6BA462",
"p. c #6FA963",
"a. c #6FA46C",
"s. c #72A661",
"d. c #73AC64",
"f. c #78AE63",
"g. c #75AC6B",
"h. c #77B166",
"j. c #7BB466",
"k. c #7CB569",
"l. c #7EB969",
"z. c #6EA073",
"x. c #77A879",
"c. c #7EB274",
"v. c #83BD6B",
"b. c #85BB72",
"n. c #87BA78",
"m. c #86C06C",
"M. c #89C26E",
"N. c #8CC473",
"B. c #8FC37A",
"V. c #92C67C",
"C. c #92C878",
"Z. c #94C97C",
"A. c #7E9381",
"S. c #7BA684",
"D. c #849B85",
"F. c #869C87",
"G. c #8DA38C",
"H. c #86AB89",
"J. c #90A68F",
"K. c #93AE8D",
"L. c #8AB886",
"P. c #97B38F",
"I. c #91A790",
"U. c #94AA92",
"Y. c #98AF95",
"T. c #8DB591",
"R. c #96B997",
"E. c #9DB499",
"W. c #A2B89D",
"Q. c #A7BEA1",
"!. c #94C484",
"~. c #9ACC83",
"^. c #99C788",
"/. c #9FD086",
"(. c #9CC19C",
"). c #A2CE8E",
"_. c #A3D28B",
"`. c #A4C998",
"'. c #AAD693",
"]. c #AAD595",
"[. c #ACD49B",
"{. c #B2DB9C",
"}. c #ACC3A6",
"|. c #B0C7A8",
" X c #B5CCAC",
".X c #ACD0A4",
"XX c #B6DDA2",
"oX c #B8DEA4",
"OX c #B2D2AB",
"+X c #BBD3B2",
"@X c #BDDBB4",
"#X c #BBE1A6",
"$X c #BEE1AC",
"%X c #C1DCB6",
"&X c #C5DDB9",
"*X c #C8DFBB",
"=X c #C1E4AD",
"-X c #C4E8AF",
";X c #C4E6B2",
":X c #C7E7B6",
">X c #C9E9B6",
",X c #CAE4BD",
"<X c #CCEBBA",
"1X c #D0EEBE",
"2X c #CFE6C1",
"3X c #CFEAC2",
"4X c #D3ECC4",
"5X c #D7EFC8",
"6X c #D5F1C3",
"7X c #DAF4C8",
"8X c #DEF6CD",
"9X c #E0F7CF",
"0X c #E0F8CF",
"qX c #E3FBD1",
/* pixels */
"0X0X0X0X0X0X0XqX8X8XqX8X8X9XqX4X}.F.( p 0 : + X > p p p 0 o O : & O O & 7 y p p N e.U.J.J.G.U.%X5X9X9X9X8X8XqXqX8X9X8XqX8X8X8X9X",
"0X0X0X0X0X0X8X8XqX8X8X8X0X8XqX&X..0 %.3.O.c , + N 3.h.4.R % & i 9 O @ 9 Z 1.f.f.2.b > 3 3 ; d G.4XqX9X9X8XqX8X8X8XqX8XqX9XqX9X9X",
"0X0X0X0X9X0X0X8X8X8XqX2X}.Y.Y.F.m < &.v.x.r.| ( z._.Z.M.,.s b O.Z 8 , 9 B -.4.v.d.R y N P 5 <  .I.%X7X9X8X9X8X8X8XqX8X8X9X9X9X9X",
"0X0X0X0X8X8XqX8X8X8XqX X{ 6 6 d g C 1.b.].@X+X+X%X<X{.N.j.4.4.d.;.S 9 * , V #.p.v.s.g.(.}.w.c t h F.5XqX8X8XqXqXqX8X8XqX0XqX9X9X",
"0X0X8X9X8X8X8X8XqX2X|.y.k + X O 9 K 9.N.'.-X6X8X,X X^.b.m.M.C._.n.7.Z 8 , x J ;.p.l.N.XX@XT.6.x > { E.+X5XqX8X9X0X0X0X0X0X0X0X0X",
"0X0XqX8X8XqX8XqXqX X[ r x f @ O 9 H 9.v.N.~.#X6XR.5.q.v.m.v.~.>XXXm.;.F v M C F +.p.m.N.~..XOXA.v g j D.2XqX8X8X9X0X9X0X0X0X0X0X",
"0X0X0XqX8X8XqX2X XF.h : Z J i y J 7.g.m.m.M.'.$XL._ ;.v.N.Z.].;XXXZ.i._ C J o.J #.p.m.m.N.#X3XS.G , $ ..*XqXqX8X8X0X9X0X0X0X0X9X",
"0X0X8X8X9X8XqX}.[ j z Z ;.s.2.0.(.OX!.v.v.M.C.Z.b.d.l.v._.-X#X_.Z.m.p._ H 3.p.h.d.l.m.m.N.#X3XS.G < ; X.2XqXqXqX0X8X0X0X9X9X0X0X",
"0X0X8X9X8X8XqXE.6 @ V *.h.M.Z._.>X7X{./.~.~.B.m.m.m.N.~.{.;X[.k.p.p.:.J _ p.N.Z.~.~.~.~.~..X.XS.F < $ / W.|.Q.%X5X0X8X9X8X8XqX8X",
"0X9X9X9X8XqXqXW.6 = $.d.j.C.{.>X6X7X3X-X-X$X_.M.m.m._.$X#X_.c.#.o.o._ F _ d.C.{.-X>X-X>X@XS.6.+.S 7 o 3 k P P y.3XqX8X8XqX8X8XqX",
"9X8X9X8X8X2X%XF.r q 2.N.N._.>X0X8X8X6X3X6X>X'.N.m.m._.>X{.N.i.+.J H J J #.u.n.[.2X4X7X3XOXS.S v x 1 @ % ; = = ( }.,X5XqX8X8X9X9X",
"0X0X9XqXqX}.| n g Z i.Z.XX>X7XqXqX6X#X/././.Z.m.m.m.B.~.Z.M.j.p.p.p.i.p.7.#.@.6.S.@X6XR.6.} M 8 : < z T &.>.,.] I y.&XqX9X8X9X9X",
"9X0X8X5X,XD.6 * M #.d.~.$X7X6X6X6X>X_.m.l.l.l.v.m.m.m.v.m.m.m.m.m.m.M.C.k.@.C C } R.@Xr.M S M 8 + 7 M @.d.v.m.%.$ U +XqX8X8X8X8X",
"8X8X0X}...m z B ;.p.k.N.~._._._.'./.C.m.9.*.u.v.m.v.m.m.m.m.v.m.m.v.Z.{.[.c.:.J K 6.r.K S S M l 9 < , c O.u.v.%.% / +XqX8XqX8XqX",
"8X9X0XJ.; & v _ p.l.v.v.m.v.m.v.l.k.l.h.*.K :.v.m.m.l.k.l.v.m.m.m.N.'.<X>X!.p.o.S F H H S K ' ' ' g % < c O.s.~ $ U Q.2X7X8X8X8X",
"qXqXqXU.3 * v J O.;.j.m.m.m.m.l.1.#.#.*.-.3.d.v.m.m.p.*.u.l.m.m.Z.{.;X7X@Xz.o.J F *.7.K H t.(.(.R.6.t , : 0 p 0 o 3 U D.*XqXqX8X",
"2X,X,XF.3 & z M C _ i.v.v.m.m.h.*.J J J u.l.m.m.m.v.:.H #.h.l.v./.<X7X6XOX5.F F _ p.j.#.} R.6X8X3XT.K z > $ + o X X X U +XqX8X9X",
"w. . .P $ o : 8 v F O.:.h.m.m.l.p.:.:.1.h.m.m.m.m.v.:.H H #.3.l./.<X6X#X!.+.H #.9.h.v.i.a..X7XqX8X+XR.J.A.| f : o X   I +XqXqX8X",
"3 o $ # O O O > v J G @.g.N.m.m.m.v.v.l.l.l.l.m.m.v.9.H F J 5.j./.$X$X!.p._ H p.m.m.m.l.m.XX7X7X5X7X7X8X4XR.K f $ O o I  X5X5XqX",
"# = Y R R T T ! =.q.S.R.`.'.C.m.m.m.m.m.p.:.p.v.m.v.p.7.z.S.x.7.z.S.S.q.@.H _ 3.m.m.v.i.7.L.{.{.XX<X9X0X8X[.q.$.W T R ] X.F.&XqX",
"o s s.l.j.h.f.j.v.^.;X5X5X<X~.l.l.l.l.j.*.J :.l.M.N.M.m./.>X(.@.J J F F F S J 3.v.m.l.#.K u.m.m.b.[.3X4X4X.Xv.h.l.l.j.%.3 P }.9X",
"o s l.k.1.=.! <./.#X4XqXqX,Xn.;.:.:.7.;.K H -.m.~.].{.{.XX#X^.7.+.J S S S S H #.9.h.l.u.-.-.:.-.7.x.T.T.T.x.q.i.v.h.u.W % j }.qX",
"o s f.9.J z % U OX7X7X8X8X@Xr.F H H H F S H ;.m.].3X6X3XoXB.v.l.u.H S S C S F F _ i.m.v.h.*.J J J K ' K K J F *.j.u._ l O k }.0X",
"# 4 Q N t : X I +XqXqX7X-X(.5.F o.#.H S M G z.].XX#X#X#X^.u.:.1.#.H H @.-.*.@.J J u.m.m.l.1.7.z.t.} 8 7 8 9 8 B -.#.J l O k }.qX",
";   # # O o X I OX8X7X>X_.k.@.J 9.g.#.G S K S.@XXXN.N.N.u.K H F F F @.a.l.l.p.+.J i.m.m.m.l.l..X%Xe.; O # # O < V C C l O k }.8X",
";       X O & ^ `.$X$X{.Z.d._ ' c./.H.t.} H S.T.S.p.9.9.#.H H @.#.#.u.!.'.'.!.u.#.:.u.h.m.m.M.'.{.H.{ / / I p y t 9 t t i E y.J.",
";     o   * l O.k.C.N.N.M.j._ } (.6X3X@XS.S H ' K H H H H S @.p.k.j.!.$X6X6X$X^.p.#.K i.m.m.m.M.C.[.&X*X&X`.v.Q = o O y 2.,.u 3 ",
";     % w i t B ;.p.l.l.s.;.V D R.qXqX7XT.@.H M J +.@.+.J S _ 3.h.l._.>XqXqX3X_.h.#.F #.u.u.u.3.s.L.=X1X9X`.<.T < + X = Q ] ^ / ",
";     q <.~ - < V *.h.d.*.C < r U.qXqX7X/.g.*.H -.d.h.h.-.H C H *.h./.>X8X8X<X_.h.@.S J J J J J _ i.V.oX4XG.r < z e # # % L U.%X",
"p q w T 1.! * @ x J ;.;.B z n ( P.;X;X#X!.p.7.r.S.~.Z.m.p.#.H S o.h.~.{.<X7X;X!.:._ C C M x l f z ) i.^.oXe.$ + t < O     k }.9X",
"2.4.4.,._ z O * c F J V , d G. X/.!.~.B.7.+.H.@X<X3X{.N.l.h.7.H @.h.N.C.'.<X@Xt.J F M F M 8 % + % t ) q.b.%.# X O O       k }.qX",
">.f.v.0.J f : : t x x 8 O 5 K.-X/.l.h.i.' J A.}.$X>X'.N.k.d.-.M C &.s.k.C.#X.X6.M S M v f * X . X : z #.h.&.w % o .   # 2 L G.|.",
"4 ! l.u.G M x e * % @ O   - 0.~.N.v.;._ J C b n 8.Z.C.m.i.@.v : * - Y 4.M.Z.n.#.S S M < + o     X O * W j.h.2.T O     0 %.>.L k ",
"  s h.u.J v c 8 o O = 4 % < ! 2.p.u._ M x l 8 0 ! k.j.p.-.J t & O   4 ~ 2.p.9._ M v l e 5 y j 5 & o O a 1.h.d.$.- O   q 4.2.4   ",
"o N l.i.G l , + X = Q $.N f e y Z _ J M 7 : N ,.d.v.p.@.J C M l 8 O O - i Z _ F v < > Q 2.H.E.| z : o e A o.o.J l < O q 4.2.4   ",
"o p <.$.M 8 O o & i 1.u._ c * o 8 x c c 8 4 R 2.p.d.-.F M C M v t * O   @ z S F v @ % ! b.[.=XS.F t 4 e l M M C J x O 0 >.>.b 6 ",
"% % q 4 * @ X - ~ &.@._ F x : X O * & > N &.R i N +.H F S S x : : 9 7 O % l S S c * O c *.c.!.q.G ` %.N : 8 M o.2.Q % $ 4 E F.W.",
";   % # X X O w ,.2._ F M f @ . X X o & Q p.N O < l v v v v 7 o * V c % + f M v l & o 8 V =.i.*.F *.d.! 4 8 x ) 2.~ % $ ; /  X8X",
"; 4 ~ Y O @ 8 t p Y ;.=.i * O X   O : t Z _ y O + * : : : : % X 0 &.! , o @ * : * o X & 1 B O.J F J @.$.%.N < 5 p 5 o 6 y.W.,X8X",
"= p v.&.= : z t o = >.&.4 . X X O @ t C M x , o X X   X X O o X 0 ,.%.< X o O X . . X . o 1 c M S F J =.3.T O . X     P %XqX9X0X",
"3 s v.<.z 7 , & X + y y + X X o : 9 v M 9 * O o . X . . @ 8 : X % y w # O < 8 + . . . . o $ < l C O.;.$.b 4 o X   o   I  XqX8X9X",
"; p s.<.V 8 @ X o o o o X X X + 9 C M M 8 @ O X X . o O < M l O   o o o & l x & O O O o o . o 8 M =.3.T % X X X o o . I +XqX8X8X",
"; = s p < & o + < , O     O : t v S S C W R q o . . @ 7 V -.T O     O , t M M t t T T < X . o % > y a 4 o   . + 8 : o P +XqX9X8X",
";     o O o X @ l f * X X O t M C F F J ;.3.N O o O < M *.h.&.= O X & l C S S S J 2.2.y   X   X . o X o O X . * c g = / +XqX8X9X",
";   X O , : o O : 7 7 , + o : y ) ;.;.;.! R i 8 7 7 f C #.l.4.~ p # & x S S J #.;.! s =   o o   . . X @ < * X + , m ..I.2X9X8X8X",
";   o - M t @ X o @ l t & X   = ~ j.j.3.N * 7 v M V S F =.j.v.f.%.= & l S C J 3.<.y # o X X   o X X O < x 7 o X X ^ |.8X8X8X8X8X",
"; O < v *.) t : o O < : O     # i R R T i 7 < 8 Z *.;.;.i.v.4.Q b e 7 7 t O.&.! s =     X   o   X @ < 8 1 & X . . / +XqX8X9X0X0X",
"; : v O.d.9.Z 9 + X o o X       O # O @ 9 x < % R s.j.j.j.v.%.= = l t @ 0 ;.2.y + o   X X   o   o , l 8 + o X X X / +XqX8X8X8X9X",
"> e @.3.v.u.J v 8 * o X .   X X . . . X * 8 * o e Q ~ ! ! ! p # O < , O % Y Y =   . X . . . X . X & 8 8 , @ X X X [ +XqX9X9X9X9X",
"; p p.l.v.1.J M M t @ X X X X X X X X X o o X X o $ # # O $ O . X o o o   O O o X X . X X X X X . o O < x 1 o X X [ +XqX9X9X9X9X",
"= i :.u.u.O.c 9 t 8 < : : & O X @ * : * + . . . . . . . . . . .   X   o       X X X X X X X . + * + X * 9 , o 3 U F.&XqX8X9X9X9X",
"; < C J J z * O O & l v M l @ O 9 v M x : X . X . . . . X X . . X X   o   o X X . . . . . . o 7 x 1 X X o X . U |.4X5X9X9X9X0X0X",
" .n f 8 f , o o @ < x M l 8 + O , f f 9 * X . X + : @ X O : * X   o . X     O & & O o 5 a p p B M f : + o 5 U F.4XqX8X9X0X0X0X0X",
"+Xe.> o O o . @ l M M x : o X . o + O O X X . o , x 8 o * z 8 o   X X   o   O 9 l @ @ Q s.s.3.O.S M x < O [  X3X8X0X8X0X8X0X0X0X",
"8XE./ P P I I m x f l t y 0 : * & @ o X . X . X : f < o & 9 8 : & * % X o   O 7 9 + % %.m.m.l.9.+.J C 9 , ( U. X5X8X8X0X0X0X0X0X",
"8X2X+X+X+X X+XF.r O O 0 %.<.Z x v l * X . . . . X O o . X + , l x v 8 $   o   O O   % %.m.m.v.l.p.*.F M x g d X.,XqX9X0X8X8X0X0X",
"0XqXqX0XqXqX0XW.6 o = L 4.j.;._ J M 7 * @ @ O X O @ O X . . : M F S x , + o X   X O , ` p.p.p.l.v.u.o.J S 8 . / *XqX8X9X9X8X9X0X",
"8X9X9X8X9XqXqXW.6 = ! 3.j.v.h.3._ S x x l l : o : l < o . . * v S S M x 8 + . . O 8 x G _ _ +.i.l.k.p.*.F 8 o / ,XqX9X9X9X9X0X0X",
"8X9X9X8X8X,X XD.b s 4.v.h.p.p.3.' M v l l l < * 9 M 9 o o @ e H _ _ J J x , + o O 8 l M S S F *.p.d.p.;._ c * ^ Y.%X5X9X9X8X0X0X",
"8XqX9X9XqXQ.{ E %.2.v.f.;.o.O.K G M 8 & @ : < l v M 8 O & 9 ) 9.p.p.:.J M x 8 @ X O : z S S F J _ _ o.;.i.$.c z n e.&X9X8X9X0X0X",
"8X0XqX4X+XA.d y p.m.j.9.J x x x v l * X X o , x v v < O , v #.j.v.h.;.Z x x f @ . . o 8 v v x v C S F #.p.7.F 9 o / +XqX9X8X0X0X",
"8X8X8XQ.( n z J d.h.-.Z 8 * * & & @ X . . . o + @ @ O . , v #.k.h.*.Z 8 & : @ o     . + & @ : l M S F J +.J F 9 O ^ +XqX8X0X0X0X",
"8X9XqXJ.; & x _ i.1.Z 9 &     O ; 6 6 6 r 6 6 6 6 r r r g x ) i.1.C 8 @ . . o 3 r d 6 $ . . o < x v x x x x c 8 o [ +XqX8X0X0X0X",
"9X9XqXJ.> * v J O.) e & O X   % | J.J.J.J.J.J.J.J.J.J.G.| d y _ W 8 & o . . 5 ..I.I.A.j . X X @ * : : : : : , @ X ^ +X0X0X8X0X0X"
};
