/* XPM */
static char *f3ec9b700a4e4499a13d8df874b48425HcF9UP9QhbzmsFOW[] = {
/* columns rows colors chars-per-pixel */
"64 64 90 1 ",
"  c #900035",
". c #960039",
"X c #9B003C",
"o c #9A083E",
"O c #A0003F",
"+ c #A30041",
"@ c #AA0045",
"# c #AF0048",
"$ c #B3004A",
"% c #B9004E",
"& c #A41048",
"* c #AA154D",
"= c #BD0051",
"- c #B31D56",
"; c #C40055",
": c #C80057",
"> c #CC005A",
", c #D2005E",
"< c #D60061",
"1 c #DC0064",
"2 c #DB0C69",
"3 c #E00067",
"4 c #E5006A",
"5 c #EA006D",
"6 c #E0096A",
"7 c #EF0070",
"8 c #F40073",
"9 c #F80076",
"0 c #FF007A",
"q c #F70B79",
"w c #FF0C7F",
"e c #E71874",
"r c #E91B77",
"t c #C12863",
"y c #C5356B",
"u c #CE316E",
"i c #D73977",
"p c #DB3C7B",
"a c #F2247F",
"s c #FF1481",
"d c #FF1A84",
"f c #FF2387",
"g c #FF268B",
"h c #FF2C8B",
"j c #FF338D",
"k c #FF388F",
"l c #FF3B91",
"z c #D94D82",
"x c #E54484",
"c c #E84787",
"v c #ED4B8C",
"b c #FF4192",
"n c #FF4C97",
"m c #FF4F98",
"M c #FF499C",
"N c #F75395",
"B c #FF5199",
"V c #FF549A",
"C c #FF559A",
"Z c #FF599C",
"A c #FF5A9C",
"S c #FF5B9E",
"D c #E86797",
"F c #ED6599",
"G c #FF5BA4",
"H c #FF61A2",
"J c #FF65A2",
"K c #FF67A7",
"L c #FF69A6",
"P c #FF6DAB",
"I c #FF7AAD",
"U c #FF77B0",
"Y c #F085AB",
"T c #FF84B2",
"R c #FF87B4",
"E c #FF8DBB",
"W c #FF93BE",
"Q c #F8A3BF",
"! c #FFA4C4",
"~ c #FFA9C6",
"^ c #FFBED0",
"/ c #FFBFD0",
"( c #FFC1D4",
") c #FFC4D4",
"_ c #FFCCD7",
"` c #FFCAD8",
"' c #FFE0E2",
"] c #FFE1E2",
"[ c #FFEAE7",
"{ c #FFEBE7",
/* pixels */
"                        .                                       ",
"$$$#$O   X@$$$##X             .+$###$+.        .+$$$$$$#$#$$#$##",
"34444=.  #,4444<#       .     O:44544=.        X;444441444444343",
"00000>X  $400005%             +<0000s>.        X<000900090000000",
"00000>X  $500005=             +100000>X        O<000000000000000",
"00000>X  $500008%             +<00000:.        +<000009090000000",
"00000>X  $400005=   .         O<00000>. .      +<000000000000000",
"88878;X  $409098;X+XXXX+XXX.  O,88787>OXXXXX   O<000009778878887",
"=====@   $4000091>,<><,>><=X  .#=====;>><><=O  +<000001;====;===",
"         $50000000000000001@       . ;000001@  +<00000>X        ",
".        $50000000000000001@         ;900001@  +<00000>X        ",
"         $40090000000000001@         ;9s0004@  +<00000>.        ",
";;;;;@.  +=>>>>,50000000007<;;;==;=;;:>>>>>;;;=>7000004:;:#X.   ",
"99899>.   X..X.+<00000000009999999999>X.X.X$49990000000988<@  . ",
"00000>X        O<00000000000000000000>X    #400000000000001+    ",
"00000>X .      O<00000000000000000000:.    #400000000000001@    ",
"00000>X        O<00000000000000000090>.    #400000000000001+    ",
"00000>X        O<00000000000000000090>.    #40000000000s001+    ",
"11111=.  X@####%10000000000000ssddddd2%####;79007114414141;+    ",
"@@#@@X.  @,1414580000000000000sfbbbbbf6444379007>#@@@@@@@@+.    ",
"         $50000000000000000000slSSAAZh0000000007%               ",
"        .$50000000000000000000slSCAAShw000000007%               ",
"OOOOOX   @<777770000sghgggdswsdbAACAZjsssss00007;OOOOOX   XX++X+",
"<<<<<%. .X#%=%%;4000MEWWWWUmkklBCSCAZmjjjllhs0094<<<<<%.  +:<><<",
"00000>X        O<000U'[[[[(IACSCSAACSAAAZZZbs000000000>.  $30000",
"00000>X        O<000P'[[[[^IAAAACAASSAAAZZZbs000000000>X  =30009",
"00000>X        O<00sU'[[[[^ICAACSCSCAAAAZZZbd000000000>X  $70000",
"00000>X        O,000U'[[[[(IAAAAAAAAAAAAZZZls000000000>.  %30000",
"00000>X        +<000U'[[[[(ICAAACACAAAAAZZZbs000000000>X  $70000",
"00000>X  X%;===:egghK!~~~~YzuupvSASAACSCZZZbs0083>>>>>;;;;;>>>>>",
"00000>X  #39989qjNmBZJJJJJz-oo*pAACSCAAAZZZbd007=XXXXX;788<#XXXX",
"00000>X  %40000wkZZZZZZZCCx&  &iSCAASASCZZZbs007=  .  =8001@    ",
"00000>X  $50000skZZZZZZZZZp*  &iAACSASAAZZZld005%     =8001@    ",
"00000>X  @>11112flllHTRRRRDy--txSCAAACSCZZZbs008>$$$$$;111>=$$$$",
"00000>X  .O++@@$2sssP(```_QFccvNASASCAAAZZZbs000755545>#+@=14555",
"00000>X        O>000U'[[[[/IZZZZACACSASCZZZbd000000000>.  %40000",
"00000>X        O<000U'[[[{(IZZZZAAAAASSAZZZbs000000000>X  %40000",
"00000>X        O<000P'[[[[^IZZZZACAAACAAZZZbs000000000>X  $50000",
"00000>X        O<00wU'[[[[^IZZZGACAASCAAZZZld000000000>X  $50000",
"77777;X  .XXOOO@<000K(`___!LnnmCASAAACnmnnBks000957777;X  #15755",
"==%=%@.  @;<><<17000jGGGGGMjgfhbAAACCbhhfffdw008,=%%=%@.  X$===%",
"         $50000000000000000000slCSASAj0000000007%               ",
"         $50000000000000000000skSCACShw000000007%               ",
"         $40000000000000000000skAAASCj0000000005%               ",
"         $500000000000s0000000slACSAAh0000000007%               ",
"         $50000000000000000000slASCACjw000000005%               ",
"=====@   +;<><>170000000000000sdjjjjkr<>,,>18008<=========$X    ",
"89888;.  .XXXXX@1000000000000000ww0ww>+XXXX=50009888888888,X    ",
"00000>X    .   X,00000000000000000000>.    $400000000000001+ .  ",
"00000>X        +,00000000000000000000>.    $400000000000901@    ",
"11111=. .X@$$##=300000000084111111111>$$$#$=,1138000007311;O.   ",
"@@@@@X   @<4444580909000004=@@@+@@@@@;44444,%@@%100000,##@O.    ",
"         $40000000000000001@         ;900001@  O<00000>.        ",
"         %40000009900000001@         ;900003@  O<00000>.        ",
"         $40000000000000001@         ;900001#  O<00000>X        ",
"  .      $40000000000000001@         ;900004@  +<00090>X        ",
"OOOXXX   $40000987889000001@   .XXXXX;58878<@  O<90000<+XXX   . ",
",,,,,$.  $400008<===1009901@  X=,,,><>===%=#X  +<000005,,<=O    ",
"00009,X  $500005%  .;900001@  +<00000>X        O<000900000<+ .  ",
"00000>X  $500007=   ;900001@. +100000>.        O<0000000001@    ",
"90000>X  $400005=   ;000001@  +<00000>.        O<000000000<@    ",
":>>>>#.  O;>>>>;+   @;>>>>=X  X$;>>>>#.        X%;>>>:;>>>%X    ",
".....    ..X....    ...X.X.    .X..... .        ...X.....X.     ",
"                                                                "
};
