/* XPM */
static char *_d42c668925b45edfc3e83fece473e4c9pDCnJTWFXLKsZS6[] = {
/* columns rows colors chars-per-pixel */
"64 64 124 2 ",
"   c #900035",
".  c #950139",
"X  c #9C003D",
"o  c #960D3F",
"O  c #9A083F",
"+  c #A1003F",
"@  c #9F0641",
"#  c #9D0B41",
"$  c #9A1545",
"%  c #9F1648",
"&  c #9D1A49",
"*  c #A50042",
"=  c #AC0047",
"-  c #A20E46",
";  c #AF0048",
":  c #AC0849",
">  c #B4004C",
",  c #B8004E",
"<  c #B00C4E",
"1  c #A7134B",
"2  c #AB164E",
"3  c #BE0052",
"4  c #AE1750",
"5  c #AF1852",
"6  c #B01652",
"7  c #B01A53",
"8  c #B71F59",
"9  c #BB1B5A",
"0  c #9F204D",
"q  c #A32853",
"w  c #B7205A",
"e  c #B9215B",
"r  c #A8335C",
"t  c #B0305F",
"y  c #AB3A61",
"u  c #B73363",
"i  c #B73B68",
"p  c #C50156",
"a  c #C70158",
"s  c #CA0059",
"d  c #CD0B5F",
"f  c #D2005E",
"g  c #C6125D",
"h  c #D60261",
"j  c #DA0063",
"k  c #C41B60",
"l  c #D41367",
"z  c #D61368",
"x  c #E20067",
"c  c #E30069",
"v  c #EB006E",
"b  c #E60B6F",
"n  c #EE0170",
"m  c #F40073",
"M  c #F90076",
"N  c #FF007A",
"B  c #FF097D",
"V  c #ED1175",
"C  c #E31A72",
"Z  c #C12662",
"A  c #C72C68",
"S  c #CA2E6A",
"D  c #D4246D",
"F  c #CC316D",
"G  c #D42E71",
"H  c #CB3C72",
"J  c #D23472",
"K  c #D43A76",
"L  c #DC3C7B",
"P  c #E52879",
"I  c #AE4066",
"U  c #B04569",
"Y  c #B74B70",
"T  c #B75374",
"R  c #FE1F85",
"E  c #F52C84",
"W  c #E53980",
"Q  c #FF348E",
"!  c #F03F89",
"~  c #D44D80",
"^  c #D84D81",
"/  c #D05280",
"(  c #DD598A",
")  c #E34382",
"_  c #E54886",
"`  c #ED4A8B",
"'  c #F04D8E",
"]  c #EE508F",
"[  c #FF4A96",
"{  c #F55193",
"}  c #FA5597",
"|  c #FF599C",
" . c #C16984",
".. c #D4658C",
"X. c #C97991",
"o. c #D47996",
"O. c #E56193",
"+. c #E56C98",
"@. c #ED729F",
"#. c #F26EA0",
"$. c #ED77A3",
"%. c #FF7EAF",
"&. c #D0879C",
"*. c #D0889C",
"=. c #D490A2",
"-. c #D898A8",
";. c #ED8AAC",
":. c #F186AC",
">. c #E597AF",
",. c #FF8EB7",
"<. c #FF8EB8",
"1. c #F791B4",
"2. c #E5B5BE",
"3. c #FFA4C3",
"4. c #FFA5C3",
"5. c #EDB1C1",
"6. c #FAB0C6",
"7. c #EDC5CA",
"8. c #FFC4D3",
"9. c #FFD3DA",
"0. c #FFD3DB",
"q. c #FFEAE6",
"w. c #FFEAE7",
"e. c #FFEBE7",
/* pixels */
"                                                                                                                                ",
"      . . . .                                                                                                                   ",
"    * 3 , , = .         X > > , > 3 > p > > > , , , , , , = .     X = , , , , , , , , , > , , , , , = .     X ; > , , , > X     ",
"  . p v n v a X         = f v v v n v v n v n n n v n v v a X     * j v v v m v v v v v n v n v v v a X     = j v v m v j >     ",
"  . s N N N h X         ; x N N N N N N N M N N N N N N N h +     ; c N N N N N N N N N N N N N N N f X     > c N N N N v >     ",
". . s M N N f X         ; x N N N N N N N N N N N N N N N h X     ; v N N N N N N N N N N N N N N N h X     > v N N N N v >     ",
"  . s M N N f +         ; c N N N N N N N N N N N N N N N f X     ; c N N N N N N N N N N N N N N N f X     > v N N N N n >     ",
". . s M N N f X         > c N N N N N N N N N N N N N N N h +     ; v N N N N N N N N N N N N N N N f X     > c N N N N v >     ",
"  . a N N N h X         * s c c c c c c c j c c x x x x x p X     = s c c c j c c c j c x x x x c c p .     ; v N N N N n ,     ",
"  . a M N N f X         . * ; ; ; ; = = ; ; = = = = = = = + .     . * ; = = ; ; = = ; ; = * = = = = @       > c N N N N n >     ",
"  . a N N N f @                                                                                             > v N N N N n >     ",
"  . a N N N f X .                                                                                           > v N N N N v >     ",
"  . , v v v p X                   @ * * * = * * * * * * * X .     . * * * * * = * * * * .                   * h v v v v j =     ",
"  . + > > ; *                   @ p j j j j j j j j j j j 3 .     * a j j j j j j j j h >                   X = ; > ; ; = @     ",
"    . .                         * j N N N N N N N N N N N h X     ; c N N N N N N N N M a                                       ",
"                                * j N N N N N N N N N N N f +     ; c N N N N N N N N M p                                       ",
"                                * j N N N N N N N N N N N h O     > c N N N N N N N N M p                                       ",
"                                * j N N N N N N N N N N N h X     > c N N N N N N N N M p                                       ",
"    . X X X .           . O @ # : h m m m m M M N B N R B l X     = c R B B R N M m m n p O O O O O .         . X . X X .       ",
"  . > f f f , X         % Z F J S g 3 3 3 3 3 C Q Q Q Q Q l *     < P Q Q Q Q E z 3 3 p Z F J J J J w O     * p f f f f p *     ",
"  . a N M N f X         5 ) | | _ w         o S | | | | | K #     7 _ | | | | ` e     O F | | | | | J #     > c N N N N v >     ",
"  . a M M N f X .       5 ) | | _ w         . S | | | | | K #     5 ) | | | | ` e     . S | | | | | J O     > v N N N N v ,     ",
"  . a N N N f +         5 W | | ] w . . . . O F | | | #.| K #     4 _ | | | #.] e . . o F | | | | | J #     > v N N N N v >     ",
"  . a N N N f X         4 ) | | { L S S S S F +.3.4.4.4.4...$     t ;.4.3.4.4.1.( S S F ) | | | | | J O     > c N N N N v >     ",
"    a N N N f X         5 ) | | | | | | | | | 4.w.w.w.w.e.=.0     I 2.e.e.e.w.9.<.| | | | | | | | | J #     ; v N N N N n >     ",
"  . a N N N f X       . 4 ) | | | | | | | | | 4.w.w.w.w.e.=.0     U 2.e.e.e.w.9.<.| | | | | | | | | J #     > c N N N N n >     ",
"  . a N N N f X         4 ) | | | | | | | | | 4.w.w.w.w.w.=.0     U 2.e.e.e.w.9.<.| | | | | | | | | J #     > v N N N N n ,     ",
"  . a M N N f +         4 W | | | | | | | | #.4.w.w.e.e.w.=.0     U 2.w.e.e.w.9.<.| | | | | | | | | J #     ; v N N N N v >     ",
"    a M N N f X         4 ) | | | | | | | | | 6.w.w.w.e.e.=.0     U 2.e.e.e.w.9.<.| | | | | | | | | J #     > v N N N N v >     ",
"    > f f f , .         1 e J F J F J F J F F ..*.*.*.*.*.T $     q  .*.*.*.*.X./ F J F J J F F F F w O     * p h s h s p *     ",
"    . . . . .           . o O O O O O O O O O # $ $ $ $ $ $       . $ $ $ $ $ $ # O O O # O O O O # .         . . X X X .       ",
"            .                                                                                                                   ",
"                                                                                                                                ",
"    * > > > * .         # 5 8 8 w w w w w w e i T T T T T r o     $ U T T T T Y u 8 w w w w w w 8 8 1 .     . = , , , , > X     ",
"    3 v n n a X         1 K ` ` ` ` ` ` ` ` ` ;.7.7.7.7.7.X.&     y -.7.7.7.7.2.$.` ` ` ` ` ` ` ` ` A O     = j v v v v j ;     ",
"  . a N N N f @         5 ) | | | | | | | | | 3.w.w.e.e.w.=.0     U 5.e.e.e.e.9.,.| | | | | | | | | J #     > v N N N N v >     ",
"  . s M N N h X         5 ) | | | | | | | | | 3.w.q.w.w.e.=.0     U 2.e.e.e.w.9.,.| | | | | | | | | J #     > c N N N N v ,     ",
"  . a M N N f X         5 ) | | | | | | | | #.3.w.q.e.e.e.=.0     U 2.e.e.e.e.9.,.| | | | | | | | | J #     > v N N N N v >     ",
"  . a N N N f @         4 ) | | | | | | | | #.4.q.q.w.w.w.=.0     U 2.e.e.e.w.9.,.| | | | | | | | | J #     > v N N N N v >     ",
"  . s N N N f X         4 W | | } ` ) ) ) L ) :.8.8.8.8.8.o.&     y >.8.8.8.8.6.$.) W ) ` | | | | | J O     > c N N N N v >     ",
"  . s N N N f X         4 ) | | ` S 5 4 4 2 4 ~ %.%.%.%.%.~ %     w O.:.%.%.%.#.H 4 4 7 L | | | | | J #     > v N N N R v >     ",
"  . s M N N f X         4 ) | | ` w         . F | | | | | K #     5 ) | | | | ` 9     # S | | | | | J #     > v N N N N v ,     ",
"  . s M N N f X         4 ) | | ` 8         o S | | | | | K -     7 _ | | | | ` w     O F | | | | | J O     > c N N N N v ,     ",
"  . s M N N f *         7 ) | | _ 8         . S | | | | | J @     7 ) | | | | ` w     . S | | | | | J O     > v N N N N v ,     ",
"  . s M N N f X         6 ) | | _ w         o F | | | | | K #     7 ) | | | | ` w     O F | | | | | J O     > c N N N N v >     ",
"  . p v v n a X         2 K ` ` L 9 * * * * * D [ [ [ [ [ G #     6 L [ [ [ [ ! k * * * A ` ` ` ` ` A O     = h n v v v j >     ",
"    * > > , * .         O 5 e w g d j h j h h V R R R R R l @     : C R R E R R b h h h g 8 8 8 w w 1 .     X > > , > , > X     ",
"                                * h N N N N N N N N N N N h X     > v N N N N N N N N M p                                       ",
"                                * h N N N N N N N N N N N h @     > c N N N N N N N N M 3                                       ",
"    . + X @ X                   * h m m m m m m m m m m m a X     ; j m m m m m m m m n 3                     . X O X X X .     ",
"  . > f h s 3 .                 . ; 3 3 3 3 3 p 3 3 3 3 3 = .     @ ; 3 3 3 3 3 3 3 3 3 *                   + p f f f f a *     ",
"  . s M N N f @                                                         .                                   > v M N N N v , .   ",
". . s M N N s @                                                                                             > c N N N N v > .   ",
"  . s M N N h X                                                                                             > v N N N N v ,     ",
"  . s M N N h @ .               .                                                       .                   ; v N N N N v , .   ",
"  . s M N N h X         .       .                     .                     .                               > c N N N M v ,     ",
"  . s N N N f X         * , a a a a a s a a a a a a a a a > .     X , a a a a a s a a s s a a a a s > .     > v N N N N n >     ",
"  . s M N N f +         ; c N M M N N M M M M M M N M N M f X     ; v M M N M M M M M M M M M N M M f X     > c N N N N n > .   ",
"  . a N N N f +         > c N N N N N M N N N N N N N N N h *     ; c N N N N N N N N N N N N N N N f +     > v N N N N v >     ",
". . a N N N f + .       ; c N N N N N M N N N N N N N N N f X     ; v M N N N N N N N N N N N N N N f X     > c N N N N v 3 .   ",
"  . ; f f f , X         * p f f f f f f f f f f f f f f s 3 .     * p s h s h s s f f f f f f f f s , .     + p f f f f a *     ",
"    . X X X .             . X . X X X X . X . . X X X . X .         . X X X X X X . . X X X . X X X .       . . X X X X X .     ",
"    .                       .                   .                                                   .                           ",
"                                                                                                                                "
};
