/* XPM */
static char *_4badaa92dd746f8ac09597a25aa499dL4PHmDSfO8JtOGHn[] = {
/* columns rows colors chars-per-pixel */
"64 64 164 2 ",
"   c #900035",
".  c #960039",
"X  c #9C003C",
"o  c #A1003F",
"O  c #9F0741",
"+  c #9E0B42",
"@  c #9F1E4D",
"#  c #A40042",
"$  c #AB0146",
"%  c #A30E46",
"&  c #AF0048",
"*  c #A80C49",
"=  c #B3004B",
"-  c #B9004E",
";  c #AA124C",
":  c #B0104F",
">  c #BC0150",
",  c #AF1B55",
"<  c #B41554",
"1  c #B01952",
"2  c #BC1D5C",
"3  c #A22651",
"4  c #AB2757",
"5  c #AF295A",
"6  c #BB225D",
"7  c #A63059",
"8  c #AE305D",
"9  c #B03661",
"0  c #B13A64",
"q  c #BC3B6A",
"w  c #C40055",
"e  c #C70559",
"r  c #CD005B",
"t  c #C40F5C",
"y  c #CC0B5F",
"u  c #D3005E",
"i  c #C1125A",
"p  c #C21C5F",
"a  c #D60061",
"s  c #DA0063",
"d  c #D40B64",
"f  c #DD0D6A",
"g  c #DD116B",
"h  c #D51E6B",
"j  c #E40069",
"k  c #EB006D",
"l  c #E30C6D",
"z  c #EE0070",
"x  c #EC0C73",
"c  c #F50074",
"v  c #F90076",
"b  c #F00F76",
"n  c #FF007A",
"m  c #F70B79",
"M  c #FF0A7E",
"N  c #E51572",
"B  c #E91574",
"V  c #E91976",
"C  c #ED1C79",
"Z  c #F7107C",
"A  c #F31C7E",
"S  c #C42363",
"D  c #CC2267",
"F  c #C42A65",
"G  c #CA2668",
"H  c #D0216A",
"J  c #D82B74",
"K  c #D33674",
"L  c #D73977",
"P  c #D33979",
"I  c #DC3B7B",
"U  c #E32476",
"Y  c #EC237C",
"T  c #B04367",
"R  c #B04368",
"E  c #BA466E",
"W  c #BD4670",
"Q  c #FF1281",
"!  c #FE1C84",
"~  c #F52682",
"^  c #FF2086",
"/  c #FF2688",
"(  c #FF2B8A",
")  c #E53C83",
"_  c #FE338D",
"`  c #F63C8B",
"'  c #FF388F",
"]  c #FF3C91",
"[  c #DC4480",
"{  c #DD5287",
"}  c #DC5B8B",
"|  c #E44383",
" . c #E9478A",
".. c #ED4A8B",
"X. c #F0448A",
"o. c #F14C8F",
"O. c #E25189",
"+. c #FE4494",
"@. c #F44E91",
"#. c #FE4A96",
"$. c #FF4599",
"%. c #FF4E9B",
"&. c #E85F93",
"*. c #F85396",
"=. c #F95496",
"-. c #FF529A",
";. c #FF539A",
":. c #FC579A",
">. c #FF579B",
",. c #FE589B",
"<. c #FF589C",
"1. c #FF5A9C",
"2. c #FF5C9D",
"3. c #D37796",
"4. c #EA6597",
"5. c #EE6D9E",
"6. c #FF57A2",
"7. c #FF5EA4",
"8. c #FF62A0",
"9. c #FF65A2",
"0. c #FF66A3",
"q. c #FF6AA5",
"w. c #FF6CA6",
"e. c #FF6BA8",
"r. c #F579A7",
"t. c #FF73A9",
"y. c #FF75AB",
"u. c #FF7FAF",
"i. c #DA86A0",
"p. c #D38EA1",
"a. c #D695A6",
"s. c #DB9CAC",
"d. c #E48FAB",
"f. c #FF81B2",
"g. c #FF8DB7",
"h. c #E39CB1",
"j. c #FF92B9",
"k. c #FF94BA",
"l. c #FF99BD",
"z. c #E3A4B5",
"x. c #E9A2B6",
"c. c #E8A6B8",
"v. c #EFA9BD",
"b. c #E4B1BC",
"n. c #FF9FC0",
"m. c #FFA3C2",
"M. c #FFABC6",
"N. c #FFADC7",
"B. c #FFAFC8",
"V. c #F4B2C4",
"C. c #FFB0C9",
"Z. c #FFB3CA",
"A. c #FFBACD",
"S. c #FFBBCF",
"D. c #FFBDD2",
"F. c #FFC2D2",
"G. c #FFCBD7",
"H. c #FFCDD9",
"J. c #FFD4DB",
"K. c #FFD9DE",
"L. c #FFDDE0",
"P. c #FFE3E3",
"I. c #FFEAE7",
"U. c #FFEBE7",
/* pixels */
"          .                                                                                                                     ",
"# o o o # # O . .                                                                                             + % % % % % % # # ",
"u a a a a a - .                                                                                             . 4 P P K K L D a a ",
"v n n n v n r X               .                                                                             + K 1.>.>.>.>.( Q v ",
"n n n n n n r X                                                                                             + K >.>.>.>.>.( Q n ",
"n n n n n n r X                                                                                             + K >.1.1.>.>._ M n ",
"n n n n n n r X                                                                                             + K 1.1.>.1.>._ M n ",
"n n n n n n r X                                                                                             + K >.>.>.1.>._ M n ",
"n n n n n n N G F F F F F F F F 6 t w w w w w $                     $ w w w w w w w w w w w w w w w > X     O h ( _ ( _ ( ! n n ",
"n n n n n n / @.=.=.*.*.*.*.*.*.+.! v v v v v w                     a c v v v c v v v v v v v v c n s &     X a n Q n M M n n n ",
"n n n n n n / -.1.>.>.>.>.1.1.>.#.! n n n n n r                   # s n n n n n n n n n n n n n n n j &     O a n n n n n n n n ",
"n n n n n n / -.1.1.1.>.>.1.1.1.#./ n n n n n r .                 # s n n n n n n n n n n n n n n n j =     X a n n n n n n n n ",
"a a a a s a V _ ' ] +.-.>.>.1.1.#.! n n n n n g 6 2 6 < > - - - > e N ! ^ ^ ! ! / ! ! / ! ! ! / / ^ Y D 2 6 2 y a a a a a a a a ",
"# # # # # # y m M M / #.1.>.>.>.#.^ n n n n n ~  .....Y x k k k z x _ #.#.#.#.#.#.#.#.#.#.#.#.#.#.#.#.X.....I 2 # O # # # # # # ",
"            w c n n ! #.1.>.,.,.#.^ n n n n n / >.2.2.' M n n n n Q ] 1.1.1.1.1.1.1.>.1.1.1.1.>.>.>.1.1.1.1.@.6                 ",
"            > c n n ! +.1.1.,.1.#.^ n n n n n / >.,.2.' Q n n n n Q ] 2.1.1.>.1.1.1.1.>.1.1.1.>.1.1.>.1.1.6.@.6                 ",
"            w c n n ^ #.1.1.1.1.#.! n n n n n ( -.,.1.' M n n n n Q ] ,.1.1.1.>.>.1.1.1.1.>.1.>.>.>.1.1.>.1...6   .             ",
"            w c n n ! #.1.1.1.>.#.! n n n n n ( >.,.1.' M n n n n Q ] >.1.>.1.1.1.1.1.1.>.1.>.1.1.1.1.1.1.1.@.6       .         ",
"X # # # # # y m Q Q / #.1.>.1.>.#.! n n n n n ( >.>.,.] ! Q Q Q Q ^ +.>.>.1.q.t.t.y.t.t.q.2.1.1.1.1.>.1.>.1.@.G # # # # # O     ",
"- s s s s a C ' ] ] +.-.>.1.1.1.#.^ n n n n n ( >.,.1.%.+.] ] ] ] +.%.>.1.0.j.A.A.A.A.A.j.0.>.1.>.>.1.>.1.1.#.Y s s s s a > .   ",
"a n n n n n / -.1.>.1.>.1.1.1.:.#.! n n n n n ( -.,.1.1.>.1.1.>.1.1.1.1.1.0.M.U.U.U.U.U.Z.w.1.1.1.1.1.>.1.>.%./ n n n n n r O   ",
"a n n n n n / -.>.1.1.1.1.1.1.>.#./ n n n n n ( >.>.1.,.1.1.>.1.>.>.1.>.>.0.M.U.U.U.U.U.Z.w.1.1.1.>.1.1.1.1.%./ n n n n n r X   ",
"r c c c c c / #.-.-.1.0.0.0.0.0.1./ Q n n Q Q _ 8.8.0.0.1.1.1.1.1.1.0.8.0.t.M.L.L.L.L.L.N.t.8.0.0.0.8.0.0.0.1.( n n n n n r X   ",
"& > > w w w g ~ / / 6.j.M.M.M.B.k.7._ _ _ _ ( e.m.M.M.g.0.>.,.1.1.0.g.M.M.M.m.l.l.l.l.l.l.M.M.M.M.M.M.M.M.M.k.$.n n n n n r X   ",
"            w c n n 6.D.U.U.U.U.J.g.6.1.>.1.1.n.P.U.U.Z.w.1.1.,.1.t.A.U.U.L.k.1.,.1.>.>.j.K.U.U.U.U.U.U.U.U.H.0.n n n n n a .   ",
"            > c n n %.D.U.U.U.U.J.g.1.1.1.1.>.n.P.U.U.Z.t.1.1.1.1.y.D.U.U.L.k.1.1.>.1.1.k.K.U.U.U.U.U.U.U.U.H.7.n n n n n r X   ",
"            w c n n %.D.U.U.U.U.J.g.1.1.1.1.>.m.P.U.U.Z.w.1.2.:.1.y.D.U.U.L.n.1.1.1.1.>.j.K.U.U.U.U.U.U.U.U.H.7.n n n n n r X   ",
"            w c n Q %.D.U.U.U.U.J.g.1.1.1.1.>.m.P.U.U.A.t.,.1.1.1.t.A.U.U.L.k.1.1.>.1.1.k.K.U.U.U.U.U.U.U.U.H.7.n n n n n r .   ",
"            > c n n %.D.P.U.U.U.H.g.>.1.>.1.1.l.P.U.U.Z.t.1.2.1.,.t.D.U.U.L.n.1.1.1.1.1.k.K.U.U.U.U.U.U.U.U.G.8.n n n n n r .   ",
"            $ r a a J 3.p.p.p.p.i.5.1.1.1.>.1.n.P.U.U.v.{ K K P K } V.U.U.L.l.1.1.1.1.,.5.i.p.p.p.p.p.p.p.p.3.K u u u u a - .   ",
"              . O X + @ @ @ @ @ 5 [ 1.1.1.>.1.n.P.U.U.s.5 + + + + 0 z.U.U.L.l.1.,.2.6.,.[ 4 @ @ @ @ @ @ @ @ @ % X X X O O .     ",
"                                % L 1.>.1.>.1.n.P.U.U.a.3         7 s.U.U.L.l.1.2.,.,.=.P +                                     ",
"                                % K 1.1.1.,.2.l.P.U.U.a.3         7 s.U.U.K.l.1.,.1.1.1.K +                                     ",
"            O & & & , 9 R R R R E O.1.,.1.2.,.M.P.U.U.h.q , , , , W c.U.U.P.l.1.1.1.,.1.{ E R R R R R R T T 0 , & $ & & & #     ",
"            > s j j ) d.b.b.b.b.x.r.,.1.,.1.,.l.P.U.U.V.&.| | | | 4.V.U.U.P.l.,.,.1.1.1.r.c.b.b.b.b.b.b.b.b.h. .j j j j j > .   ",
"            > c n n ;.D.U.U.U.U.J.g.1.1.,.1.,.m.P.U.U.C.t.,.>.1.>.t.D.U.U.K.l.2.1.1.,.,.j.K.U.U.U.U.U.U.U.U.H.7.v n v n n r X   ",
"            > v n n %.D.U.U.U.U.J.g.1.>.,.2.,.m.P.U.U.A.t.1.1.1.2.t.D.U.U.P.l.,.1.1.,.1.j.K.U.U.U.U.U.U.U.U.H.7.n n n n n r X   ",
"            w c n n %.D.U.U.U.U.J.g.>.1.2.,.,.l.P.U.U.Z.w.1.>.1.1.t.A.U.U.K.l.,.,.1.1.1.k.K.U.U.U.U.U.U.U.U.G.7.n n n n n r .   ",
"            > v n Q %.D.U.U.U.U.J.g.1.1.,.,.2.l.P.U.U.Z.t.>.1.>.1.t.S.U.U.K.l.1.,.1.1.,.k.K.U.U.U.U.U.U.U.U.J.7.n n n n n r X   ",
". X X   O O r v Q Q 6.Z.K.K.L.J.F.f.-.#.-.#.-.j.J.K.K.N.q.1.>.1.2.t.Z.K.K.H.l.w.q.w.w.w.k.G.K.K.K.K.K.K.K.K.D.6.n n n n n r X   ",
"- u u u r u N _ ' _ >.f.k.k.j.j.f.%./ / / / / 6.g.j.k.u.0.>.>.1.1.0.u.j.j.k.m.Z.B.B.B.Z.m.l.k.k.k.j.j.j.k.k.f.] n n n n n u X   ",
"u n n n n n / -.>.1.1.6.1.1.1.1.#.! n n n n n / >.1.1.1.1.1.1.1.1.1.1.1.1.0.M.U.U.U.U.U.Z.w.,.,.1.1.1.1.1.1.%./ n n n n n r X   ",
"u n n n n n / -.1.1.1.>.1.1.>.1.#.! n n n n n ( >.>.1.1.1.>.1.>.>.1.1.1.1.0.M.U.U.U.U.U.N.w.1.,.1.1.1.1.1.1.%./ n n n n n r X   ",
"a n n n n n / -.1.1.,.1.1.1.1.>.#.^ n n n n n ( -.1.>.>.>.1.1.1.>.1.1.>.1.q.M.U.U.P.U.U.Z.w.1.2.1.1.1.,.1.1.#./ n n n n n r X   ",
"a n n n n n / -.>.1.1.1.1.1.1.>.#.^ n n n n n ( -.1.1.1.1.>.1.>.1.1.1.1.>.0.M.U.U.U.U.U.N.w.,.,.>.1.>.1.,.1.%./ n n n n n u X   ",
"u c n n n n / -.>.>.>.1.>.1.>.1.#.^ n n n n n ( >.>.1.>.>.1.1.1.>.1.1.1.1.8.M.U.U.U.U.U.C.w.,.,.1.1.1.>.1.1.#./ n n n n n r X   ",
"= r r r r r N ( ' _ ] %.1.>.1.1.#.^ n n n n n ( -.1.1.#.] _ _ _ _ ' #.1.1.0.f.M.M.M.M.M.g.0.>.,.1.>.1.>.1.1.#.U u r r r r -     ",
". X X X X X e m M M / #.,.6.1.1.#.^ n n n n n ( -.1.1.] Q M M M M ! ] 1.1.1.0.8.q.0.q.0.8.,.,.,.>.1.>.1.1.1.o.S X X X X X .     ",
"            w c n n ! #.1.1.1.>.#.! n n n n n ( -.1.1.' Q n n n n Q ] >.>.1.1.1.1.>.1.,.1.,.>.>.1.1.1.1.1.>.@.6 .               ",
"            w c n n ! +.1.>.>.>.#.^ n n n n n ( 1.>.>.' M n n n n Q ] 1.1.1.1.1.1.1.1.1.1.1.1.1.>.>.>.>.1.1...6                 ",
"= = - - - = d A ! ! _ #.1.>.>.1.#.^ n n n n n C I I I J f s s s s l ~ ] ] ] ] ] ] ] ] ] ] ] ] ] ] ' ` ) L I K 2 > = = & = & = = ",
"j j k j k k A ] +.#.#.>.>.:.1.1.#.^ n n n n n d ; ; * * # $ # # # > l Q Q Q Z Z Q Q Q Q Q Q Q Q Q Q B i ; ; : y k k k k k k k k ",
"n n n n n n / -.>.>.1.>.>.,.1.1.#.^ n n n n n w X                 # s n n n n n n n n n n n n n n n j &     # u n n n n n n n n ",
"n n n n n n / -.>.1.1.>.>.1.1.>.#.^ n n n n n r .                 # s n n n n n n n n n n n n n n n j =     X u n n n n n n n n ",
"n n n n n n / %.:.1.:.1.>.1.1.>.#.! n n n n n w .                 # s n n n n n n n n n n n n n n n j &     O a n n n n n n n n ",
"n n n n n n / -.>.1.1.>.1.>.>.>.#.^ n n n n n r .                 # s n n c n n n n n n n n n n n n j &     X a n n n n n n n n ",
"v n n n n n ! ......@.#.#.#.#.#.' A k z z z z r # o O X           # s n n n c k z z k z c c n n n v j &   . X r z z z z z z z z ",
"j n n n n n g 6 6 6 D Y ! ^ ^ ^ A d - - - - - w u u u > X         $ s n n c a - - > > - a c n n n n j &       $ > > > > > > > > ",
"s n n n n n r X     - k v n n n k -           w v n n a #         # s n n c w           > z n n n n j &             . .   .     ",
"a n n n n n r X     = j n n n n k =           w v n n a X         # s n n c >           > c n n n n j &                 .   .   ",
"r v v n v c r X     = j c n v v j -           w c n v u X         # a n v c >           > k v v v v s =                   . . . ",
"= w w w w w & .     # > w w w r w o           $ w w w = .         X - w w w $           # w w r w r > #                         ",
"      . X X X .           .   . .             . .   .               .                       .                   . . .           ",
"          . . .                                   .                                                                             "
};
